<svg xmlns="http://www.w3.org/2000/svg" viewBox="0 0 500 500"><g id="freepik--background-simple--inject-13"><path d="M388.08,122.23l-1.7-2.81c-14.36-23.67-40.33-37.93-67.7-36.2a71.19,71.19,0,0,0-10.48,1.44c-24.89,5.33-46.55,24.15-55.52,48.25-5.28,14.18-6.76,30.5-16.78,41.75-13,14.65-35.17,15.11-54.63,14.5s-41.62-.09-54.59,14.61c-8.13,9.21-10.71,22.31-10.05,34.64,1.73,32.64,24.48,61.83,53.41,76.34s63,15.81,94.66,9.43c44.36-8.94,86.54-33.5,111.89-71.42S408.37,163.16,388.08,122.23Z" style="fill:#ebebeb"></path><circle cx="169.73" cy="98.8" r="31.08" style="fill:#ebebeb"></circle></g><g id="freepik--Plants--inject-13"><path d="M430.59,430.93c-2.74-.14-3.55-4-2.53-6.56s3-4.82,3.07-7.56c0-2.38-1.49-4.55-1.63-6.93-.26-4.29,3.88-7.79,4.06-12.08.14-3.35-2.19-6.54-1.62-9.84.6-3.55,4.3-5.87,5.15-9.37.9-3.72-1.68-7.66-.69-11.35s5.32-6.39,4.7-10.16a34.38,34.38,0,0,0-1.29-3.55c-.77-2.8.76-5.73,2.62-8s4.13-4.24,5.28-6.91c1.76-4.12.53-9.13,2.62-13.09,1.73-3.3,5.59-5.52,6.07-9.22,2,3.33.05,7.57.49,11.4.29,2.5,1.59,4.75,2.38,7.14a18.57,18.57,0,0,1-1.46,14.88c-1.67,2.95-4.26,5.73-4.13,9.12.16,4.1,4.27,7.07,5,11.12,1,5.78-5.12,11-4.27,16.79.22,1.5.91,2.91,1,4.43.44,5.13-5.39,8.76-6.28,13.85-.65,3.73,1.51,7.6.61,11.29-.68,2.84-3.14,5.39-2.54,8.25a21,21,0,0,0,1.57,3.46,6.56,6.56,0,0,1-1,6.81,5.73,5.73,0,0,1-6.62,1.36" style="fill:#FF725E"></path><g style="opacity:0.5"><path d="M448.8,428.06a21,21,0,0,1-1.57-3.46c-.6-2.86,1.86-5.41,2.54-8.25.9-3.69-1.26-7.56-.61-11.29.89-5.09,6.72-8.72,6.28-13.85-.13-1.52-.82-2.93-1-4.43-.85-5.81,5.31-11,4.27-16.79-.72-4.05-4.83-7-5-11.12-.13-3.39,2.46-6.17,4.14-9.12a18.61,18.61,0,0,0,1.45-14.88c-.79-2.39-2.09-4.64-2.38-7.14-.44-3.83,1.47-8.07-.49-11.4-.48,3.7-4.34,5.92-6.07,9.22-2.09,4-.86,9-2.62,13.09-1.15,2.68-3.43,4.67-5.28,6.91s-3.39,5.18-2.62,8a34.38,34.38,0,0,1,1.29,3.55c.62,3.77-3.72,6.47-4.7,10.16s1.59,7.63.69,11.35c-.85,3.5-4.55,5.82-5.15,9.37-.57,3.3,1.76,6.49,1.62,9.84-.18,4.29-4.32,7.79-4.06,12.08.14,2.38,1.66,4.55,1.63,6.93,0,2.74-2.05,5-3.07,7.56s-.21,6.42,2.53,6.56l10.56,5.3a5.73,5.73,0,0,0,6.62-1.36A6.56,6.56,0,0,0,448.8,428.06Z" style="fill:#fff"></path></g><path d="M445.22,425.54a7.55,7.55,0,0,1-1.06-4.06c.29-1.57,2.94-3,3.6-5.61.86-3.45-.69-9.57,0-13.05.9-4.74,5.8-7.85,5.59-12.56-.05-1.38.14-5.07,0-6.44-.52-5.3,4.13-8.85,3.46-14.11-.48-3.68-4.29-8-4.29-11.75,0-3.12,2.23-5.84,3.71-8.67a19.46,19.46,0,0,0,1.68-13.79c-.59-2.15-1.59-4.14-1.75-6.42-.25-3.5,1.47-7.53-.05-10.46-.52,3.43-3.78,5.73-5.32,8.88-1.85,3.78-1,8.31-2.59,12.22-1,2.54-3,4.52-4.59,6.71s-3,5-2.42,7.52a29.11,29.11,0,0,1,1,3.18c.4,3.43-3.29,6.2-4.22,9.66s1.08,6.92.22,10.41c-.82,3.27-4,7.72-4.63,11-.57,3.08,2.22,5.08,2,8.17-.28,4-4.26,8.77-4.18,12.7.05,2.18,1.87,2.88,1.78,5.08-.11,2.53-2.23,7.55-3.16,10a6.84,6.84,0,0,0,.66,6.79l11.79,5.85C447.64,434.27,447.41,429.15,445.22,425.54Z" style="fill:#FF725E"></path><path d="M453.15,336.54a1.33,1.33,0,0,1,0,.26c0,.2,0,.46,0,.77,0,.67,0,1.67-.13,2.95a14.63,14.63,0,0,1-1.06,4.55c-.69,1.73-2.16,3.28-3.55,5.06a9.38,9.38,0,0,0-1.68,3.08,10.59,10.59,0,0,0-.43,3.77c.13,2.66.95,5.43,1.34,8.46a13,13,0,0,1-.15,4.69,8.76,8.76,0,0,1-.93,2.27,21.36,21.36,0,0,0-1.24,2.07,7.74,7.74,0,0,0-.07,4.79c.17.82.36,1.67.46,2.54a10.22,10.22,0,0,1-.07,2.65,20.9,20.9,0,0,1-1.62,5,41.15,41.15,0,0,0-1.83,4.63,12,12,0,0,0-.4,4.71,21.6,21.6,0,0,1,.16,4.68,14.13,14.13,0,0,1-1.49,4.21,16.54,16.54,0,0,0-1.48,3.82c-.5,2.61.24,5.11.18,7.42a19.92,19.92,0,0,1-1.35,6,20.6,20.6,0,0,0-1.15,4.47,6.49,6.49,0,0,0,.29,2.87c.24.63.43.93.4.95a5.32,5.32,0,0,1-.48-.91,6.26,6.26,0,0,1-.4-2.92,20.37,20.37,0,0,1,1.09-4.55,20.24,20.24,0,0,0,1.27-6,35.3,35.3,0,0,0-.29-3.55,13.32,13.32,0,0,1,.05-3.93c.51-2.73,2.51-5.08,2.93-8a21,21,0,0,0-.18-4.58,12.26,12.26,0,0,1,.41-4.87c.9-3.21,2.86-6.14,3.42-9.54a9.75,9.75,0,0,0,.07-2.53c-.1-.84-.28-1.67-.45-2.5a8.07,8.07,0,0,1,.11-5.07,19.81,19.81,0,0,1,1.27-2.12,8.12,8.12,0,0,0,.88-2.14,12.58,12.58,0,0,0,.16-4.53c-.37-3-1.18-5.77-1.3-8.49a11,11,0,0,1,.47-3.91,9.63,9.63,0,0,1,1.77-3.16c1.43-1.8,2.87-3.3,3.57-5a15,15,0,0,0,1.12-4.46c.14-1.27.17-2.26.21-2.93,0-.32,0-.57,0-.77A.9.9,0,0,1,453.15,336.54Z" style="fill:#263238"></path><path d="M413.75,432.27c-3.84.57-6-4.58-5.3-8.39s2.89-7.5,2.18-11.32c-.62-3.3-3.31-5.89-4.16-9.14-1.54-5.88,3.25-11.86,2.32-17.86-.73-4.68-4.82-8.46-5-13.19-.13-5.07,4.36-9.31,4.57-14.39.23-5.4-4.42-10.14-4.06-15.54s5.63-10.31,3.74-15.36c-.62-1.67-2-3-2.76-4.56-1.85-3.68-.53-8.16,1.43-11.77s4.57-7,5.42-11c1.32-6.18-1.75-12.79.05-18.85,1.5-5,6.24-9.18,5.9-14.43,3.62,4.07,2.13,10.46,3.8,15.65,1.08,3.38,3.49,6.15,5.25,9.24a26.25,26.25,0,0,1,2.05,21c-1.51,4.55-4.34,9.11-3.22,13.77,1.34,5.64,7.84,8.64,10,14,3,7.73-4.09,16.62-1.32,24.44.72,2,2.05,3.79,2.64,5.84,2,7-5.06,13.63-4.9,20.91.12,5.36,4.17,10.12,3.94,15.48-.17,4.13-2.88,8.33-1.26,12.13.71,1.65,2.12,2.87,3.13,4.35a9.32,9.32,0,0,1,.43,9.73,8.09,8.09,0,0,1-8.8,3.7" style="fill:#FF725E"></path><g style="opacity:0.5"><path d="M438.2,423.3c-1-1.48-2.42-2.7-3.13-4.35-1.62-3.8,1.09-8,1.26-12.13.23-5.36-3.82-10.12-3.94-15.48-.16-7.28,6.92-13.91,4.9-20.91-.59-2.05-1.92-3.82-2.64-5.84-2.77-7.82,4.34-16.71,1.32-24.44-2.12-5.4-8.62-8.4-10-14-1.12-4.66,1.71-9.22,3.22-13.77a26.25,26.25,0,0,0-2.05-21c-1.76-3.09-4.17-5.86-5.25-9.24-1.67-5.19-.18-11.58-3.8-15.65.34,5.25-4.4,9.39-5.9,14.43-1.8,6.06,1.27,12.67-.05,18.85-.85,4-3.46,7.41-5.42,11s-3.28,8.09-1.43,11.77c.8,1.59,2.14,2.89,2.76,4.56,1.89,5.05-3.39,10-3.74,15.36s4.29,10.14,4.06,15.54c-.21,5.08-4.7,9.32-4.57,14.39.13,4.73,4.22,8.51,5,13.19.93,6-3.86,12-2.32,17.86.85,3.25,3.54,5.84,4.16,9.14.71,3.82-1.46,7.51-2.18,11.32s1.46,9,5.3,8.39l16.08,4.46a8.09,8.09,0,0,0,8.8-3.7A9.32,9.32,0,0,0,438.2,423.3Z" style="fill:#fff"></path></g><path d="M432.55,420.81c-1.06-1.16-2.55-3.73-2.58-5.34,0-2.25,3.26-4.89,3.44-8.76.25-5-3.57-13.07-3.61-18.08-.06-6.8,5.88-12.46,4.31-18.92-.46-1.9-1.2-7.07-1.77-8.93-2.17-7.2,3.3-13.4.92-20.5-1.66-5-8.12-9.88-9.16-15.1-.85-4.31,1.49-8.71,2.77-13a27.44,27.44,0,0,0-1.45-19.57c-1.4-2.82-3.33-5.3-4.18-8.42-1.31-4.78,0-10.83-2.93-14.48.22,4.9-3.68,9-4.95,13.76-1.53,5.75.9,11.8-.23,17.64-.74,3.8-2.9,7.08-4.53,10.55s-2.75,7.72-1.29,11.08c.64,1.46,1.71,2.62,2.2,4.15,1.49,4.64-2.85,9.49-3.2,14.53s3.39,9.31,3.15,14.37c-.23,4.76-3.45,11.79-3.39,16.54.05,4.42,4.46,6.43,5,10.77.7,5.58-3.49,13.31-2.3,18.74.66,3,3.38,3.48,3.85,6.55.54,3.53-1,11.08-1.64,14.68s0,6.16,2.77,9.22l17.93,4.88C438.29,432.23,436.56,425.21,432.55,420.81Z" style="fill:#FF725E"></path><path d="M419.15,295.33a46,46,0,0,1,.92,5.53,20.9,20.9,0,0,1-.24,6.59,16.75,16.75,0,0,1-1.41,3.88c-.64,1.31-1.42,2.64-2.13,4.08a13.36,13.36,0,0,0-1.5,4.75,14.79,14.79,0,0,0,.44,5.37c.9,3.67,2.8,7.29,4.16,11.36a18.05,18.05,0,0,1,1.06,6.51,12.33,12.33,0,0,1-.65,3.37,31.09,31.09,0,0,0-1.16,3.22c-.54,2.23.3,4.53,1.22,6.71.46,1.1.95,2.22,1.33,3.39a14.25,14.25,0,0,1,.62,3.67,29.21,29.21,0,0,1-.89,7.28,57.92,57.92,0,0,0-1.25,6.94,16.79,16.79,0,0,0,0,3.4,19,19,0,0,0,.7,3.27,30.29,30.29,0,0,1,1.51,6.41,20.07,20.07,0,0,1-.9,6.21,23.27,23.27,0,0,0-1,5.73,18.35,18.35,0,0,0,1,5.33,50.08,50.08,0,0,1,1.34,4.9,17.86,17.86,0,0,1,.22,4.63c-.09,1.46-.27,2.82-.43,4.09a29.61,29.61,0,0,0-.35,6.53,9,9,0,0,0,1.22,3.9c.51.8.85,1.17.82,1.19a8.32,8.32,0,0,1-.9-1.13,8.82,8.82,0,0,1-1.32-3.94,28.82,28.82,0,0,1,.27-6.58c.15-1.27.31-2.63.39-4.08a17.18,17.18,0,0,0-.25-4.54,49.19,49.19,0,0,0-1.36-4.86,18.74,18.74,0,0,1-1-5.44,23.35,23.35,0,0,1,1-5.83,19.33,19.33,0,0,0,.87-6.08,29.69,29.69,0,0,0-1.5-6.32,19.06,19.06,0,0,1-.73-3.34,17.68,17.68,0,0,1,0-3.49,57.12,57.12,0,0,1,1.25-7,28.66,28.66,0,0,0,.88-7.16,13.69,13.69,0,0,0-.61-3.55c-.36-1.14-.84-2.24-1.3-3.35a20.52,20.52,0,0,1-1.18-3.41,7.87,7.87,0,0,1-.06-3.58,29.9,29.9,0,0,1,1.18-3.27,11.84,11.84,0,0,0,.63-3.25,17.63,17.63,0,0,0-1-6.35c-1.33-4-3.22-7.67-4.12-11.4a15,15,0,0,1-.42-5.51,13.49,13.49,0,0,1,1.56-4.85c.73-1.45,1.51-2.77,2.16-4.06a16.49,16.49,0,0,0,1.42-3.81,21,21,0,0,0,.32-6.51c-.16-1.79-.39-3.18-.53-4.12l-.17-1.06A2.65,2.65,0,0,1,419.15,295.33Z" style="fill:#263238"></path><path d="M411.35,434.8c-2.19,1.08-4.49-1.58-4.8-4s.28-5.05-.88-7.19c-1-1.86-3.12-2.89-4.26-4.68-2.05-3.21-.34-7.72-2.06-11.13-1.34-2.66-4.52-4.13-5.51-6.94-1.06-3,.8-6.41,0-9.49-.9-3.28-4.6-5.22-5.43-8.52s1.37-7.26-.73-9.91a31.55,31.55,0,0,0-2.54-2.2c-1.81-1.84-1.89-4.78-1.41-7.32s1.37-5.08,1.11-7.65c-.41-4-3.52-7.31-3.62-11.29-.07-3.31,2-6.7.74-9.78,3,1.74,3.3,5.85,5.3,8.64,1.31,1.81,3.28,3,4.93,4.51A16.47,16.47,0,0,1,397.43,360c0,3-.83,6.29.73,8.86,1.9,3.12,6.37,3.66,8.68,6.48,3.3,4,.76,10.74,3.93,14.88.82,1.07,2,1.87,2.72,3,2.55,3.8-.4,9.13,1.1,13.46,1.11,3.18,4.45,5.25,5.35,8.5.7,2.5-.11,5.54,1.59,7.5a18.65,18.65,0,0,0,2.71,2,5.85,5.85,0,0,1,2.15,5.73,5.1,5.1,0,0,1-4.56,3.92" style="fill:#FF725E"></path><g style="opacity:0.5"><path d="M424.24,424.71a18.65,18.65,0,0,1-2.71-2c-1.7-2-.89-5-1.59-7.5-.9-3.25-4.24-5.32-5.35-8.5-1.5-4.33,1.45-9.66-1.1-13.46-.76-1.12-1.9-1.92-2.72-3-3.17-4.14-.63-10.84-3.93-14.88-2.31-2.82-6.78-3.36-8.68-6.48-1.56-2.57-.76-5.85-.73-8.86a16.47,16.47,0,0,0-5.29-12.18c-1.65-1.51-3.62-2.7-4.93-4.51-2-2.79-2.34-6.9-5.3-8.64,1.22,3.08-.81,6.47-.74,9.78.1,4,3.21,7.33,3.62,11.29.26,2.57-.64,5.1-1.11,7.65s-.4,5.48,1.41,7.32a31.55,31.55,0,0,1,2.54,2.2c2.1,2.65-.1,6.63.73,9.91s4.53,5.24,5.43,8.52c.85,3.08-1,6.48,0,9.49,1,2.81,4.17,4.28,5.51,6.94,1.72,3.41,0,7.92,2.06,11.14,1.14,1.78,3.25,2.81,4.26,4.67,1.16,2.14.58,4.77.88,7.19s2.61,5.08,4.8,4l10.48-.44a5.1,5.1,0,0,0,4.56-3.92A5.85,5.85,0,0,0,424.24,424.71Z" style="fill:#fff"></path></g><path d="M420.38,424.3a6.59,6.59,0,0,1-2.57-2.69c-.46-1.34,1-3.56.37-5.91-.83-3.05-4.67-7.13-5.66-10.12-1.35-4.06,1.11-8.6-1.08-12.16-.64-1.05-2.09-4-2.78-5-2.7-3.89-.62-8.66-3.42-12.45-1.95-2.65-6.77-4.34-8.4-7.27-1.34-2.41-.79-5.49-.86-8.33a17.24,17.24,0,0,0-4.65-11.43c-1.38-1.41-3-2.53-4.13-4.23-1.7-2.61-2.11-6.47-4.55-8.1,1.08,2.89-.47,6.09-.3,9.2.2,3.73,2.82,6.88,3.27,10.6.29,2.42-.36,4.8-.67,7.19s-.16,5.15,1.37,6.88a27.46,27.46,0,0,1,2.12,2.06c1.78,2.48.12,6.23.89,9.31s3.83,4.91,4.66,8c.78,2.89.22,7.73,1.17,10.56.88,2.63,3.91,3,5.08,5.48,1.49,3.2.48,8.64,2.24,11.66,1,1.67,2.69,1.43,3.57,3.17,1,2,1.53,6.83,1.85,9.1a6.08,6.08,0,0,0,3.45,5l11.67-.55C426,430,423.64,426.16,420.38,424.3Z" style="fill:#FF725E"></path><path d="M388.11,351.8s.05.06.13.19l.34.59a25.72,25.72,0,0,1,1.18,2.34,13,13,0,0,1,1.15,4,20.91,20.91,0,0,1-.57,5.47,8.09,8.09,0,0,0,0,3.1,9.18,9.18,0,0,0,1.29,3.11c1.25,2,3.08,3.8,4.69,6a11.55,11.55,0,0,1,1.91,3.71,7.83,7.83,0,0,1,.27,2.17,17.25,17.25,0,0,0-.07,2.14,6.8,6.8,0,0,0,2,3.73c.49.57,1,1.14,1.46,1.78a8.91,8.91,0,0,1,1.09,2.1,18.21,18.21,0,0,1,.88,4.55,35.84,35.84,0,0,0,.59,4.38,10.58,10.58,0,0,0,1.71,3.82,18.61,18.61,0,0,1,2.15,3.57,12.34,12.34,0,0,1,.66,3.91,14.37,14.37,0,0,0,.5,3.61c.73,2.23,2.38,3.85,3.34,5.67a17.55,17.55,0,0,1,1.55,5.28,18.39,18.39,0,0,0,1,4,5.69,5.69,0,0,0,1.46,2.1c.45.38.73.54.71.57a4.59,4.59,0,0,1-.77-.49,5.66,5.66,0,0,1-1.57-2.1,18.64,18.64,0,0,1-1.13-4,17.56,17.56,0,0,0-1.58-5.17c-.94-1.76-2.62-3.36-3.43-5.71s-.24-5-1.19-7.48a18.1,18.1,0,0,0-2.11-3.47,10.93,10.93,0,0,1-1.79-4c-.69-2.89-.43-6-1.46-8.88a8.57,8.57,0,0,0-1-2c-.43-.6-.93-1.17-1.42-1.74a7.21,7.21,0,0,1-2.11-4,17.53,17.53,0,0,1,.07-2.2,7.24,7.24,0,0,0-.24-2,11,11,0,0,0-1.83-3.58c-1.57-2.15-3.41-4-4.67-6a9.57,9.57,0,0,1-1.32-3.25,8.5,8.5,0,0,1,0-3.22,21,21,0,0,0,.63-5.39,12.9,12.9,0,0,0-1.05-3.95c-.43-1-.83-1.83-1.1-2.37-.12-.24-.21-.45-.29-.61S388.1,351.8,388.11,351.8Z" style="fill:#263238"></path><polygon points="394.58 425.57 399.12 434.8 454.45 434.8 460.69 425.57 394.58 425.57" style="fill:#455a64"></polygon><polygon points="400.45 431.62 408.73 460.21 446 460.24 453.5 431.67 400.45 431.62" style="fill:#455a64"></polygon><path d="M454.2,434.73c0,.13-12.34.24-27.57.24s-27.57-.11-27.57-.24,12.34-.23,27.57-.23S454.2,434.6,454.2,434.73Z" style="fill:#263238"></path><polygon points="83.4 413.55 90.63 460.3 131.97 460.2 141.46 414.09 83.4 413.55" style="fill:#FF725E"></polygon><path d="M135.75,443.4c0,.13-10.6.26-23.66.29s-23.66-.05-23.66-.18,10.59-.27,23.66-.3S135.75,443.26,135.75,443.4Z" style="fill:#fafafa"></path><path d="M135.9,441.1c0,.13-10.66.26-23.82.29s-23.82-.05-23.82-.18,10.66-.27,23.82-.3S135.9,441,135.9,441.1Z" style="fill:#fafafa"></path><path d="M135.81,438.5c0,.13-10.66.27-23.81.3s-23.83-.06-23.83-.19,10.67-.27,23.82-.3S135.81,438.37,135.81,438.5Z" style="fill:#fafafa"></path><path d="M95.37,457.62a38.9,38.9,0,0,1-1.28-5.89,35.65,35.65,0,0,1-.8-6,38.54,38.54,0,0,1,1.28,5.89A38.2,38.2,0,0,1,95.37,457.62Z" style="fill:#fafafa"></path><path d="M98.18,457.11a46.6,46.6,0,0,1-.52-5.74,48.3,48.3,0,0,1-.29-5.76,45.64,45.64,0,0,1,.81,11.5Z" style="fill:#fafafa"></path><path d="M103.31,457.1a46.88,46.88,0,0,1-1.42-11.87,50.21,50.21,0,0,1,.81,5.92A53.1,53.1,0,0,1,103.31,457.1Z" style="fill:#fafafa"></path><path d="M106.91,457.34a47.6,47.6,0,0,1-.42-12,50.94,50.94,0,0,1,.32,6A53.9,53.9,0,0,1,106.91,457.34Z" style="fill:#fafafa"></path><path d="M113.28,457.08a32.41,32.41,0,0,1-.45-5.68,33.83,33.83,0,0,1,0-5.7,32.41,32.41,0,0,1,.45,5.68A33.83,33.83,0,0,1,113.28,457.08Z" style="fill:#fafafa"></path><path d="M117.93,457.31a36,36,0,0,1-.21-5.87,35,35,0,0,1,.28-5.88,70.56,70.56,0,0,1-.07,11.75Z" style="fill:#fafafa"></path><path d="M122.29,456.68a78.58,78.58,0,0,1,1.16-12.24,78.58,78.58,0,0,1-1.16,12.24Z" style="fill:#fafafa"></path><path d="M127.91,456.05a32.78,32.78,0,0,1,2.21-10.27,43.14,43.14,0,0,1-1.05,5.15A44.56,44.56,0,0,1,127.91,456.05Z" style="fill:#fafafa"></path><path d="M78.64,404.3l0,8.75a3.45,3.45,0,0,0,3.45,3.44l59.87-.14a3.46,3.46,0,0,0,3.44-3.46l0-8.75Z" style="fill:#FF725E"></path><g style="opacity:0.4"><polygon points="83.86 416.48 84.36 419.27 139.61 423.07 140.99 416.35 83.86 416.48"></polygon></g><path d="M87.65,404.32S64.32,377.54,66.9,376.57s23.31,13.85,23.31,13.85S72.34,350.7,75.88,347.78,98.27,383,98.27,383s-3-55.59-.13-56.25,13.71,55.57,13.71,55.57,15.72-51.43,20.24-51.44-4.73,49.47-4.73,49.47S146,348.58,149,352.78s-13.16,38.5-13.16,38.5,23.55-19.77,24.53-17.19-25.47,30.12-25.47,30.12Z" style="fill:#455a64"></path><path d="M84.31,363.92c.16-.07,4.31,8.77,9.27,19.75s8.84,19.93,8.68,20S98,394.91,93,383.93,84.15,364,84.31,363.92Z" style="fill:#263238"></path><path d="M103.13,368.82c.17,0,.88,7.79,1.57,17.42s1.11,17.45.93,17.47-.88-7.79-1.57-17.42S103,368.84,103.13,368.82Z" style="fill:#263238"></path><path d="M129,343.86s0,.22-.13.63-.3,1.06-.51,1.77c-.48,1.62-1.13,3.81-1.93,6.48-1.63,5.48-3.82,13.05-6,21.47s-4.07,16.1-5.36,21.66c-.63,2.71-1.14,4.94-1.52,6.59-.18.72-.32,1.31-.44,1.79a2.12,2.12,0,0,1-.19.61,2.39,2.39,0,0,1,.07-.64c.08-.48.19-1.08.31-1.81.29-1.57.74-3.84,1.33-6.64,1.18-5.59,3-13.28,5.18-21.72s4.49-16,6.23-21.44c.87-2.72,1.6-4.92,2.13-6.43.24-.69.45-1.26.62-1.73A2.31,2.31,0,0,1,129,343.86Z" style="fill:#263238"></path><path d="M140.29,372.5c.14.1-4.39,6.88-10.12,15.15s-10.49,14.89-10.63,14.79,4.38-6.89,10.11-15.16S140.14,372.39,140.29,372.5Z" style="fill:#263238"></path><path d="M95.51,403.73a8.26,8.26,0,0,1-2-1.45A54.62,54.62,0,0,1,89,398.21a56.05,56.05,0,0,1-4-4.53,8.26,8.26,0,0,1-1.4-2.07c.14-.11,2.57,2.81,5.85,6.15S95.63,403.59,95.51,403.73Z" style="fill:#263238"></path><path d="M109.62,393c.17,0,.55,2.46.84,5.53s.38,5.58.2,5.6-.55-2.46-.84-5.54S109.44,393.06,109.62,393Z" style="fill:#263238"></path></g><g id="freepik--Character--inject-13"><path d="M310.66,258.87c.51-7.43,2.2-15,.67-22.25-2.54-12.08-13.47-21.32-15.05-33.56L293,211.87c3.32,10.55,5.87,21.45,5.85,32.51,0,9-1.72,18-1.91,27s1.34,18.55,7,25.6q1.44-6.57,2.87-13.15l10.44,9.63A70,70,0,0,1,310.66,258.87Z" style="fill:#FF725E"></path><g style="opacity:0.30000000000000004"><path d="M310.66,258.87c.51-7.43,2.2-15,.67-22.25-2.54-12.08-13.47-21.32-15.05-33.56L293,211.87c3.32,10.55,5.87,21.45,5.85,32.51,0,9-1.72,18-1.91,27s1.34,18.55,7,25.6q1.44-6.57,2.87-13.15l10.44,9.63A70,70,0,0,1,310.66,258.87Z"></path></g><path d="M305.69,273.26c-.34-8.08,1.38-16.11,1.6-24.19a66,66,0,0,0-13.49-41.56l-2,4.05a67.44,67.44,0,0,1-1.15,34.68c-2.46,8.1-6.47,15.81-7.52,24.22-1.32,10.6,2.2,21.14,5.66,31.24.87,2.53,2.49,5.58,5.15,5.32a6.09,6.09,0,0,0,2.44-1l19.34-11.67C308.94,289.93,306,281.34,305.69,273.26Z" style="fill:#FF725E"></path><path d="M296.31,229.1a13.31,13.31,0,0,1-.17-2.4c-.08-1.48-.23-3.51-.54-5.75s-.75-4.23-1.09-5.67a13.18,13.18,0,0,1-.5-2.35,9.37,9.37,0,0,1,.86,2.25,39.59,39.59,0,0,1,1.24,5.7,39.17,39.17,0,0,1,.4,5.82A8.75,8.75,0,0,1,296.31,229.1Z" style="fill:#263238"></path><path d="M299.46,234.2a32,32,0,0,1-.17-3.21,50.94,50.94,0,0,0-1-7.66,49.44,49.44,0,0,0-2.24-7.39,31.09,31.09,0,0,1-1.17-3s.19.24.47.73.63,1.21,1,2.13a38.48,38.48,0,0,1,2.41,7.42,39.21,39.21,0,0,1,.88,7.76c0,1,0,1.8-.08,2.36A2.53,2.53,0,0,1,299.46,234.2Z" style="fill:#263238"></path><path d="M297.82,199.91a5.94,5.94,0,0,0-5-2.61c-2.37.11-4.38,1.94-5.4,4.07a19,19,0,0,0-1.39,6.93l2.66,3.82a5.83,5.83,0,0,0,7.24.2,9.63,9.63,0,0,0,1.87-12.41Z" style="fill:#FF725E"></path><path d="M218.29,167.54s-7.88-36,29.07-46c19-5.15,32.08,2.37,41,11.51S299,153.9,302,167.54c4.33,20.09-13.62,39.34-13.62,39.34Z" style="fill:#FF725E"></path><path d="M246.12,131.81l7.25-.81L281,142.15a7.72,7.72,0,0,1,7.29,7.48l-.24,90.15s-.36,15.9-4,20.77l-2.22,2.91c-8.86,11.7-29.59,8.47-36.6-4.42a9.94,9.94,0,0,1-1-2.33,17.25,17.25,0,0,1-.41-2,64.37,64.37,0,0,1-.87-13.54c-.5-8-.66-11.23-.66-11.16s-17-2-21.53-23.7c-2.28-10.82-2.63-28.73-2.44-43.39C218.5,149.7,229.83,131.79,246.12,131.81Z" style="fill:#c78976"></path><path d="M226.27,176.83a2.81,2.81,0,0,0,2.86,2.7,2.69,2.69,0,0,0,2.77-2.68,2.82,2.82,0,0,0-2.85-2.7A2.7,2.7,0,0,0,226.27,176.83Z" style="fill:#263238"></path><path d="M256.16,175.05a2.82,2.82,0,0,0,2.85,2.7,2.7,2.7,0,0,0,2.78-2.68,2.83,2.83,0,0,0-2.85-2.71A2.71,2.71,0,0,0,256.16,175.05Z" style="fill:#263238"></path><path d="M222.76,170.3c.37.35,2.42-1.33,5.45-1.47s5.32,1.26,5.63.87c.15-.17-.24-.82-1.24-1.47a7.71,7.71,0,0,0-4.53-1.16,7.42,7.42,0,0,0-4.31,1.64C222.86,169.47,222.58,170.15,222.76,170.3Z" style="fill:#263238"></path><path d="M253.52,169.45c.4.31,2.27-1.58,5.26-2s5.42.7,5.69.29c.14-.19-.31-.79-1.38-1.34a7.75,7.75,0,0,0-4.62-.68,7.41,7.41,0,0,0-4.12,2.07C253.54,168.61,253.32,169.31,253.52,169.45Z" style="fill:#263238"></path><path d="M242.68,194c0-.17-1.89-.4-5-.64-.78,0-1.52-.16-1.67-.68a3.9,3.9,0,0,1,.4-2.31q.95-2.87,2-6c2.75-8.54,4.7-15.54,4.36-15.65s-2.86,6.72-5.61,15.26l-1.89,6a4.42,4.42,0,0,0-.25,3.05,1.92,1.92,0,0,0,1.33,1.07,5.29,5.29,0,0,0,1.32.11C240.77,194.25,242.68,194.16,242.68,194Z" style="fill:#263238"></path><path d="M242.38,229.91a55.88,55.88,0,0,0,29-9.31s-6.62,15.55-28.67,14.6Z" style="fill:#bf654e"></path><path d="M244.32,201.22a5.48,5.48,0,0,1,4.79-2.27,5,5,0,0,1,3.53,1.67,3.16,3.16,0,0,1,.42,3.6,3.65,3.65,0,0,1-3.91,1.2,11.48,11.48,0,0,1-4-2.12,3.21,3.21,0,0,1-.91-.85,1,1,0,0,1-.05-1.12" style="fill:#bf654e"></path><path d="M251.69,195.64c-.49,0-.34,3.28-3,5.75s-6.21,2.29-6.21,2.75c0,.21.81.6,2.29.56a8.15,8.15,0,0,0,5.19-2.1,7.09,7.09,0,0,0,2.33-4.82C252.32,196.4,251.91,195.61,251.69,195.64Z" style="fill:#263238"></path><path d="M252,158.76c.45.74,2.87-.25,5.92-.56s5.67.05,5.89-.76c.09-.39-.51-1-1.66-1.58a9.05,9.05,0,0,0-4.68-.7,8.64,8.64,0,0,0-4.32,1.71C252.19,157.65,251.8,158.41,252,158.76Z" style="fill:#263238"></path><path d="M223,158.65c.56.66,2.61-.16,5.12-.32s4.65.23,5.1-.51c.2-.36-.17-1-1.13-1.64a7.18,7.18,0,0,0-4.22-.92,7.09,7.09,0,0,0-4,1.59C223,157.6,222.72,158.32,223,158.65Z" style="fill:#263238"></path><path d="M286.07,182.94s-2.46-26.49-16.86-41.34c-11.17-11.52-29.37-13.74-41.92-.34-2.11,2.25-5.93,7.6-9,17.64,0,0,2.09-31.16,29.85-34.58,26.21-3.23,39.59,14.16,43.86,26.78,4.16,12.31,3.13,31.84,3.13,31.84Z" style="fill:#FF725E"></path><path d="M296.16,182a.75.75,0,0,1,0-.24c0-.2,0-.44,0-.73q0-1-.09-2.79c-.07-2.42-.12-5.93-.4-10.25a76.2,76.2,0,0,0-2.31-15,48,48,0,0,0-7.9-16.64,31.37,31.37,0,0,0-14.54-11A49.12,49.12,0,0,0,263,123.3a60,60,0,0,0-7-.85,56.46,56.46,0,0,0-10.21.24c-1.2.17-2.13.3-2.75.43l-.72.13a.94.94,0,0,1-.25,0l.24-.07.7-.18c.62-.16,1.55-.33,2.75-.53a51.17,51.17,0,0,1,10.26-.4,56.38,56.38,0,0,1,7.07.79,48,48,0,0,1,7.9,2A31.71,31.71,0,0,1,285.81,136a48.21,48.21,0,0,1,7.95,16.84A75,75,0,0,1,296,168c.23,4.34.22,7.84.24,10.27,0,1.18,0,2.11,0,2.79l0,.72A.67.67,0,0,1,296.16,182Z" style="fill:#263238"></path><path d="M285.73,180.33a4.16,4.16,0,0,1-.12-.66c-.08-.44-.15-1.08-.3-1.9a66.6,66.6,0,0,0-1.51-6.9,87.08,87.08,0,0,0-3.44-9.88,122.42,122.42,0,0,0-5.56-11.56c-.57-1-1.06-2-1.55-3s-1-1.94-1.58-2.86c-1.08-1.85-2.2-3.59-3.33-5.21a91.54,91.54,0,0,0-6.52-8.19c-2-2.21-3.7-3.92-4.9-5.08l-1.39-1.33a3.16,3.16,0,0,1-.47-.49,3.74,3.74,0,0,1,.54.41c.33.29.84.7,1.45,1.26,1.25,1.12,3,2.79,5.05,5a83.43,83.43,0,0,1,6.63,8.16c1.15,1.61,2.29,3.36,3.38,5.22.56.93,1.08,1.89,1.6,2.88s1,2,1.55,3a115.94,115.94,0,0,1,5.55,11.61,80.42,80.42,0,0,1,3.34,10,54.16,54.16,0,0,1,1.36,7c.12.83.16,1.48.2,1.92A3.1,3.1,0,0,1,285.73,180.33Z" style="fill:#263238"></path><path d="M260.1,128.46a2.28,2.28,0,0,1-.6.12c-.4.07-1,.13-1.75.26-1.52.23-3.7.61-6.37,1.22a80.83,80.83,0,0,0-9.23,2.68,48.08,48.08,0,0,0-10.53,5.13,26.49,26.49,0,0,0-4.54,4,28.07,28.07,0,0,0-3.39,4.5,34.39,34.39,0,0,0-3.69,8.8c-.73,2.64-1.14,4.83-1.43,6.33q-.19,1.06-.33,1.74a4.76,4.76,0,0,1-.14.6,2.24,2.24,0,0,1,0-.62c.05-.4.12-1,.23-1.75a61.15,61.15,0,0,1,1.27-6.39,33.63,33.63,0,0,1,3.64-9,27.33,27.33,0,0,1,3.43-4.6,26,26,0,0,1,4.62-4.07A47,47,0,0,1,242,132.29a76.39,76.39,0,0,1,9.31-2.59c2.69-.56,4.89-.9,6.42-1.06.77-.1,1.36-.13,1.77-.17A2.82,2.82,0,0,1,260.1,128.46Z" style="fill:#263238"></path><path d="M274.09,147.58s-.29-.45-.83-1.24a34.57,34.57,0,0,0-2.5-3.18c-2.27-2.5-5.69-6-10.62-7.75a36.86,36.86,0,0,0-12.92-2.91c-1.71-.07-3.09,0-4.05,0a7.66,7.66,0,0,1-1.49,0,7.5,7.5,0,0,1,1.47-.24,37.44,37.44,0,0,1,4.08-.19,33.4,33.4,0,0,1,6,.62,37.49,37.49,0,0,1,7.09,2.17,27.87,27.87,0,0,1,3.48,1.66,23.45,23.45,0,0,1,2.93,2.07,32.61,32.61,0,0,1,4.29,4.27,27,27,0,0,1,2.39,3.32,10.29,10.29,0,0,1,.52,1C274.06,147.44,274.11,147.57,274.09,147.58Z" style="fill:#263238"></path><path d="M294,141a9.67,9.67,0,0,1,.71,2.51,40.69,40.69,0,0,1,.8,6.23,42,42,0,0,1-.16,6.29,11.24,11.24,0,0,1-.45,2.57,16.06,16.06,0,0,1,.08-2.6c.08-1.59.13-3.8,0-6.23a62.08,62.08,0,0,0-.64-6.2A18.34,18.34,0,0,1,294,141Z" style="fill:#263238"></path><path d="M284,186.59c-.08-1.63,1.62-5.57,3.22-5.91,4.27-.88,12.05-.93,12.67,10,.85,14.94-14.33,12.71-14.38,12.28S284.31,192.23,284,186.59Z" style="fill:#c78976"></path><path d="M289.79,197.05c.07-.05.27.17.72.35a2.65,2.65,0,0,0,1.95-.07c1.55-.67,2.74-3.26,2.66-6a8.63,8.63,0,0,0-.94-3.69,3,3,0,0,0-2.08-1.89,1.32,1.32,0,0,0-1.49.8c-.18.43-.07.73-.14.75s-.34-.23-.25-.85a1.66,1.66,0,0,1,.53-1,2,2,0,0,1,1.42-.46,3.65,3.65,0,0,1,2.85,2.16,8.8,8.8,0,0,1,1.14,4.11c.07,3-1.31,5.93-3.43,6.67a2.78,2.78,0,0,1-2.41-.26C289.84,197.41,289.74,197.08,289.79,197.05Z" style="fill:#bf654e"></path><path d="M297.6,199.53s.23.21.53.69a10.31,10.31,0,0,1,1,2.18,9.71,9.71,0,0,1,.41,3.52,8.65,8.65,0,0,1-1.39,4.12,7.71,7.71,0,0,1-3.32,2.83,7.14,7.14,0,0,1-3.52.52,6.12,6.12,0,0,1-2.28-.71c-.49-.27-.72-.5-.7-.52a8.63,8.63,0,0,0,3,.86,7,7,0,0,0,3.29-.59,7.3,7.3,0,0,0,3.07-2.68,8.31,8.31,0,0,0,1.35-3.87,9.92,9.92,0,0,0-.29-3.38A21.35,21.35,0,0,0,297.6,199.53Z" style="fill:#263238"></path><path d="M298.76,208.61a16.11,16.11,0,0,0-5.12-2.49,15.92,15.92,0,0,0-5.7,0,3.76,3.76,0,0,1,1.63-.57,9.94,9.94,0,0,1,4.18.1,10.2,10.2,0,0,1,3.8,1.76A4.09,4.09,0,0,1,298.76,208.61Z" style="fill:#263238"></path><path d="M289.23,142.89a9.57,9.57,0,0,1-.64,2.55,22.7,22.7,0,0,1-3,5.61,22.27,22.27,0,0,1-4.45,4.53,8.86,8.86,0,0,1-2.24,1.38,35.41,35.41,0,0,0,6.27-6.22A35.62,35.62,0,0,0,289.23,142.89Z" style="fill:#fff"></path><path d="M286.34,137.93a8,8,0,0,1-.68,2.42,21.63,21.63,0,0,1-3,5.3,21.4,21.4,0,0,1-4.35,4.26,8.39,8.39,0,0,1-2.17,1.29,36.33,36.33,0,0,0,6.11-5.86A35.89,35.89,0,0,0,286.34,137.93Z" style="fill:#fff"></path><path d="M238.13,133.88c0,.06-.47-.09-1.08-.53a7.1,7.1,0,0,1-2-2.15,7.24,7.24,0,0,1-1-2.75c-.1-.74,0-1.2,0-1.2a17,17,0,0,0,1.38,3.69A16.41,16.41,0,0,0,238.13,133.88Z" style="fill:#fff"></path><path d="M233.22,136.7a5.45,5.45,0,0,1-2.81-2.41,5.39,5.39,0,0,1-1.11-3.52,26.53,26.53,0,0,0,1.55,3.24A26.83,26.83,0,0,0,233.22,136.7Z" style="fill:#fff"></path><path d="M278.28,125c.09.13-.4.58-.95,1.16s-1,1.09-1.11,1,.13-.74.73-1.37S278.21,124.83,278.28,125Z" style="fill:#fff"></path><path d="M302.39,176.31a5.29,5.29,0,0,1-3.25-.6,5.18,5.18,0,0,1-2.58-2.05c.1-.12,1.19.86,2.8,1.58S302.4,176.16,302.39,176.31Z" style="fill:#fff"></path><path d="M302.77,170.58a7.38,7.38,0,0,1-6.74-1.05c.07-.14,1.46.56,3.32.84S302.74,170.43,302.77,170.58Z" style="fill:#fff"></path><path d="M291,213.49c-.15,0,.32-1.82.21-4.05s-.71-4-.56-4a7.51,7.51,0,0,1,1.08,4A7.42,7.42,0,0,1,291,213.49Z" style="fill:#fff"></path><path d="M294.53,212.4a20.76,20.76,0,0,1-.08-3.26,22.72,22.72,0,0,1-.09-3.27,6.9,6.9,0,0,1,.61,3.25A7.16,7.16,0,0,1,294.53,212.4Z" style="fill:#fff"></path><path d="M306.33,242.12a5.49,5.49,0,0,1-2.18.56,11.39,11.39,0,0,1-9.83-3.79,5.27,5.27,0,0,1-1.24-1.87c.07-.05.54.67,1.5,1.62a12.46,12.46,0,0,0,9.54,3.67C305.48,242.25,306.31,242,306.33,242.12Z" style="fill:#fff"></path><polygon points="321.46 336.83 339.35 407.22 353.52 460.24 378.99 460.24 369.26 402.41 355.41 326.69 321.46 336.83" style="fill:#c78976"></polygon><path d="M109.41,251.23,86.08,255.5l12.54-75.17-15.75-4.18S64.1,217.64,60.61,226.33c-3,7.52-18.41,42-13.25,51.73s13.13,10.36,20.33,10.75,37.07.24,49.2-.26Z" style="fill:#c78976"></path><path d="M82.75,176.46s3.57-6.33,5.78-7.85,20.14-17.24,20.14-17.24,7-7.45,9-7S137.91,157,138.05,159s-.83,3-1.93,3.31.55,1.52-2.35,4.41c0,0,2.76-.13,2.62,2.49s0,6.2-1.79,6.34-7.45,1.79-7.73-1.24l-.55-1.24a54.21,54.21,0,0,1-9.24,5.24c-4.41,1.79-11.45,1.66-11.45,1.66a8.2,8.2,0,0,1-5.24,3.31C97.08,183.65,82.75,176.46,82.75,176.46Z" style="fill:#c78976"></path><path d="M110.25,165.13a3.52,3.52,0,0,1,1,2.08,8.79,8.79,0,0,1-.82,5.45,16.26,16.26,0,0,1-3.31,4.37c-1,1-1.68,1.51-1.74,1.44s.48-.73,1.37-1.78a21.14,21.14,0,0,0,3-4.35,9.33,9.33,0,0,0,1-5.06C110.57,166,110.14,165.19,110.25,165.13Z" style="fill:#bf654e"></path><path d="M118.69,168.78s0,.15-.15.3a1.25,1.25,0,0,1-.85.23,3.43,3.43,0,0,1-2.34-1.38,4,4,0,0,1-.85-2.55c0-.7.27-1.08.35-1s.07.43.15,1a4.74,4.74,0,0,0,.92,2.14,3.69,3.69,0,0,0,1.84,1.31C118.32,169,118.61,168.72,118.69,168.78Z" style="fill:#bf654e"></path><path d="M111.82,151.22a2.06,2.06,0,0,1,1.75.14,4.5,4.5,0,0,1,1.64,1.32c.53.64,1,1.43,1.54,2.26a66.3,66.3,0,0,0,4.17,5.65c.84,1,1.75,2.07,2.73,3.12a6.23,6.23,0,0,1,1.36,1.88,2.72,2.72,0,0,1-.26,2.48,8,8,0,0,1-1.58,1.77c-.55.51-1.11,1-1.68,1.45a27.91,27.91,0,0,1-3.45,2.45,4.26,4.26,0,0,1-2,.55,3.92,3.92,0,0,1-1.89-.56,6.73,6.73,0,0,1-2.41-2.39,3.25,3.25,0,0,1-.22-2.81,2.09,2.09,0,0,1,1.67-1.31,1.79,1.79,0,0,1,1.3.3c.25.2.31.35.3.36a1.94,1.94,0,0,0-1.56-.39,1.79,1.79,0,0,0-1.34,1.19,2.82,2.82,0,0,0,.29,2.41,6.11,6.11,0,0,0,2.26,2.12,3.25,3.25,0,0,0,1.6.45,3.5,3.5,0,0,0,1.69-.5,27.44,27.44,0,0,0,3.32-2.41c.55-.45,1.1-.93,1.65-1.43a7.78,7.78,0,0,0,1.44-1.61,2,2,0,0,0,.22-1.86,6,6,0,0,0-1.22-1.67c-1-1.07-1.9-2.13-2.73-3.18a55.64,55.64,0,0,1-4.08-5.79c-.54-.86-1-1.66-1.43-2.28a4.48,4.48,0,0,0-1.45-1.32A3.89,3.89,0,0,0,111.82,151.22Z" style="fill:#bf654e"></path><path d="M115.06,164.41c.08,0,0,.37-.3.8a3.67,3.67,0,0,1-1.66,1.19,3.58,3.58,0,0,1-2,.15c-.52-.13-.78-.34-.75-.42s1.23.1,2.54-.4S114.89,164.3,115.06,164.41Z" style="fill:#bf654e"></path><path d="M119,148.74a6,6,0,0,1,1.06,1.09c.64.73,1.55,1.8,2.67,3.14l3.88,4.71,2.28,2.79a21.86,21.86,0,0,1,2.31,3.18,4.31,4.31,0,0,1,.29,4,8.41,8.41,0,0,1-2.61,2.66c-1.85,1.38-3.41,2.7-4.94,3.64a5,5,0,0,1-2.31.75,3.36,3.36,0,0,1-1.79-.43c-.9-.53-1-1.19-1-1.17a3.58,3.58,0,0,0,1.11.93,3.25,3.25,0,0,0,1.64.27,4.71,4.71,0,0,0,2.07-.78c1.41-.93,3-2.33,4.8-3.73a8.2,8.2,0,0,0,2.39-2.45,3.61,3.61,0,0,0-.3-3.38,21.9,21.9,0,0,0-2.22-3.08l-2.25-2.82-3.77-4.81c-1.06-1.37-1.91-2.49-2.49-3.28A7.15,7.15,0,0,1,119,148.74Z" style="fill:#bf654e"></path><path d="M125,150.16c.17-.13,2.43,3.35,6.21,6.69a21.55,21.55,0,0,1,2.58,2.56,7.22,7.22,0,0,1,1.41,2.67,3.25,3.25,0,0,1-.19,2.73,7.65,7.65,0,0,0-.29-2.59,7.38,7.38,0,0,0-1.44-2.4,27.31,27.31,0,0,0-2.54-2.44,29.36,29.36,0,0,1-4.39-4.87A7.82,7.82,0,0,1,125,150.16Z" style="fill:#bf654e"></path><path d="M133.68,169.82c0,.25-2,0-4.21.74a5.8,5.8,0,0,0-2.39,1.6c-.49.57-.68,1-.79,1s-.06-.56.38-1.28a5.07,5.07,0,0,1,2.56-2,7.59,7.59,0,0,1,3.17-.38C133.21,169.58,133.69,169.72,133.68,169.82Z" style="fill:#bf654e"></path><path d="M86.2,255a7.63,7.63,0,0,1-1,2.36,29.36,29.36,0,0,1-3.42,5.1,28.36,28.36,0,0,1-4.41,4.26,7,7,0,0,1-2.15,1.35c-.14-.17,3-2.44,6-6.07S86,254.94,86.2,255Z" style="fill:#bf654e"></path><path d="M335.45,263.46c-5.08-3.58-29.8-12.21-29.8-12.21l-83.58-14s-23.24-2.58-31.89-3c-9.26-.47-81.13,15.82-81.13,15.82l10.23,50.29L178,290.72s.23,14.53.22,18.44c0,9.89,11.49,97,11.49,97l-12.77,54,143.46,0-18.17-52,.43-51C316.39,340.5,314.6,330.05,314.9,328l1.57-3.27,7.47,39.76,47.22-10.33S340.52,267,335.45,263.46Z" style="fill:#455a64"></path><path d="M332.54,266.48a6.5,6.5,0,0,1-.35,1.55c-.32,1.12-.71,2.51-1.18,4.14-1,3.5-2.26,8.36-3.45,13.77s-2,10.37-2.61,14c-.26,1.68-.48,3.1-.67,4.25a6.26,6.26,0,0,1-.32,1.56,7.41,7.41,0,0,1,.05-1.59c.07-1,.22-2.48.44-4.29.44-3.62,1.23-8.6,2.41-14s2.56-10.29,3.67-13.76c.56-1.74,1-3.13,1.39-4.09A8.05,8.05,0,0,1,332.54,266.48Z" style="fill:#263238"></path><path d="M190.17,294.13c-.11.05-.79-1.35-2.22-3.39a30.83,30.83,0,0,0-15.26-11.46c-2.35-.81-3.89-1.07-3.87-1.2a3.53,3.53,0,0,1,1.1.08,18.93,18.93,0,0,1,2.92.64,27.77,27.77,0,0,1,15.53,11.66,19.45,19.45,0,0,1,1.43,2.63C190.08,293.74,190.22,294.1,190.17,294.13Z" style="fill:#263238"></path><path d="M254.48,422.74a9.44,9.44,0,0,1-1.86.1c-1.2,0-2.93,0-5.07,0-4.28-.09-10.2-.41-16.7-1.09s-12.36-1.59-16.57-2.37c-2.1-.4-3.8-.74-5-1a9.16,9.16,0,0,1-1.8-.49,8.93,8.93,0,0,1,1.85.22l5,.78c4.22.66,10.07,1.49,16.55,2.17s12.38,1.06,16.65,1.29l5.05.26A9.39,9.39,0,0,1,254.48,422.74Z" style="fill:#263238"></path><path d="M231.9,238.87s3.62,44.7,28.2,45.05,33.43-34.71,33.43-34.71l-32-5.88Z" style="fill:#c78976"></path><path d="M183.47,273.51a8.34,8.34,0,0,1,0-1.43c0-.92.08-2.25.17-3.9.19-3.28.57-7.81,1.19-12.8s1.37-9.47,2-12.7c.31-1.62.58-2.92.79-3.82a8,8,0,0,1,.37-1.38,7.34,7.34,0,0,1-.17,1.42c-.17,1-.38,2.3-.63,3.84-.53,3.25-1.21,7.73-1.84,12.71s-1,9.49-1.33,12.76c-.14,1.56-.25,2.87-.34,3.88A7.09,7.09,0,0,1,183.47,273.51Z" style="fill:#263238"></path><path d="M298.78,250.61s0,.11,0,.32-.08.55-.14.94c-.13.83-.37,2-.73,3.58A53.3,53.3,0,0,1,293.16,268a40.55,40.55,0,0,1-13.09,14.88,36.86,36.86,0,0,1-5.07,2.8,35.19,35.19,0,0,1-5.7,2,30.49,30.49,0,0,1-12.62.58,28,28,0,0,1-6.19-1.84,29.83,29.83,0,0,1-5.42-3.14,36.48,36.48,0,0,1-8.22-8.45A53.24,53.24,0,0,1,229,256.6a121.11,121.11,0,0,1-2.36-13.23c-.18-1.54-.33-2.76-.43-3.62,0-.4-.07-.71-.1-.95a1.93,1.93,0,0,1,0-.32,1.51,1.51,0,0,1,.07.32c0,.23.08.54.14.93.13.86.31,2.07.53,3.62.48,3.12,1.14,7.67,2.51,13.16a53.69,53.69,0,0,0,7.93,18.06,35.92,35.92,0,0,0,8.13,8.31A28.91,28.91,0,0,0,250.7,286a28.1,28.1,0,0,0,6.06,1.81,30.23,30.23,0,0,0,12.42-.57,35.46,35.46,0,0,0,5.62-1.94,37.47,37.47,0,0,0,5-2.75,40.46,40.46,0,0,0,13-14.65,55,55,0,0,0,4.84-12.46c.4-1.53.66-2.73.82-3.55.09-.38.15-.69.2-.93A1.56,1.56,0,0,1,298.78,250.61Z" style="fill:#263238"></path><path d="M270.38,286.54c-.15,0-.38-.89-.86-1.92s-1-1.81-.9-1.91.86.58,1.37,1.69A3.07,3.07,0,0,1,270.38,286.54Z" style="fill:#263238"></path><path d="M276.89,284.62c-.13.07-.73-.89-1.57-2s-1.6-1.94-1.5-2.05,1,.58,1.91,1.73A4.52,4.52,0,0,1,276.89,284.62Z" style="fill:#263238"></path><rect x="199.39" y="322.46" width="26.6" height="30.55" transform="translate(36.76 -20.52) rotate(6.05)" style="fill:#fff"></rect><path d="M294.1,361.93l-71.49-7.58,3.26-30.75,71.49,7.57Zm-70.39-8.47,69.5,7.37,3.05-28.77-69.5-7.37Z" style="fill:#fff"></path><path d="M213,342.12l-1.77-.19L210,347.31l-2.45-.25,1.14-5.39-1.33-.14.44-2.1,1.34.14,1-4.93-1.36-.14.44-2.1,1.36.14.93-4.33,2.45.26-.93,4.33,1.77.19.93-4.33,2.45.26-.93,4.33,1.39.15-.44,2.1-1.39-.15-1,4.93,1.38.14-.44,2.1-1.39-.14-1.15,5.38-2.45-.26Zm-1.32-2.29,1.77.19,1-4.93-1.77-.19Z" style="fill:#455a64"></path><path d="M238.62,339.63l3.86.41-.28,2.72-3.87-.4-.83,7.86-3-.31,2-19.06,7.92.84-.29,2.72-4.92-.52Z" style="fill:#fff"></path><path d="M245.89,331.84l3,.32-2,19.06-3-.32Z" style="fill:#fff"></path><path d="M254.66,341.31l4.19.44-.64,6c-.32,3-2,4.63-5,4.32s-4.28-2.21-4-5.26l1.05-9.91c.32-3.05,2-4.63,5-4.32s4.28,2.22,4,5.26l-.2,1.85-2.83-.3.22-2c.14-1.36-.4-1.94-1.36-2s-1.6.35-1.75,1.71l-1.09,10.29c-.14,1.37.41,1.92,1.36,2s1.6-.33,1.75-1.69l.37-3.51-1.36-.14Z" style="fill:#fff"></path><path d="M262.65,352.89l-3-.32,2-19.06,3,.32-.86,8.17,3.4.36.87-8.17,3,.32-2,19.06-3.05-.32.86-8.17-3.4-.36Z" style="fill:#fff"></path><path d="M272.43,334.65l9.26,1-.29,2.73-3.13-.33-1.73,16.33-3-.32,1.73-16.33-3.13-.33Z" style="fill:#fff"></path><path d="M284.22,352.25l-.3,2.89-2.89-.31.31-2.88Zm-2.42-1.6.35-6.93.85-8,3,.32-.84,8L284,350.89Z" style="fill:#fff"></path><path d="M238.52,341.2a6.3,6.3,0,0,1-1.42,1,22.17,22.17,0,0,1-4.3,1.87,25,25,0,0,1-27.8-8.86,21.53,21.53,0,0,1-2.42-4,6.54,6.54,0,0,1-.61-1.61,49.85,49.85,0,0,0,3.46,5.28,25.49,25.49,0,0,0,27.21,8.68A48.79,48.79,0,0,0,238.52,341.2Z" style="fill:#263238"></path><g style="opacity:0.30000000000000004"><path d="M203.59,332.69a18.47,18.47,0,0,0,13.3,17.53c7.63,2,16-1,19.83-7.84-6.14,2.18-8.95,3.55-15.38,2.49a27.69,27.69,0,0,1-17.87-12"></path></g><path d="M293,288.77s1.43-2.08,5.08-1.39,3.85,3.17,3.85,3.17l-.08,3.72a10.24,10.24,0,0,0-4.8-2.28,13.19,13.19,0,0,0-5.35,1Z" style="fill:#FF725E"></path><g style="opacity:0.30000000000000004"><path d="M293,288.77s1.43-2.08,5.08-1.39,3.85,3.17,3.85,3.17l-.08,3.72a10.24,10.24,0,0,0-4.8-2.28,13.19,13.19,0,0,0-5.35,1Z"></path></g><path d="M284.32,311A48.48,48.48,0,0,0,289,306.6c1.72-2,10.49-11.16,11.3-12.09s2.18-3.14,1.57-4.75l1.61,7.57s.3,1.62-1.4,3.85-8.76,8.39-12.73,13.83-4.3,6.31-4.3,6.31l.15-7-4.06,2.78A24.42,24.42,0,0,1,284.32,311Z" style="fill:#FF725E"></path><path d="M293,288.77s-3,6-3.07,7.77a10.22,10.22,0,0,0,1.88,6.91c1.9,2.62,4.16,7.21,5.21,8.93s2.08,4.44,1.12,9.27l-.33,3,2.95-5.22,1.54,1.23a24.2,24.2,0,0,0,1-6.46c-.17-2.48-.63-3.84-2.35-7.11a87.25,87.25,0,0,0-5.11-7.93,38.56,38.56,0,0,1-2.9-6.93A7.85,7.85,0,0,1,293,288.77Z" style="fill:#FF725E"></path><path d="M290.07,295.94a9.76,9.76,0,0,0,0,2.52,12.78,12.78,0,0,0,.69,2.64,19,19,0,0,0,1.57,3l3.07,5.3.91,1.62a5.52,5.52,0,0,1,.31.6,3.73,3.73,0,0,1-.38-.56c-.29-.49-.61-1-1-1.59l-3.12-5.27a18.77,18.77,0,0,1-1.57-3,11.32,11.32,0,0,1-.65-2.69,7.55,7.55,0,0,1,0-1.87A4.75,4.75,0,0,1,290.07,295.94Z" style="fill:#263238"></path><path d="M300.56,306.21a7.93,7.93,0,0,1-.81-1.12l-1.83-2.77-1.77-2.8a10,10,0,0,1-.68-1.2,11.62,11.62,0,0,1,.81,1.12c.61.94,1.19,1.82,1.82,2.77s1.18,1.86,1.77,2.81A9.83,9.83,0,0,1,300.56,306.21Z" style="fill:#263238"></path><path d="M295.91,299.13l.14-.18.42-.47c.46-.49,1-1.06,1.57-1.71s1.47-1.59,2.33-2.55a4.92,4.92,0,0,0,1.33-3.8,3.11,3.11,0,0,0-.87-1.88,3.89,3.89,0,0,0-1.72-1,9.42,9.42,0,0,0-3.39-.23,3.85,3.85,0,0,0-2.1.84,4.13,4.13,0,0,0-.57.62,2,2,0,0,1,.51-.68,3.81,3.81,0,0,1,2.14-.93,9.31,9.31,0,0,1,3.46.2,4,4,0,0,1,1.81,1,3.32,3.32,0,0,1,.94,2,5.05,5.05,0,0,1-1.4,3.94c-.87,1-1.67,1.81-2.36,2.53l-1.62,1.67-.45.45C296,299.09,295.92,299.14,295.91,299.13Z" style="fill:#263238"></path><g style="opacity:0.30000000000000004"><polyline points="290.33 305.08 293.24 310.31 294.85 308.55 291.85 303.45 290.45 304.95"></polyline></g><path d="M307.47,247.66a9.53,9.53,0,0,1-2.49.1,32.55,32.55,0,0,1-11.71-2.69,9.21,9.21,0,0,1-2.2-1.18,16.6,16.6,0,0,1,2.34.84,46.42,46.42,0,0,0,5.7,1.72,45.71,45.71,0,0,0,5.89.94A17,17,0,0,1,307.47,247.66Z" style="fill:#fff"></path><path d="M314.49,316.67a12.35,12.35,0,0,1,.19,1.72c.1,1.2.24,2.79.41,4.71a64.66,64.66,0,0,1,.25,7,32.89,32.89,0,0,1-1.37,8.51,40.11,40.11,0,0,1-7.49,13.67c-1.27,1.55-2.38,2.73-3.17,3.52-.39.4-.71.69-.92.89a1.9,1.9,0,0,1-.35.29,12,12,0,0,1,1.13-1.32c.74-.83,1.8-2,3-3.61a42.2,42.2,0,0,0,7.27-13.59,33.71,33.71,0,0,0,1.39-8.37c.11-2.62,0-5-.14-7s-.21-3.61-.24-4.73A10.06,10.06,0,0,1,314.49,316.67Z" style="fill:#263238"></path></g><g id="freepik--Desk--inject-13"><path d="M466,460.24c0,.15-95.81.26-214,.26s-214-.11-214-.26,95.79-.26,214-.26S466,460.1,466,460.24Z" style="fill:#263238"></path></g></svg>