<svg xmlns="http://www.w3.org/2000/svg" viewBox="0 0 500 500"><g id="freepik--background-simple--inject-2"><path d="M435.31,111.88l-2.16-3.56c-18.23-30-51.18-48.14-85.93-45.94a90.49,90.49,0,0,0-13.3,1.82c-31.59,6.76-59.08,30.65-70.47,61.25-6.7,18-8.57,38.71-21.29,53-16.55,18.59-44.65,19.17-69.35,18.4s-52.82-.11-69.28,18.55c-10.32,11.69-13.6,28.31-12.76,44,2.2,41.44,31.07,78.49,67.79,96.91s80,20.06,120.15,12c56.3-11.35,109.84-42.52,142-90.66S461.06,163.84,435.31,111.88Z" style="fill:#f5f5f5"></path><circle cx="195.66" cy="135.94" r="36.16" transform="translate(18.98 295.77) rotate(-76.92)" style="fill:#f5f5f5"></circle></g><g id="freepik--speech-bubble--inject-2"><polygon points="197.93 131.91 37.06 131.91 37.06 292.77 143.25 292.77 171.58 318.15 172.32 292.77 197.93 292.77 197.93 131.91" style="fill:#fafafa"></polygon><path d="M63.47,274.73c-.1,0-.18-28.32-.18-63.24s.08-63.25.18-63.25.18,28.31.18,63.25S63.57,274.73,63.47,274.73Z" style="fill:#263238"></path><path d="M59.61,158a13.66,13.66,0,0,1-3.12.18,13.6,13.6,0,0,1-3.11-.18,13.6,13.6,0,0,1,3.11-.18A13.66,13.66,0,0,1,59.61,158Z" style="fill:#263238"></path><path d="M59.85,151.89a13.66,13.66,0,0,1-3.12.18,13.53,13.53,0,0,1-3.11-.18,13.53,13.53,0,0,1,3.11-.18A13.66,13.66,0,0,1,59.85,151.89Z" style="fill:#263238"></path><path d="M59.61,164.6a13.66,13.66,0,0,1-3.12.18,13.6,13.6,0,0,1-3.11-.18,13.6,13.6,0,0,1,3.11-.18A13.66,13.66,0,0,1,59.61,164.6Z" style="fill:#263238"></path><path d="M59.61,171.19a13.66,13.66,0,0,1-3.12.18,13.6,13.6,0,0,1-3.11-.18,13.6,13.6,0,0,1,3.11-.18A13.66,13.66,0,0,1,59.61,171.19Z" style="fill:#263238"></path><path d="M59.61,177.79a13.66,13.66,0,0,1-3.12.18,13.6,13.6,0,0,1-3.11-.18,13.6,13.6,0,0,1,3.11-.18A13.66,13.66,0,0,1,59.61,177.79Z" style="fill:#263238"></path><path d="M59.61,184.38a13.66,13.66,0,0,1-3.12.18,13.6,13.6,0,0,1-3.11-.18,13.6,13.6,0,0,1,3.11-.18A13.66,13.66,0,0,1,59.61,184.38Z" style="fill:#263238"></path><path d="M59.61,191a13.66,13.66,0,0,1-3.12.18,13.6,13.6,0,0,1-3.11-.18,13.6,13.6,0,0,1,3.11-.18A13.66,13.66,0,0,1,59.61,191Z" style="fill:#263238"></path><path d="M59.61,197.57a14.37,14.37,0,0,1-3.12.18,14.32,14.32,0,0,1-3.11-.18,13.6,13.6,0,0,1,3.11-.18A13.66,13.66,0,0,1,59.61,197.57Z" style="fill:#263238"></path><path d="M59.61,204.16a13.66,13.66,0,0,1-3.12.18,13.6,13.6,0,0,1-3.11-.18,13.6,13.6,0,0,1,3.11-.18A13.66,13.66,0,0,1,59.61,204.16Z" style="fill:#263238"></path><path d="M59.61,210.75a13.66,13.66,0,0,1-3.12.18,13.6,13.6,0,0,1-3.11-.18,13.6,13.6,0,0,1,3.11-.18A13.66,13.66,0,0,1,59.61,210.75Z" style="fill:#263238"></path><path d="M59.61,217.34a13.66,13.66,0,0,1-3.12.18,13.6,13.6,0,0,1-3.11-.18,14.32,14.32,0,0,1,3.11-.18A14.37,14.37,0,0,1,59.61,217.34Z" style="fill:#263238"></path><path d="M59.61,223.94a13.66,13.66,0,0,1-3.12.18,13.6,13.6,0,0,1-3.11-.18,13.6,13.6,0,0,1,3.11-.18A13.66,13.66,0,0,1,59.61,223.94Z" style="fill:#263238"></path><path d="M59.61,230.53a13.66,13.66,0,0,1-3.12.18,13.6,13.6,0,0,1-3.11-.18,13.6,13.6,0,0,1,3.11-.18A13.66,13.66,0,0,1,59.61,230.53Z" style="fill:#263238"></path><path d="M59.61,237.12a13.66,13.66,0,0,1-3.12.18,13.6,13.6,0,0,1-3.11-.18,13.6,13.6,0,0,1,3.11-.18A13.66,13.66,0,0,1,59.61,237.12Z" style="fill:#263238"></path><path d="M59.61,243.72a13.66,13.66,0,0,1-3.12.18,13.6,13.6,0,0,1-3.11-.18,13.6,13.6,0,0,1,3.11-.18A13.66,13.66,0,0,1,59.61,243.72Z" style="fill:#263238"></path><path d="M59.61,250.31a13.66,13.66,0,0,1-3.12.18,13.6,13.6,0,0,1-3.11-.18,13.6,13.6,0,0,1,3.11-.18A13.66,13.66,0,0,1,59.61,250.31Z" style="fill:#263238"></path><path d="M84.56,157.62c0,.1-3.61.18-8.08.18s-8.08-.08-8.08-.18,3.62-.18,8.08-.18S84.56,157.52,84.56,157.62Z" style="fill:#263238"></path><path d="M84.56,250.22c0,.06-3.61.1-8.08.1s-8.08,0-8.08-.1,3.62-.09,8.08-.09S84.56,250.17,84.56,250.22Z" style="fill:#263238"></path><path d="M107.07,171.19c0,.1-6.77.18-15.12.18s-15.12-.08-15.12-.18S83.6,171,92,171,107.07,171.09,107.07,171.19Z" style="fill:#FF725E"></path><path d="M142,171.19c0,.1-6.77.18-15.11.18s-15.12-.08-15.12-.18,6.77-.18,15.12-.18S142,171.09,142,171.19Z" style="fill:#263238"></path><path d="M128.66,177.79c0,.1-10,.18-22.27.18s-22.28-.08-22.28-.18,10-.18,22.28-.18S128.66,177.69,128.66,177.79Z" style="fill:#263238"></path><path d="M128.66,184.38c0,.1-10,.18-22.27.18s-22.28-.08-22.28-.18,10-.18,22.28-.18S128.66,184.28,128.66,184.38Z" style="fill:#FF725E"></path><path d="M159.33,204.16c0,.1-10,.18-22.28.18s-22.27-.08-22.27-.18,10-.18,22.27-.18S159.33,204.06,159.33,204.16Z" style="fill:#FF725E"></path><path d="M146.1,191c0,.1-10,.18-22.28.18s-22.28-.08-22.28-.18,10-.18,22.28-.18S146.1,190.87,146.1,191Z" style="fill:#263238"></path><path d="M181.61,177.79c0,.1-10,.18-22.28.18s-22.28-.08-22.28-.18,10-.18,22.28-.18S181.61,177.69,181.61,177.79Z" style="fill:#263238"></path><path d="M84.56,164.6c0,.1-3.61.18-8.08.18s-8.08-.08-8.08-.18,3.62-.18,8.08-.18S84.56,164.5,84.56,164.6Z" style="fill:#FF725E"></path><path d="M84.56,243.72c0,.1-3.61.18-8.08.18s-8.08-.08-8.08-.18,3.62-.18,8.08-.18S84.56,243.62,84.56,243.72Z" style="fill:#263238"></path><path d="M92.57,191c0,.1-3.62.18-8.08.18s-8.08-.08-8.08-.18,3.62-.18,8.08-.18S92.57,190.87,92.57,191Z" style="fill:#263238"></path><path d="M107.07,217.31c0,.09-6.77.18-15.12.18s-15.12-.09-15.12-.18,6.77-.18,15.12-.18S107.07,217.21,107.07,217.31Z" style="fill:#FF725E"></path><path d="M142,217.31c0,.09-6.77.18-15.11.18s-15.12-.09-15.12-.18,6.77-.18,15.12-.18S142,217.21,142,217.31Z" style="fill:#263238"></path><path d="M128.66,223.9c0,.1-10,.18-22.27.18s-22.28-.08-22.28-.18,10-.18,22.28-.18S128.66,223.8,128.66,223.9Z" style="fill:#263238"></path><path d="M128.66,230.49c0,.1-10,.18-22.27.18s-22.28-.08-22.28-.18,10-.18,22.28-.18S128.66,230.39,128.66,230.49Z" style="fill:#FF725E"></path><path d="M146.1,237.08c0,.1-10,.18-22.28.18s-22.28-.08-22.28-.18,10-.18,22.28-.18S146.1,237,146.1,237.08Z" style="fill:#263238"></path><path d="M181.61,223.9c0,.1-10,.18-22.28.18s-22.28-.08-22.28-.18,10-.18,22.28-.18S181.61,223.8,181.61,223.9Z" style="fill:#263238"></path><path d="M92.57,237.08c0,.1-3.62.18-8.08.18s-8.08-.08-8.08-.18,3.62-.18,8.08-.18S92.57,237,92.57,237.08Z" style="fill:#263238"></path><path d="M59.61,257.18a13.66,13.66,0,0,1-3.12.18,13.6,13.6,0,0,1-3.11-.18,14.73,14.73,0,0,1,3.11-.17A14.79,14.79,0,0,1,59.61,257.18Z" style="fill:#263238"></path><path d="M59.61,263.78a13.66,13.66,0,0,1-3.12.18,13.6,13.6,0,0,1-3.11-.18,13.6,13.6,0,0,1,3.11-.18A13.66,13.66,0,0,1,59.61,263.78Z" style="fill:#263238"></path><path d="M59.61,270.37a13.66,13.66,0,0,1-3.12.18,13.6,13.6,0,0,1-3.11-.18,13.6,13.6,0,0,1,3.11-.18A13.66,13.66,0,0,1,59.61,270.37Z" style="fill:#263238"></path><path d="M84.56,270.37c0,.1-3.61.18-8.08.18s-8.08-.08-8.08-.18,3.62-.18,8.08-.18S84.56,270.27,84.56,270.37Z" style="fill:#FF725E"></path><path d="M128.66,257.15c0,.1-10,.18-22.27.18s-22.28-.08-22.28-.18,10-.18,22.28-.18S128.66,257.05,128.66,257.15Z" style="fill:#FF725E"></path><path d="M146.1,263.74c0,.1-10,.18-22.28.18s-22.28-.08-22.28-.18,10-.18,22.28-.18S146.1,263.64,146.1,263.74Z" style="fill:#263238"></path><path d="M92.57,263.74c0,.1-3.62.18-8.08.18s-8.08-.08-8.08-.18,3.62-.18,8.08-.18S92.57,263.64,92.57,263.74Z" style="fill:#263238"></path><rect x="37.06" y="131.91" width="160.86" height="8.91" style="fill:#e0e0e0"></rect><path d="M197.93,131.91s0,1,0,2.91,0,4.79,0,8.53c0,7.49,0,18.48.05,32.51,0,28.1.07,68.33.12,116.92V293H172.32l.23-.23c-.23,8-.47,16.57-.73,25.37v.52l-.39-.34L143.08,293l.17.07H36.8v-.26c0-59.08,0-114.08,0-160.87v-.22h.22l116.8.12,32.59.05,8.56,0,2.92,0-3,0-8.6,0-32.64.06-116.66.11.22-.22c0,46.79,0,101.79,0,160.87l-.26-.26H143.34l.07.07L171.74,318l-.4.17c.26-8.81.51-17.42.75-25.37v-.23h25.84l-.23.23c.05-48.53.09-88.72.12-116.78,0-14.05,0-25.06.06-32.56,0-3.76,0-6.63,0-8.57S197.93,131.91,197.93,131.91Z" style="fill:#263238"></path><path d="M43.22,136.6a1.33,1.33,0,1,1-1.33-1.33A1.32,1.32,0,0,1,43.22,136.6Z" style="fill:#263238"></path><path d="M47,136.6a1.33,1.33,0,1,1-1.33-1.33A1.33,1.33,0,0,1,47,136.6Z" style="fill:#263238"></path><path d="M50.55,136.6a1.33,1.33,0,1,1-1.33-1.33A1.33,1.33,0,0,1,50.55,136.6Z" style="fill:#263238"></path><path d="M197.93,131.91s0,1,0,2.91,0,4.79,0,8.53c0,7.49,0,18.48.05,32.51,0,28.1.07,68.33.12,116.92V293H172.32l.23-.23c-.23,8-.47,16.57-.73,25.37v.52l-.39-.34L143.08,293l.17.07H36.8v-.26c0-59.08,0-114.08,0-160.87v-.22h.22l116.8.12,32.59.05,8.56,0,2.92,0-3,0-8.6,0-32.64.06-116.66.11.22-.22c0,46.79,0,101.79,0,160.87l-.26-.26H143.34l.07.07L171.74,318l-.4.17c.26-8.81.51-17.42.75-25.37v-.23h25.84l-.23.23c.05-48.53.09-88.72.12-116.78,0-14.05,0-25.06.06-32.56,0-3.76,0-6.63,0-8.57S197.93,131.91,197.93,131.91Z" style="fill:#263238"></path></g><g id="freepik--Drink--inject-2"><polygon points="165.33 405.41 172.57 455.81 198.9 455.81 205.52 405.41 165.33 405.41" style="fill:#455a64"></polygon><path d="M162.43,405.41c.13-3.39.9-6.41,3.49-8.41h39.6c2.17,1.65,2.84,4.84,3.13,8.41Z" style="fill:#455a64"></path><polygon points="168.47 397 171.81 392.08 199.25 392.08 202.18 397 168.47 397" style="fill:#455a64"></polygon><path d="M205.34,396.84c0,.14-8.5.26-19,.26s-19-.12-19-.26,8.5-.27,19-.27S205.34,396.69,205.34,396.84Z" style="fill:#263238"></path><path d="M208.65,405.41c0,.14-10.26.26-22.9.26s-22.91-.12-22.91-.26,10.25-.26,22.91-.26S208.65,405.26,208.65,405.41Z" style="fill:#263238"></path><polygon points="166.96 416.79 204.03 416.79 201.86 433.31 169.33 433.31 166.96 416.79" style="fill:#263238"></polygon></g><g id="freepik--Character--inject-2"><polygon points="193.29 287.87 197.67 342.49 203.68 343.37 199.49 286.56 193.29 287.87" style="fill:#263238"></polygon><path d="M185.72,291l18.47,4.43L220.48,311,214,318.73,199.34,302.2S183.15,298.11,185.72,291Z" style="fill:#ba7e6d"></path><path d="M224.61,323.34s0-.09,0-.14L220.48,311l-14.93-7a10,10,0,0,0-1.9,2.4,24.59,24.59,0,0,0-6.47-5.89l-3-1.86a5.19,5.19,0,0,0-5.72,8.27,4.19,4.19,0,0,0-.65,7.35,5.53,5.53,0,0,0-.6,8.44,3.84,3.84,0,0,0-1.05,4,9.48,9.48,0,0,0,2.35,3.76,33.11,33.11,0,0,0,5.61,5,6.43,6.43,0,0,0,2.32,1.13,3.31,3.31,0,0,0,3.21-3.37l9.08,6.55,8,16.88,20.54-12.51Z" style="fill:#ba7e6d"></path><path d="M211.06,327.58a1.61,1.61,0,0,1-.46-.22,8.37,8.37,0,0,1-1.23-.79,11.82,11.82,0,0,1-3.34-4.19,12.17,12.17,0,0,1-1-7.86,20.74,20.74,0,0,1,.68-2.2,2.42,2.42,0,0,0-.06-2.09,6,6,0,0,0-1.85-1.44,10,10,0,0,1-2-1.71,9.72,9.72,0,0,1-1.46-2.17c-.38-.77-.65-1.55-1.06-2.21a3.18,3.18,0,0,0-1.67-1.4c-.69-.26-1.46-.41-2.17-.63a22.13,22.13,0,0,1-7.27-3.22,6.11,6.11,0,0,1-2.8-4.48c0-.31,0-.59,0-.85l.14-.61a1.88,1.88,0,0,1,.15-.49,2.39,2.39,0,0,1-.05.51l-.08.6c0,.25,0,.52,0,.82a6,6,0,0,0,2.81,4.2,22.73,22.73,0,0,0,7.18,3.06c.72.21,1.46.34,2.23.63a3.73,3.73,0,0,1,1.93,1.6c.45.72.72,1.52,1.08,2.24a9.62,9.62,0,0,0,1.39,2.05,9.26,9.26,0,0,0,1.86,1.63,6.28,6.28,0,0,1,2,1.59,2.94,2.94,0,0,1,.11,2.52,19.14,19.14,0,0,0-.69,2.16,11.94,11.94,0,0,0,.84,7.59,12.26,12.26,0,0,0,3.14,4.19C210.46,327.22,211.09,327.53,211.06,327.58Z" style="fill:#875149"></path><path d="M201.8,306.85a3.68,3.68,0,0,1,.66.78,12.77,12.77,0,0,1,1.45,2.41,3.69,3.69,0,0,1,.37,2,5.16,5.16,0,0,1-.85,2.13,3.45,3.45,0,0,1-2.05,1.56,4.59,4.59,0,0,1-2.67-.58,26.68,26.68,0,0,1-7.57-5.28,24,24,0,0,1-1.87-2.09,3.58,3.58,0,0,1-.57-.86c.07,0,1,1.1,2.69,2.69a29.7,29.7,0,0,0,7.54,5.07,4.18,4.18,0,0,0,2.37.54,3,3,0,0,0,1.74-1.33,4.9,4.9,0,0,0,.82-1.91,3.55,3.55,0,0,0-.29-1.78,17.32,17.32,0,0,0-1.28-2.44A3.66,3.66,0,0,1,201.8,306.85Z" style="fill:#875149"></path><path d="M199.34,314.86a5.31,5.31,0,0,1,1,.67,12.11,12.11,0,0,1,2.4,2.29,6.6,6.6,0,0,1,1.09,2.06,4.58,4.58,0,0,1,0,2.7,3.77,3.77,0,0,1-1.9,2.32,4,4,0,0,1-3.21-.1,26.81,26.81,0,0,1-8.56-6.71,23.39,23.39,0,0,1-2-2.65,5.19,5.19,0,0,1-.59-1.06c.08-.05,1,1.42,2.84,3.46a28.79,28.79,0,0,0,8.49,6.48,3.45,3.45,0,0,0,2.79.12,3.4,3.4,0,0,0,1.67-2,4.22,4.22,0,0,0,0-2.44,6.57,6.57,0,0,0-1-2,14.24,14.24,0,0,0-2.24-2.34A5.44,5.44,0,0,1,199.34,314.86Z" style="fill:#875149"></path><path d="M202.38,323.83a2.69,2.69,0,0,1,.63.73,5.45,5.45,0,0,1,1,2.45,3.83,3.83,0,0,1-.27,1.85,2.86,2.86,0,0,1-1.52,1.56,3.73,3.73,0,0,1-2.38.09,11.8,11.8,0,0,1-2.32-.92,43.64,43.64,0,0,1-7.32-4.5c-.87-.67-1.55-1.25-2-1.66s-.69-.66-.67-.69,1.1.8,2.89,2.05a53.63,53.63,0,0,0,7.33,4.33,11.62,11.62,0,0,0,2.21.89,3.34,3.34,0,0,0,2.08,0,2.45,2.45,0,0,0,1.3-1.29,3.52,3.52,0,0,0,.3-1.65,5.65,5.65,0,0,0-.79-2.37A5.71,5.71,0,0,1,202.38,323.83Z" style="fill:#875149"></path><path d="M198.18,329.42a6.34,6.34,0,0,1,.72,1.27,12.26,12.26,0,0,1,.65,1.46,3.71,3.71,0,0,1,.16,2,3.16,3.16,0,0,1-1,1.78,2.59,2.59,0,0,1-1.58.59c-1,0-1.45-.52-1.39-.54a4,4,0,0,0,1.36.17,2.41,2.41,0,0,0,1.29-.58,2.84,2.84,0,0,0,.84-1.52,5.84,5.84,0,0,0-.63-3.24A3.23,3.23,0,0,1,198.18,329.42Z" style="fill:#875149"></path><path d="M203.16,336.3l-.18-6.14a5,5,0,0,1-4.29.08,9.72,9.72,0,0,1,.63,4.61L199,337.1Z" style="fill:#263238"></path><path d="M178.88,258.78c-1.28-17,3.11-30.08,9.65-32.16.88-.27,4.27-1.92,5.15-1.64,6.38,2,11,15.46,12.12,30.43,1,12.72.13,25-4.31,30.31-1.5,1.81-4.94,2-6.83,2.23C187.23,288.88,180.17,275.82,178.88,258.78Z" style="fill:#455a64"></path><path d="M194.54,225c-7.88,1.73-12.85,16.26-11.6,32.57,1.46,19.14,8.56,30,16,29a8.62,8.62,0,0,0,2.62-1.25c4.42-5.34,5.24-17.58,4.28-30.28C204.71,240.2,200.89,227.13,194.54,225Z" style="fill:#fff"></path><path d="M205.39,256.14c1,12.7-.19,24.67-4.61,30,6-3.46,10.16-16.31,9-31.4-1.28-17-8.69-30.69-16.12-29.76-.23,0-.3.49-.53.55C199.5,227.63,204.27,241.22,205.39,256.14Z" style="fill:#263238"></path><path d="M182.94,257.6a2,2,0,0,1,.06.38l.12,1.09c.11,1,.27,2.37.58,4.18a63.29,63.29,0,0,0,1.43,6.52,45.14,45.14,0,0,0,3.13,8.25,26.88,26.88,0,0,0,2.71,4.32,12.52,12.52,0,0,0,4.14,3.55,6.09,6.09,0,0,0,5.56.05,11.25,11.25,0,0,0,4.32-4.36,35.4,35.4,0,0,0,4.14-12.79,66,66,0,0,0,.47-14.53A64,64,0,0,0,206.93,240c-1.44-4.45-3.38-8.69-6.33-11.81a8.67,8.67,0,0,0-5.32-2.88,6.82,6.82,0,0,0-5.22,2.08,16.27,16.27,0,0,0-3.17,4.48A30.12,30.12,0,0,0,185,236.6a56.78,56.78,0,0,0-2.17,15.31c0,1.83,0,3.25.06,4.22,0,.46,0,.82,0,1.1a1.7,1.7,0,0,1,0,.37,1.49,1.49,0,0,1-.05-.37c0-.27-.06-.63-.1-1.09-.06-1-.15-2.4-.15-4.24a55,55,0,0,1,2-15.41,30.53,30.53,0,0,1,1.87-4.83,16.37,16.37,0,0,1,3.24-4.61,7.27,7.27,0,0,1,5.55-2.23,9.12,9.12,0,0,1,5.62,3c3.05,3.22,5,7.5,6.47,12a64.15,64.15,0,0,1,2.71,14.41,66.49,66.49,0,0,1-.48,14.65,35.86,35.86,0,0,1-4.24,13,11.69,11.69,0,0,1-4.52,4.52,6.38,6.38,0,0,1-3,.68,6.87,6.87,0,0,1-2.92-.75,12.77,12.77,0,0,1-4.26-3.69,26.35,26.35,0,0,1-2.73-4.41,44.65,44.65,0,0,1-3.08-8.33,62.29,62.29,0,0,1-1.35-6.57c-.28-1.81-.4-3.24-.49-4.2,0-.46,0-.83-.07-1.1A1.83,1.83,0,0,1,182.94,257.6Z" style="fill:#263238"></path><path d="M198.79,253.3c.14,0-1.07,4.79-2.7,10.61s-3.06,10.52-3.2,10.48,1.07-4.79,2.7-10.62S198.65,253.26,198.79,253.3Z" style="fill:#263238"></path><path d="M199.44,243.77c.14,0-1.07,4.79-2.7,10.62s-3.06,10.51-3.2,10.47,1.07-4.79,2.7-10.61S199.31,243.73,199.44,243.77Z" style="fill:#263238"></path><path d="M375.61,184.41l-95.74,16.64c.3,1.51.61,3,.92,4.48l-.24-.61c3.9,17.88,7.72,37,1,54-2.22,5.61-5.6,11-5.58,17.06,0,2.84.79,5.62.94,8.46s-.5,6-2.71,7.74c-2.38,1.91-6.38,2.23-7.26,5.15-.6,2,.75,4.05,2.15,5.62a43.59,43.59,0,0,0,13.56,10.22,21.43,21.43,0,0,0,4.5,10l18.55-8.72-1.14-6a9,9,0,0,0,6.27,5.06c3.49.82,7.13,0,10.61-.88a301.39,301.39,0,0,0,58.42-21.34c2.48-1.21,15-2.14,15-2.14C397,257.39,387.42,214,375.61,184.41Z" style="fill:#263238"></path><path d="M373,179c-6.65-13.9-13.51-28.37-27.6-34.62-12.55-5.56-25.06-4.83-38.21-.91-6.48,1.93-13.11,6.82-18,11.49-6.7,6.4-7.74,16.22-9.45,25.33-3.43,18.24,3.13,40.12,9.8,45L367,244c10.49-9.34,17.83-14.32,17.68-28.37C384.55,206.1,377.17,187.63,373,179Z" style="fill:#263238"></path><path d="M347.38,158.24l-46.17-1.81c-14.35,1.49-20,20.74-17.93,35,2.32,15.85,5.78,35.12,10.11,46.4,8.69,22.69,27.32,21.87,27.32,21.87s.13.34,1.74,7.29l3.3,15.71c9.93,17.76,28.69,11.25,50.61-3.89L356.54,165.06A8.45,8.45,0,0,0,347.38,158.24Z" style="fill:#ba7e6d"></path><path d="M292.54,208.71a3.08,3.08,0,0,0,3.55,2.42,3,3,0,0,0,2.53-3.37,3.09,3.09,0,0,0-3.55-2.43A3,3,0,0,0,292.54,208.71Z" style="fill:#263238"></path><path d="M290.07,203c.45.31,2.38-1.86,5.62-2.53s6,.44,6.23,0c.13-.21-.4-.84-1.59-1.38a8.46,8.46,0,0,0-5.09-.46,8.07,8.07,0,0,0-4.37,2.51C290,202,289.85,202.81,290.07,203Z" style="fill:#263238"></path><path d="M322.74,201.41a3.09,3.09,0,0,0,3.55,2.43,3,3,0,0,0,2.53-3.37,3.08,3.08,0,0,0-3.54-2.43A3,3,0,0,0,322.74,201.41Z" style="fill:#263238"></path><path d="M321.51,195.39c.46.32,2.38-1.86,5.62-2.53s6,.44,6.23,0c.13-.21-.39-.84-1.59-1.38a8.53,8.53,0,0,0-5.09-.46,8.14,8.14,0,0,0-4.37,2.51C321.48,194.47,321.29,195.25,321.51,195.39Z" style="fill:#263238"></path><path d="M314.84,220.91c0-.19-2.11-.11-5.47.16-.84.09-1.66.09-1.92-.44a4.37,4.37,0,0,1,0-2.57q.54-3.26,1.12-6.82c1.5-9.68,2.4-17.58,2-17.64s-1.93,7.75-3.43,17.44q-.53,3.57-1,6.83a4.89,4.89,0,0,0,.26,3.34,2.11,2.11,0,0,0,1.61.92,5.82,5.82,0,0,0,1.45-.1C312.82,221.51,314.86,221.1,314.84,220.91Z" style="fill:#263238"></path><path d="M320.71,259.72a61.06,61.06,0,0,0,29.67-15s-4.3,18.07-28.27,20.84Z" style="fill:#875149"></path><path d="M326.94,224.7a4.38,4.38,0,0,0-4-1.2,5.74,5.74,0,0,0-4.58,3.62,3.54,3.54,0,0,0,.31,2.56c.27.39.08.21.48.43a10.08,10.08,0,0,0,4.54,1.65,4.31,4.31,0,0,0,4.1-2.58A4.36,4.36,0,0,0,326.94,224.7Z" style="fill:#875149"></path><path d="M325.46,221.13c-.54.08.18,3.6-2.32,6.72s-6.33,3.5-6.26,4c0,.23,1,.51,2.57.23a9,9,0,0,0,5.27-3.14,7.79,7.79,0,0,0,1.71-5.59C326.26,221.85,325.69,221.06,325.46,221.13Z" style="fill:#263238"></path><path d="M317.89,185.51c.45.84,3.66-.07,7.57-.19s7.18.45,7.57-.43c.17-.41-.5-1.17-1.88-1.84a13.15,13.15,0,0,0-11.54.47C318.29,184.3,317.68,185.11,317.89,185.51Z" style="fill:#263238"></path><path d="M288.5,195.85c.89.45,2.95-1.25,5.76-2.45s5.43-1.69,5.68-2.65c.1-.45-.57-1-1.89-1.22a9.52,9.52,0,0,0-5.18.81,9.33,9.33,0,0,0-4,3.3C288.13,194.77,288.09,195.62,288.5,195.85Z" style="fill:#263238"></path><path d="M300.16,153.83a53.39,53.39,0,0,0,10.66,26.81,19.66,19.66,0,0,0,5.93,5.53,8.74,8.74,0,0,0,7.84.52,32.49,32.49,0,0,1-10.9-16.47c4.42,5.92,8.94,11.94,15,16.2s14,6.53,20.94,4.11l-1.67-4.67c1.89,3.17,4.44,6.14,7.87,7.5s7.85.72,10.06-2.24c-5.3-11.07-1.3-25.49-8.52-35.41-5-6.87-14.06-9.47-22.53-10a67.65,67.65,0,0,0-34.69,7.15" style="fill:#263238"></path><path d="M301.18,153.78c0,.17,0,.35,0,.53h.09C301.25,154.14,301.22,154,301.18,153.78Z" style="fill:#263238"></path><path d="M301.2,154.31l-1.56-.24c-4.95-1.18-8.47-3-13.8,4.7a43.2,43.2,0,0,0-6.11,15.5c-1,5-2.1,10.42-1.65,15.49a63.89,63.89,0,0,0,3.93,18c3.3-3.6,4.17-8.78,4.3-13.66s-.3-9.86,1-14.57c.3,4.07.61,8.22,2.22,12a5,5,0,0,0,2,2.61,2.12,2.12,0,0,0,2.89-.72,26.14,26.14,0,0,1-3.44-14,74.71,74.71,0,0,1,2-14.47,71.75,71.75,0,0,0,6.75,23.47,6.28,6.28,0,0,0,2.1,2.77c1.5.92,3.45.47,5.07-.2s3.26-1.56,5-1.47A68.87,68.87,0,0,1,301.2,154.31Z" style="fill:#263238"></path><polygon points="322.12 265.53 394.5 269.25 347.97 327.46 328.86 336.45 311.91 332.4 308.01 320.07 322.12 265.53" style="fill:#ba7e6d"></polygon><path d="M405.77,279.8a7.91,7.91,0,0,1-1.48.16,36.1,36.1,0,0,0-4,.5,18.23,18.23,0,0,0-5.6,2,26.93,26.93,0,0,0-5.86,4.35,29.16,29.16,0,0,0-4.24,6A52.17,52.17,0,0,0,382,298.2c-.65,1.59-1.12,2.9-1.44,3.8a8.75,8.75,0,0,1-.55,1.4,8.57,8.57,0,0,1,.35-1.46c.27-.93.69-2.26,1.3-3.88a46.35,46.35,0,0,1,2.5-5.52,28.14,28.14,0,0,1,4.28-6.1,26,26,0,0,1,6-4.41,18.33,18.33,0,0,1,5.77-1.94,27.49,27.49,0,0,1,4.08-.33A8.66,8.66,0,0,1,405.77,279.8Z" style="fill:#263238"></path><path d="M213,354.4s26.87,52.12,31.38,57.93c10.66,13.73,35,9.36,38.44,1.83,6-13,25.15-56.4,25.15-56.4l-6.33-15.6-21.3-44-20.89,72.27-27.06-34.26Z" style="fill:#FF725E"></path><path d="M433.52,381.73s-2.42-73.46-5.51-83.61-6.87-15.74-14.51-20.68c-8.7-5.62-18-7.26-19-8.19,0,0-26.46,29.38-39.7,46.15s-30.46,17.66-34,13.24-6.18-13.43-3.09-27.68,4.39-35.43,4.39-35.43l-3.07.34c-17.46,1.94-32.54,13.62-38.05,30.29-.21.64-.42,1.29-.61,2-6.2,21.23,18.12,51.75,18.12,50.41.06,6.34.48,12.41,1.56,16.74,3.53,14.14,34.43,37.84,36.2,44.75s3.23,51.13,3.23,51.13,53.57.1,75.17,0c17.55-.09,56.1,0,56.1,0Z" style="fill:#FF725E"></path><path d="M296.74,294.62s.11.29.28.84a24.62,24.62,0,0,1,.65,2.45,48.27,48.27,0,0,1,1.11,9.26,118.37,118.37,0,0,1-.49,13.81c-.4,5.19-1,10.87-1.33,16.85a86.07,86.07,0,0,0,.56,16.82,49.88,49.88,0,0,0,3.77,13.18,48,48,0,0,0,4.66,8c.65.89,1.2,1.54,1.54,2a6.5,6.5,0,0,1,.52.71,4.17,4.17,0,0,1-.6-.65c-.37-.44-.94-1.08-1.62-1.95a44.2,44.2,0,0,1-4.83-8,48.12,48.12,0,0,1-3.91-13.25,84.83,84.83,0,0,1-.61-16.93c.3-6,.94-11.68,1.37-16.86a127.22,127.22,0,0,0,.6-13.76,51.5,51.5,0,0,0-.94-9.23c-.18-1.08-.42-1.9-.55-2.46A4.48,4.48,0,0,1,296.74,294.62Z" style="fill:#263238"></path><g style="opacity:0.30000000000000004"><path d="M302.93,370.56c-6.38-4.24-9.86-11.87-10.84-19.46s.23-15.28,1.43-22.85c1.33-8.4,3.55-16,4.88-24.39.87,11.63-.43,21.79-1.27,33.11s-.42,23.42,5.79,32.92"></path></g><path d="M277.59,392.94c-.11.09-10.18-12.34-22.48-27.76s-22.2-28-22.09-28.08,10.18,12.34,22.49,27.76S277.71,392.85,277.59,392.94Z" style="fill:#263238"></path><g style="opacity:0.30000000000000004"><path d="M363.05,306.69a20.15,20.15,0,0,0,4.94,5.14c2,1.28,4.71,1.78,6.8.62,2.5-1.38,3.33-4.5,4.12-7.25a62.4,62.4,0,0,1,21.57-31.85c-7.64,3.09-15.36,6.23-22.1,11s-12.48,11.37-14.62,19.34"></path></g><path d="M370.26,362.2a3.3,3.3,0,0,1-.72.17l-2.07.38c-.89.17-2,.36-3.28.53s-2.75.42-4.37.6c-3.25.41-7.13.76-11.44,1s-9.08.33-14.07.23-9.73-.45-14-.87-8.16-1-11.38-1.54c-1.61-.25-3.06-.55-4.34-.79s-2.37-.47-3.26-.68l-2.05-.48a3.41,3.41,0,0,1-.71-.2,5.24,5.24,0,0,1,.73.1l2.07.38c.9.18,2,.39,3.27.59s2.73.49,4.35.72c3.22.51,7.08,1,11.37,1.42s9,.71,14,.83,9.71,0,14-.19,8.18-.55,11.42-.91c1.63-.15,3.09-.36,4.38-.51s2.39-.31,3.29-.45l2.09-.28A4,4,0,0,1,370.26,362.2Z" style="fill:#fff"></path><path d="M375.38,322.9a4.8,4.8,0,0,1-.64.52l-1.92,1.43-1.4,1c-.53.36-1.12.7-1.75,1.09a49.26,49.26,0,0,1-4.35,2.51l-2.61,1.32c-.91.46-1.91.82-2.91,1.25a68.59,68.59,0,0,1-6.58,2.38,72.56,72.56,0,0,1-31.73,2.32,68,68,0,0,1-6.86-1.39c-1.05-.29-2.09-.5-3.06-.82l-2.77-.93a45,45,0,0,1-4.67-1.85c-.68-.29-1.32-.55-1.89-.82l-1.53-.81L298.6,329a4,4,0,0,1-.72-.43,5.22,5.22,0,0,1,.77.34l2.15,1,1.55.77c.57.26,1.21.5,1.89.78,1.37.54,2.9,1.25,4.68,1.77l2.77.9c1,.3,2,.5,3.05.78,2.1.59,4.4.92,6.82,1.34A73.87,73.87,0,0,0,353.08,334c2.33-.76,4.56-1.43,6.55-2.31,1-.43,2-.78,2.91-1.22l2.61-1.29c1.69-.77,3.09-1.7,4.37-2.43.63-.38,1.23-.71,1.76-1.05l1.42-1,2-1.35A5,5,0,0,1,375.38,322.9Z" style="fill:#fff"></path><path d="M247.05,360.45a4.38,4.38,0,0,1-.69.84c-.47.53-1.18,1.25-2.08,2.13a76.38,76.38,0,0,1-7.48,6.34,74.54,74.54,0,0,1-8.25,5.31c-1.1.61-2,1.08-2.64,1.37a4.7,4.7,0,0,1-1,.42c0-.07,1.32-.82,3.46-2.1s5-3.15,8.12-5.42,5.68-4.51,7.54-6.19S247,360.39,247.05,360.45Z" style="fill:#fff"></path><path d="M269.74,384a6.92,6.92,0,0,1-.43,1.37c-.15.44-.35,1-.62,1.57s-.54,1.3-.92,2a46.91,46.91,0,0,1-2.88,5.07,52.81,52.81,0,0,1-4.35,5.67,51.14,51.14,0,0,1-5.16,4.94,45,45,0,0,1-4.72,3.42c-.69.46-1.36.81-1.93,1.14a16.21,16.21,0,0,1-1.49.79,6.22,6.22,0,0,1-1.32.58,8.42,8.42,0,0,1,1.22-.76c.41-.22.9-.5,1.45-.86s1.2-.72,1.87-1.2a52.37,52.37,0,0,0,4.62-3.47,51.14,51.14,0,0,0,9.41-10.51,54.56,54.56,0,0,0,2.95-5c.4-.72.7-1.41,1-2s.52-1.1.7-1.53A8.54,8.54,0,0,1,269.74,384Z" style="fill:#fff"></path><path d="M295.22,387.13a9.87,9.87,0,0,1-1-1.37c-.57-.91-1.44-2.2-2.55-3.76s-2.51-3.36-4.14-5.3-3.55-3.95-5.66-6-4.26-3.79-6.26-5.34-3.89-2.83-5.51-3.86-2.94-1.83-3.88-2.35a10.16,10.16,0,0,1-1.42-.87,9.24,9.24,0,0,1,1.52.69c1,.47,2.33,1.23,4,2.22s3.55,2.27,5.6,3.79a75.26,75.26,0,0,1,6.33,5.34,77.33,77.33,0,0,1,5.67,6c1.62,2,3,3.8,4.07,5.4s1.9,2.92,2.42,3.86A10.8,10.8,0,0,1,295.22,387.13Z" style="fill:#fff"></path><path d="M296.9,339.83c0,.07-1.24-.95-3.26-2.45a66.15,66.15,0,0,0-17.23-9.26c-2.36-.86-3.86-1.29-3.84-1.38a4.71,4.71,0,0,1,1.09.21c.68.15,1.67.43,2.87.82a54.93,54.93,0,0,1,17.33,9.32c1,.79,1.77,1.46,2.28,2A4.84,4.84,0,0,1,296.9,339.83Z" style="fill:#fff"></path><path d="M298.43,308.75a22.77,22.77,0,0,1-2.64-1.37c-1.62-.86-3.88-2-6.44-3.14s-4.93-2-6.67-2.6a20.64,20.64,0,0,1-2.79-1,14.75,14.75,0,0,1,2.91.67,56.2,56.2,0,0,1,6.76,2.47,59.43,59.43,0,0,1,6.41,3.3A13.33,13.33,0,0,1,298.43,308.75Z" style="fill:#fff"></path><path d="M317.79,286.19c0,.07-1.31-.52-3.39-1.37a73.15,73.15,0,0,0-16.92-4.7c-2.23-.34-3.62-.48-3.61-.56a3.4,3.4,0,0,1,1,0c.64,0,1.55.09,2.68.22a57.59,57.59,0,0,1,8.69,1.69,56.28,56.28,0,0,1,8.32,3c1,.47,1.85.88,2.41,1.19A4.47,4.47,0,0,1,317.79,286.19Z" style="fill:#fff"></path><path d="M363,396.76a7.22,7.22,0,0,1-1.47.2c-.95.1-2.32.2-4,.3-3.4.18-8.1.27-13.29,0A131.61,131.61,0,0,1,330.94,396c-1.68-.25-3-.48-4-.67a6.83,6.83,0,0,1-1.44-.34,9.28,9.28,0,0,1,1.47.14l4,.51c3.37.41,8,.88,13.21,1.12s9.86.22,13.26.13l4-.13A9.43,9.43,0,0,1,363,396.76Z" style="fill:#fff"></path><path d="M458.72,438a1.28,1.28,0,0,1-.28.11l-.85.28-3.27,1c-1.43.46-3.17,1-5.22,1.55s-4.36,1.26-7,1.89-5.42,1.38-8.49,2.05-6.35,1.36-9.81,2.06c-6.94,1.29-14.62,2.5-22.71,3.43s-15.86,1.39-22.92,1.66c-3.53.08-6.88.19-10,.15s-6.06-.05-8.73-.12-5.08-.21-7.2-.31-3.94-.24-5.43-.37l-3.42-.29-.89-.09a.93.93,0,0,1-.3-.05h.3l.89,0,3.43.19c1.49.1,3.31.21,5.43.27s4.53.22,7.2.24,5.58.11,8.72.06,6.48-.11,10-.2c7-.29,14.78-.82,22.87-1.7s15.74-2.12,22.68-3.39c3.46-.68,6.75-1.29,9.8-2s5.91-1.34,8.5-2,4.91-1.27,7-1.81,3.81-1,5.24-1.46l3.3-.95.87-.23A1.09,1.09,0,0,1,458.72,438Z" style="fill:#fff"></path><path d="M448.16,411.38c0,.14-10.09,1.32-22.57,2.63S403,416.27,403,416.12s10.09-1.32,22.57-2.63S448.14,411.23,448.16,411.38Z" style="fill:#fff"></path><path d="M432.57,382.3c0,.14-5,1.57-11.34,3.19s-11.44,2.82-11.48,2.68,5-1.57,11.35-3.19S432.53,382.16,432.57,382.3Z" style="fill:#fff"></path><path d="M429.46,355.83a54.1,54.1,0,0,1-7.21,2.07,53.41,53.41,0,0,1-7.34,1.57,54.1,54.1,0,0,1,7.21-2.07A53.41,53.41,0,0,1,429.46,355.83Z" style="fill:#fff"></path><g style="opacity:0.30000000000000004"><path d="M338.92,446.43c12.42,2.5,23.77,6.69,36.36,5.31s25.34-7.31,31.84-18.19c4.82-8.07,5.71-17.83,6.47-27.2q2.51-30.59,5-61.16l-25.75,71.43-12.35,18.84Z"></path></g><path d="M291.6,419.94,363,407.75s14.93-90.32,15.34-91.93,5.41-29.73,19.56-32.14,27.05,3.22,27.88,16.88c.67,10.92-15.18,89.38-25.17,125.72-2.88,10.45-14.33,19.7-25.53,19.91-29.19.55-83.17,0-83.17,0Z" style="fill:#FF725E"></path><path d="M378.32,315.82c-.28,1.73-6,36.25-15.13,92l0,.15-.15,0-71.37,12.23.21-.25c.09,8.35.19,17.21.29,26.25l-.25-.26,27,.19c15.11.07,29.87.08,44.12,0l10.58-.13a25,25,0,0,0,10.05-1.9,30.16,30.16,0,0,0,14.66-13l.58-1.07.48-1.11a18.5,18.5,0,0,0,.82-2.26c.47-1.53.85-3.1,1.27-4.64.84-3.07,1.58-6.13,2.35-9.14,1.5-6,2.89-11.87,4.2-17.54,2.62-11.35,4.91-21.95,7-31.64,4-19.39,7-35.14,8.76-46.07.43-2.74.82-5.17,1.09-7.28.15-1,.28-2,.4-2.92s.18-1.7.26-2.43a31.59,31.59,0,0,0,.22-3.3c0-.75.05-1.13.05-1.13s0,.38,0,1.13a26.76,26.76,0,0,1-.17,3.31c-.07.73-.14,1.54-.23,2.43s-.24,1.87-.37,2.93c-.26,2.12-.63,4.55-1.05,7.29-1.69,11-4.62,26.71-8.6,46.11-2,9.7-4.29,20.31-6.89,31.66-1.3,5.68-2.68,11.54-4.18,17.57-.76,3-1.5,6.06-2.34,9.14-.42,1.54-.79,3.1-1.26,4.66a20,20,0,0,1-.84,2.31l-.49,1.13-.59,1.09a30.56,30.56,0,0,1-14.9,13.2,25.34,25.34,0,0,1-10.22,1.94L363,446.6c-14.25.12-29,.11-44.13,0l-27-.19h-.25v-.26c-.09-9-.19-17.89-.28-26.25v-.21l.21,0L363,407.54l-.18.17c4.67-27.9,8.51-50.87,11.19-66.89,1.37-8,2.44-14.24,3.16-18.5l.87-4.85C378.19,316.38,378.32,315.82,378.32,315.82Z" style="fill:#263238"></path><path d="M415.42,351.22a9.57,9.57,0,0,1-1.65-.15l-4.49-.56c-3.79-.46-9-1-14.85-1.3s-11.08-.34-14.9-.29L375,349a9.69,9.69,0,0,1-1.66,0,10.63,10.63,0,0,1,1.65-.18c1.07-.09,2.61-.17,4.52-.24,3.82-.14,9.11-.17,14.94.14s11.09.9,14.87,1.45c1.89.28,3.42.53,4.47.73A10.41,10.41,0,0,1,415.42,351.22Z" style="fill:#fff"></path><path d="M422.63,313.52a10.48,10.48,0,0,1-1.61-.32c-1-.24-2.52-.55-4.37-.88a80.86,80.86,0,0,0-29.21,0c-1.85.34-3.34.66-4.36.9a10.48,10.48,0,0,1-1.61.32,9.92,9.92,0,0,1,1.56-.51c1-.31,2.49-.68,4.34-1.07a73.25,73.25,0,0,1,29.35-.05c1.85.39,3.34.75,4.35,1.06A8.75,8.75,0,0,1,422.63,313.52Z" style="fill:#fff"></path><path d="M405.77,397.27a8.92,8.92,0,0,1-1.35-.88c-.42-.3-.94-.66-1.57-1.05s-1.31-.87-2.12-1.31a52.6,52.6,0,0,0-5.79-2.91,55.65,55.65,0,0,0-7.52-2.51,56.33,56.33,0,0,0-7.83-1.31,50.3,50.3,0,0,0-6.48-.14c-.92,0-1.75.1-2.48.16s-1.37.12-1.88.19a8.31,8.31,0,0,1-1.61.14,11.56,11.56,0,0,1,1.58-.34c.51-.1,1.14-.21,1.87-.28s1.57-.21,2.5-.24a46.24,46.24,0,0,1,6.54,0,48,48,0,0,1,15.5,3.86,46.23,46.23,0,0,1,5.79,3c.81.46,1.49,1,2.1,1.38s1.12.8,1.52,1.13A10.66,10.66,0,0,1,405.77,397.27Z" style="fill:#fff"></path><path d="M389.17,439.87a9.69,9.69,0,0,1-.85-1.37c-.51-.9-1.28-2.19-2.24-3.77A120.79,120.79,0,0,0,368.24,412c-1.31-1.31-2.39-2.35-3.14-3.06a11.35,11.35,0,0,1-1.13-1.15,9.9,9.9,0,0,1,1.27,1c.79.66,1.91,1.67,3.26,2.95a104,104,0,0,1,9.75,10.75,102.74,102.74,0,0,1,8.15,12c.92,1.61,1.64,2.94,2.1,3.87A10.68,10.68,0,0,1,389.17,439.87Z" style="fill:#fff"></path><path d="M328.18,446.23a5.12,5.12,0,0,1-.1-1.21q0-1.33-.09-3.3c-.07-2.79-.23-6.63-.54-10.87s-.74-8.07-1.07-10.83c-.16-1.3-.3-2.4-.4-3.28a5.24,5.24,0,0,1-.09-1.21,6.29,6.29,0,0,1,.29,1.18c.15.76.35,1.88.56,3.26.43,2.76.91,6.59,1.23,10.84s.41,8.11.39,10.9c0,1.4,0,2.53-.07,3.31A6.26,6.26,0,0,1,328.18,446.23Z" style="fill:#fff"></path><path d="M421.15,287.84c0,.14-7.34-.14-16.38-.64s-16.35-1-16.34-1.15,7.34.14,16.37.63S421.15,287.7,421.15,287.84Z" style="fill:#fff"></path><g style="opacity:0.30000000000000004"><path d="M363,407.75c-7.9-4-15.42-8.79-21.38-15.32,3,0,5.93,1.28,8.87,2.08s6.35,1.05,8.8-.76c1.72-1.27,2.65-3.31,3.51-5.25a127.38,127.38,0,0,0,6.08-16.24c-1.72,11.34-3.59,24.2-5.88,35.49"></path></g><g style="opacity:0.30000000000000004"><path d="M259.67,369.78A74.59,74.59,0,0,1,281,390.35c.37.54.74,1.26.37,1.8s-1.52.45-2.16,0c-6.66-5-14.38-15.11-19.56-22.34"></path></g><path d="M383.89,209.48l-20-36.35L343,175.42c-1.48,16.19,13.57,30.13,13.25,46.39-.13,6.7-2.91,13.29-2,19.94.83,6.27,4.83,11.77,5.71,18,1.05,7.41-2.36,14.61-5.05,21.58s-4.65,15.15-1,21.67c7.75,3.49,10.95,3.68,18.27,5.19,5.6-5.22,7.66-16.91,15.86-25.08,0,0,10.36-12.68,19.26-8.75,0,0,10.23-5.8-11.42-36.14C390.91,231.31,386.54,218.49,383.89,209.48Z" style="fill:#263238"></path><path d="M217.57,422.59l15-11.18a7.75,7.75,0,0,1,5.15-1.42l12,1,28,12.15,13.67-1.83.21,23.82s-12.15.66-17-.14-11.48-5.07-11.48-5.07,1.6,2.4.8,4.27-7.21,4.81-7.21,4.81-4.54,1.6-5.34-1.6c0,0-8,1.06-8.81-5.35,0,0-12.25-2.07-10.5-7.71,1.29-4.18,2.61-7.24,2.61-7.24l3.61-8-4-.71s-7.34,5.48-10.54,6S217.57,422.59,217.57,422.59Z" style="fill:#ba7e6d"></path><path d="M247.83,423.54c.06.08-1.11.67-2.59,2.1a13.63,13.63,0,0,0-3.84,6.85,15.12,15.12,0,0,0,.07,4.37c.2,1.35.47,2.56.71,3.56a27,27,0,0,1,.75,3.28,3,3,0,0,1-.35-.83c-.2-.55-.47-1.35-.76-2.35a34.68,34.68,0,0,1-.82-3.58,14.51,14.51,0,0,1-.11-4.54,13.13,13.13,0,0,1,4.09-7,12.1,12.1,0,0,1,2-1.46A2.68,2.68,0,0,1,247.83,423.54Z" style="fill:#875149"></path><path d="M254.32,430.25a5.81,5.81,0,0,1-.85,0,4.42,4.42,0,0,0-2.1.75,5.7,5.7,0,0,0-2.1,2.52,8.33,8.33,0,0,0-.49,4,24.38,24.38,0,0,0,.87,4.09c.34,1.25.67,2.38,1,3.31.61,1.86,1.13,3,1.06,3s-.2-.23-.46-.73a20.57,20.57,0,0,1-.95-2.14c-.36-.92-.72-2.05-1.09-3.3a21.17,21.17,0,0,1-.93-4.17,8.5,8.5,0,0,1,.57-4.28,5.84,5.84,0,0,1,2.34-2.64,4.28,4.28,0,0,1,2.3-.64A1.81,1.81,0,0,1,254.32,430.25Z" style="fill:#875149"></path><path d="M259.07,440.26c-.05,0,.05-.32.4-.64a3.16,3.16,0,0,1,1.63-.71,2.31,2.31,0,0,1,1.77.39c.38.32.42.64.37.66s-.23-.18-.57-.35a2.48,2.48,0,0,0-1.5-.18A6.57,6.57,0,0,0,259.07,440.26Z" style="fill:#875149"></path><path d="M259.81,435.46c.05,0,.3.16.46.6a4.41,4.41,0,0,1,.21,1.77,3.52,3.52,0,0,1-.55,1.71c-.28.4-.58.51-.61.45s.13-.26.29-.63a5.16,5.16,0,0,0,.35-1.57,7.64,7.64,0,0,0,0-1.64C259.85,435.74,259.75,435.5,259.81,435.46Z" style="fill:#875149"></path><path d="M232.1,434.35a3.57,3.57,0,0,1,.28-1c.22-.61.55-1.5,1-2.58.83-2.17,2-5.16,3.35-8.45.49-1.17,1-2.31,1.39-3.36l0-.05,0,0a7.24,7.24,0,0,1,3.16-2.06,7.48,7.48,0,0,1,2.94-.39,6.39,6.39,0,0,1,1.9.41c.42.17.63.29.62.32a12.33,12.33,0,0,0-2.53-.42,7.51,7.51,0,0,0-5.71,2.46l0-.07c-.43,1.06-.89,2.2-1.36,3.38-1.34,3.29-2.58,6.25-3.5,8.39-.46,1.06-.84,1.93-1.12,2.52A3.58,3.58,0,0,1,232.1,434.35Z" style="fill:#875149"></path></g><g id="freepik--Device--inject-2"><path d="M101.39,345.23l49.61,111H266.56a9.91,9.91,0,0,0-9.65-8l-99.27-.72-47.78-106.1a4.65,4.65,0,0,0-6-2.37h0A4.66,4.66,0,0,0,101.39,345.23Z" style="fill:#e0e0e0"></path><path d="M101.39,345.23a5.77,5.77,0,0,1-.22-.58,4.23,4.23,0,0,1-.19-1.8,4.6,4.6,0,0,1,1.2-2.69,4.71,4.71,0,0,1,3.71-1.53,4.76,4.76,0,0,1,4.09,2.86c.79,1.72,1.64,3.61,2.56,5.65l6.34,14,39,86.31-.21-.14,52,.36,28.19.2,14.52.11,3.67,0a11.51,11.51,0,0,1,3.72.45,10.24,10.24,0,0,1,5.84,4.59,10.45,10.45,0,0,1,.86,1.9,8.89,8.89,0,0,1,.28,1l.06.25c-.52.63-.16.17-.28.31H207.12l-56.12,0h-.14l-.06-.13-35.87-80.5-10-22.59-2.63-6-.66-1.53-.22-.52s.09.16.25.5.39.86.7,1.52l2.69,5.94c2.34,5.21,5.77,12.83,10.14,22.53l36,80.42L151,456l56.12,0h59.42c-.11.14.27-.3-.23.31l-.06-.24a7.9,7.9,0,0,0-.27-1,9.1,9.1,0,0,0-.81-1.8,9.66,9.66,0,0,0-5.54-4.36,10.94,10.94,0,0,0-3.57-.43l-3.67,0-14.52-.11-28.19-.21-52-.4h-.15l-.06-.14-38.8-86.38-6.28-14-2.53-5.66a4.57,4.57,0,0,0-7.56-1.33,4.6,4.6,0,0,0-1.06,4.41A5.81,5.81,0,0,1,101.39,345.23Z" style="fill:#263238"></path><path d="M157.64,447.53a18.52,18.52,0,0,1-3.24,4.18,50.67,50.67,0,0,1-3.62,3.83,18.52,18.52,0,0,1,3.24-4.18A48.4,48.4,0,0,1,157.64,447.53Z" style="fill:#263238"></path><path d="M163,450.78s.11-.1.35-.11a1.46,1.46,0,0,1,.92.37,1.67,1.67,0,0,1,.58,1.39,1.67,1.67,0,0,1-3,.62,1.65,1.65,0,0,1,0-1.5,1.47,1.47,0,0,1,.69-.71c.22-.09.36-.07.36,0s-.48.21-.71.89a1.32,1.32,0,0,0,.08,1.11,1.22,1.22,0,0,0,2.12-.43,1.31,1.31,0,0,0-.36-1.06C163.52,450.78,163,450.86,163,450.78Z" style="fill:#263238"></path><path d="M168.3,450.78s.11-.1.35-.11a1.48,1.48,0,0,1,.92.37,1.66,1.66,0,0,1,.57,1.39,1.66,1.66,0,0,1-3,.62,1.65,1.65,0,0,1,0-1.5,1.44,1.44,0,0,1,.7-.71c.22-.09.36-.07.36,0s-.48.21-.72.89a1.33,1.33,0,0,0,.09,1.11,1.22,1.22,0,0,0,2.12-.43,1.34,1.34,0,0,0-.36-1.06C168.83,450.78,168.3,450.86,168.3,450.78Z" style="fill:#263238"></path></g><g id="freepik--Desk--inject-2"><rect x="20.91" y="455.51" width="456.19" height="12.39" style="fill:#263238"></rect></g></svg>