<svg xmlns="http://www.w3.org/2000/svg" viewBox="0 0 750 500"><g id="freepik--background-simple--inject-2"><path d="M583,132.86l-2.71-4.48C557.37,90.66,516,67.92,472.35,70.68A115,115,0,0,0,455.64,73c-39.67,8.5-74.19,38.5-88.5,76.92-8.42,22.6-10.77,48.61-26.74,66.55-20.78,23.34-56.06,24.08-87.08,23.11s-66.33-.14-87,23.29c-13,14.68-17.06,35.55-16,55.21,2.77,52,39,98.57,85.14,121.69s100.41,25.2,150.89,15c70.7-14.25,137.94-53.39,178.35-113.85S615.31,198.11,583,132.86Z" style="fill:#ebebeb"></path><circle cx="130.7" cy="137.01" r="45.41" style="fill:#ebebeb"></circle><circle cx="642.44" cy="180.13" r="22.7" transform="translate(420.8 809.45) rotate(-86.26)" style="fill:#ebebeb"></circle></g><g id="freepik--character-3--inject-2"><path d="M376.13,319.94s-35.53,4.21-48.67,14.71a45,45,0,0,0-5.77,5.62,60.22,60.22,0,0,0-14.29,34.15l-4.76,52.25.38,8.63a25.27,25.27,0,0,0,25.16,24.15l146.82,1s19.28-21.52,14.23-54.9c-1.19-7.85-3.09-34.77-10.53-51.34-3.93-8.76-9.95-19.58-25.84-23.8l-37.09-10.49Z" style="fill:#263238"></path><path d="M342.83,362.44a5.73,5.73,0,0,1-.3-1.17c-.16-.75-.41-1.84-.74-3.18a68.65,68.65,0,0,0-3.44-10.2,67.57,67.57,0,0,0-5.06-9.49c-.75-1.17-1.37-2.09-1.82-2.73a6.62,6.62,0,0,1-.64-1,5.21,5.21,0,0,1,.81.9c.49.6,1.16,1.5,1.95,2.64a56.73,56.73,0,0,1,5.24,9.5A57.4,57.4,0,0,1,342.15,358c.29,1.36.48,2.47.58,3.24A4.91,4.91,0,0,1,342.83,362.44Z" style="fill:#455a64"></path><path d="M349,422c-.15,0-1.72-11.4-3.51-25.51s-3.13-25.56-3-25.57,1.71,11.4,3.51,25.51S349.14,422,349,422Z" style="fill:#455a64"></path><path d="M342.5,366.93a11.31,11.31,0,0,1-2.5-1.06,45.41,45.41,0,0,1-10.69-7.53,10.62,10.62,0,0,1-1.84-2,20.31,20.31,0,0,1,2.08,1.73c1.27,1.08,3.05,2.53,5.13,4s4,2.65,5.49,3.47A18.38,18.38,0,0,1,342.5,366.93Z" style="fill:#455a64"></path><path d="M437.64,376.6a10.76,10.76,0,0,1,0-1.79,19.69,19.69,0,0,1,.14-2.09c.09-.81.15-1.74.35-2.75a32.23,32.23,0,0,1,.67-3.3c.25-1.19.65-2.42,1-3.72a46.58,46.58,0,0,1,8.65-15.36c.91-1,1.75-2,2.63-2.83a33.33,33.33,0,0,1,2.48-2.28c.76-.7,1.52-1.23,2.17-1.73a18.05,18.05,0,0,1,1.71-1.2,12.09,12.09,0,0,1,1.53-.92,11.61,11.61,0,0,1-1.41,1.08c-.47.33-1,.74-1.65,1.27s-1.37,1.07-2.11,1.77-1.59,1.44-2.41,2.31-1.68,1.83-2.57,2.84a48.59,48.59,0,0,0-8.56,15.21c-.41,1.28-.83,2.49-1.09,3.66s-.54,2.26-.73,3.26-.3,1.92-.42,2.73-.19,1.49-.23,2.07A13.12,13.12,0,0,1,437.64,376.6Z" style="fill:#455a64"></path><path d="M423,436.61a5.41,5.41,0,0,1-.11-1.84,5.55,5.55,0,0,1,2.63-4.3l0,0A45.38,45.38,0,0,1,440.54,420l-.15.21c.2-1.88.41-3.83.56-5.84a172.13,172.13,0,0,0,.3-22c-.13-2.81-.33-5.09-.44-6.66-.06-.74-.11-1.34-.15-1.81a2.82,2.82,0,0,1,0-.64,2.66,2.66,0,0,1,.12.63c.07.46.15,1.06.25,1.8.17,1.57.43,3.84.61,6.66a154.76,154.76,0,0,1-.15,22.07c-.15,2-.36,4-.57,5.86l0,.15-.14.06a46.49,46.49,0,0,0-15,10.23h0l0,0a5.31,5.31,0,0,0-1.95,2,5.46,5.46,0,0,0-.65,2C422.93,436,423.07,436.6,423,436.61Z" style="fill:#455a64"></path><path d="M464.9,432.38c-.09.05-.85-1.39-2.52-3.39a25.87,25.87,0,0,0-7.84-6.32,25.12,25.12,0,0,0-5.18-2,19.67,19.67,0,0,0-4.5-.59c-2.6,0-4.21.3-4.22.2a4.64,4.64,0,0,1,1.11-.27,20.46,20.46,0,0,1,3.11-.3,18.07,18.07,0,0,1,4.61.5,23.75,23.75,0,0,1,5.31,2,24.36,24.36,0,0,1,7.89,6.55,20.16,20.16,0,0,1,1.73,2.59A4.79,4.79,0,0,1,464.9,432.38Z" style="fill:#455a64"></path><path d="M464.18,418.71c0,.09-1.22-.47-3.25-1a24.72,24.72,0,0,0-3.6-.62,34.39,34.39,0,0,0-4.49-.12,40.79,40.79,0,0,0-8.06,1.23c-2,.53-3.25,1-3.28.89a3.24,3.24,0,0,1,.82-.4,22.39,22.39,0,0,1,2.36-.84,33.72,33.72,0,0,1,8.14-1.4,31.9,31.9,0,0,1,4.56.16,22.71,22.71,0,0,1,3.65.74,14,14,0,0,1,1.35.46,7.19,7.19,0,0,1,1,.42A3.13,3.13,0,0,1,464.18,418.71Z" style="fill:#455a64"></path><path d="M436.35,260.7c-2.93-12.44-8.16-25.15-18.48-32.71-9.18-6.73-22.58-9.29-33.94-8.45-5.59.42-11.83,3.21-16.62,6.13-6.56,4-9.15,11.77-12.15,18.85-6,14.19-4.57,33.08,0,38.2l59.39,28.94c10.17-5.72,21.18-13.42,23.55-24.83C439.69,279.05,438.17,268.43,436.35,260.7Z" style="fill:#FF725E"></path><path d="M413.86,238.63,376.76,229c-11.9-1.34-19.91,13.27-20.75,25.21-.92,13.26-1.53,29.5,0,39.41,3,19.93,18.28,24.66,18.28,24.66s0,17.32.11,23.23l17.31,52.72,24.61-52.72,3.79-95.71A7,7,0,0,0,413.86,238.63Z" style="fill:#ffbe9d"></path><path d="M362.64,270.26a2.56,2.56,0,0,0,2.45,2.59,2.44,2.44,0,0,0,2.64-2.28,2.55,2.55,0,0,0-2.44-2.6A2.45,2.45,0,0,0,362.64,270.26Z" style="fill:#263238"></path><path d="M359.48,262.66c.31.33,2.26-1.09,5-1.06s4.76,1.41,5.06,1.08c.14-.15-.17-.75-1.05-1.4a7,7,0,0,0-4-1.27,6.75,6.75,0,0,0-4,1.25C359.61,261.91,359.32,262.51,359.48,262.66Z" style="fill:#263238"></path><path d="M387.58,270.26a2.55,2.55,0,0,0,2.44,2.59,2.45,2.45,0,0,0,2.65-2.28,2.56,2.56,0,0,0-2.44-2.6A2.44,2.44,0,0,0,387.58,270.26Z" style="fill:#263238"></path><path d="M386.49,263.35c.31.34,2.26-1.08,5-1.05s4.76,1.41,5.06,1.08c.14-.15-.17-.75-1.05-1.4a7.06,7.06,0,0,0-4-1.28,6.75,6.75,0,0,0-4,1.26C386.62,262.6,386.33,263.2,386.49,263.35Z" style="fill:#263238"></path><path d="M376.37,283.67c0-.16-1.69-.47-4.45-.84-.71-.08-1.37-.22-1.48-.7a3.49,3.49,0,0,1,.48-2.08l2.11-5.33c2.93-7.58,5.06-13.83,4.76-13.94s-2.94,5.94-5.87,13.53c-.71,1.87-1.38,3.65-2,5.36a4,4,0,0,0-.39,2.75,1.75,1.75,0,0,0,1.15,1,4.25,4.25,0,0,0,1.19.18C374.63,283.8,376.36,283.82,376.37,283.67Z" style="fill:#263238"></path><path d="M374.22,318.41l.11,5c19.92,2,26.6-11.89,26.6-11.89A50.58,50.58,0,0,1,374.22,318.41Z" style="fill:#eb996e"></path><path d="M385.42,288.86a4.42,4.42,0,0,0-3.66-2,5.75,5.75,0,0,0-5.25,2.56,3.56,3.56,0,0,0-.25,2.57c.19.44,0,.23.38.53a10,10,0,0,0,4.09,2.57,4.31,4.31,0,0,0,4.56-1.64A4.38,4.38,0,0,0,385.42,288.86Z" style="fill:#eb996e"></path><path d="M384.45,285.62c-.45,0-.48,3-3,5.05s-5.74,1.76-5.77,2.17c0,.19.71.59,2.05.63a7.37,7.37,0,0,0,4.81-1.64,6.45,6.45,0,0,0,2.36-4.24C385,286.35,384.65,285.61,384.45,285.62Z" style="fill:#263238"></path><path d="M385.25,254.55c.27.75,3,.41,6.24.82s5.82,1.31,6.25.64c.2-.32-.25-1-1.3-1.75a10.91,10.91,0,0,0-9.51-1.12C385.74,253.61,385.14,254.19,385.25,254.55Z" style="fill:#FF725E"></path><path d="M360.54,253.17c.48.62,2.38,0,4.65,0s4.21.45,4.65-.2c.2-.31-.1-.94-.94-1.54a6.72,6.72,0,0,0-7.49.18C360.6,252.22,360.33,252.86,360.54,253.17Z" style="fill:#FF725E"></path><path d="M414.72,270c.27-.12,11.08-3.56,11,7.56s-11.24,8.72-11.26,8.4S414.72,270,414.72,270Z" style="fill:#ffbe9d"></path><path d="M417.89,281.79s.19.14.51.29a1.9,1.9,0,0,0,1.45,0c1.18-.42,2.18-2.27,2.26-4.27a6.51,6.51,0,0,0-.52-2.78,2.21,2.21,0,0,0-1.45-1.5,1,1,0,0,0-1.14.52c-.15.31-.09.53-.14.55s-.24-.19-.15-.65a1.22,1.22,0,0,1,.45-.69,1.46,1.46,0,0,1,1.07-.27,2.71,2.71,0,0,1,2,1.74,6.63,6.63,0,0,1,.64,3.1c-.09,2.24-1.26,4.33-2.87,4.78a2.13,2.13,0,0,1-1.77-.31C417.9,282.06,417.85,281.81,417.89,281.79Z" style="fill:#eb996e"></path><path d="M421.56,285.5c.05-.06.48.46.41,1.46a2.05,2.05,0,0,1-.78,1.56,2.32,2.32,0,0,1-2.13.15,2.24,2.24,0,0,1-1.48-1.54,2.36,2.36,0,0,1,.3-1.71c.55-.86,1.25-.94,1.25-.88s-.53.3-.9,1.07a2,2,0,0,0-.15,1.39,1.79,1.79,0,0,0,1.18,1.14,1.84,1.84,0,0,0,1.63-.05,1.78,1.78,0,0,0,.69-1.18A6.6,6.6,0,0,0,421.56,285.5Z" style="fill:#263238"></path><path d="M355.12,257.34c1.5-3.22,4.41-5.57,7.5-7.33s6.43-3,9.5-4.82a33.4,33.4,0,0,0,14.94-18.68c-5.47-2.83-12.28-2.5-17.8.23A27.2,27.2,0,0,0,357,240a42.71,42.71,0,0,0-3.39,18" style="fill:#FF725E"></path><path d="M417.27,235.66c-8.22-7.81-23.75-12.12-34.46-8.46,1.59,9.35,8.65,19.86,14.86,27s10,19.87,23.63,15.57c.93-.29,2,.56,2.85.06a3.42,3.42,0,0,0,1.31-2.06A31.86,31.86,0,0,0,417.27,235.66Z" style="fill:#FF725E"></path><path d="M355.74,270.85a4.14,4.14,0,0,1-1.95-.11,7.65,7.65,0,0,1-4.27-3.15,11.61,11.61,0,0,1-1.69-7.68,28.85,28.85,0,0,1,.78-4.61c.36-1.59.86-3.19,1.4-4.82a49.27,49.27,0,0,1,8.66-15.21,44.69,44.69,0,0,1,3.66-3.86l1.08-.95a2,2,0,0,1,.41-.31,13.14,13.14,0,0,1-1.34,1.41c-.85.92-2.12,2.21-3.5,4a51.34,51.34,0,0,0-8.43,15.14,48.64,48.64,0,0,0-1.4,4.75,28.61,28.61,0,0,0-.8,4.53,11.38,11.38,0,0,0,1.5,7.42,7.56,7.56,0,0,0,4,3.15A10.3,10.3,0,0,0,355.74,270.85Z" style="fill:#FF725E"></path><path d="M450,236.91c0-5.22-1.47-10.62-5-14.44-4.93-5.3-13.56-6.49-20-3.12s-10.28,10.8-9.85,18A22.39,22.39,0,0,0,426.33,255l4.59-.52c4.6,2.43,10.63.71,14.17-3.09S450,242.11,450,236.91Z" style="fill:#FF725E"></path><path d="M421.94,233.85s-.06.14-.23.37a10.65,10.65,0,0,1-.77,1,19.73,19.73,0,0,1-3.37,3.18,21.87,21.87,0,0,1-28.26-1.55,20,20,0,0,1-3-3.53c-.31-.45-.5-.83-.65-1.08s-.21-.39-.19-.4a30.88,30.88,0,0,0,4.1,4.74,22.62,22.62,0,0,0,5.64,3.73,21.18,21.18,0,0,0,16.14.88,22.77,22.77,0,0,0,6-3.08A30,30,0,0,0,421.94,233.85Z" style="fill:#fff"></path><path d="M427.28,249a2.47,2.47,0,0,1-.37.37,11.54,11.54,0,0,1-1.17,1,17.59,17.59,0,0,1-4.95,2.6,22.36,22.36,0,0,1-8.23,1.11,25.33,25.33,0,0,1-9.84-2.54,32,32,0,0,1-8.24-6,42.13,42.13,0,0,1-5.28-6.39,49.12,49.12,0,0,1-2.89-4.79c-.32-.58-.53-1-.69-1.36a2.85,2.85,0,0,1-.2-.49,2.29,2.29,0,0,1,.3.45l.76,1.3c.67,1.14,1.66,2.76,3,4.67a44.25,44.25,0,0,0,5.32,6.27,32.69,32.69,0,0,0,8.13,5.84,25.39,25.39,0,0,0,9.64,2.52,22.45,22.45,0,0,0,8.08-1,18.85,18.85,0,0,0,5-2.42C426.7,249.42,427.24,248.94,427.28,249Z" style="fill:#fff"></path><path d="M445.51,232s-.14.26-.47.68a13.11,13.11,0,0,1-1.57,1.63,17.86,17.86,0,0,1-2.7,2,20.71,20.71,0,0,1-3.72,1.76,21.69,21.69,0,0,1-4,.93,18.71,18.71,0,0,1-3.36.1,14.15,14.15,0,0,1-2.24-.31,2.52,2.52,0,0,1-.8-.24c0-.09,1.18.15,3.05.18A20.77,20.77,0,0,0,443.23,234C444.68,232.85,445.44,232,445.51,232Z" style="fill:#fff"></path><path d="M449.65,239a1.65,1.65,0,0,1,.14.9,4.15,4.15,0,0,1-.86,2.33,7.3,7.3,0,0,1-2.93,2.23,22,22,0,0,1-4.24,1.41,22.77,22.77,0,0,1-8.07.35,21.12,21.12,0,0,1-2.41-.49,2.7,2.7,0,0,1-.84-.32c0-.09,1.25.25,3.29.44a25.31,25.31,0,0,0,7.92-.49c3-.71,5.76-1.74,7-3.35a4.43,4.43,0,0,0,.95-2.13C449.67,239.31,449.61,239,449.65,239Z" style="fill:#fff"></path><path d="M424.52,442.18a1.84,1.84,0,0,1-.55.05c-.36,0-.9,0-1.58,0a36.18,36.18,0,0,1-5.8-.56,39,39,0,0,1-29.13-22.85,36.16,36.16,0,0,1-1.92-5.5c-.19-.66-.27-1.19-.35-1.54a3.76,3.76,0,0,1-.09-.55,17.43,17.43,0,0,1,.63,2,43.26,43.26,0,0,0,2.07,5.41,39.84,39.84,0,0,0,28.86,22.64,42.22,42.22,0,0,0,5.73.72C423.76,442.13,424.52,442.14,424.52,442.18Z" style="fill:#455a64"></path><path d="M377.7,439a2.24,2.24,0,0,1-.44-.24l-1.21-.78L371.66,435a127.32,127.32,0,0,0-15-8.76A58.21,58.21,0,0,0,340.25,421a47.21,47.21,0,0,0-5.23-.48,18.63,18.63,0,0,1-1.93-.08,1.65,1.65,0,0,1,.5-.06c.32,0,.81-.07,1.43-.06a36.52,36.52,0,0,1,5.28.32,54.8,54.8,0,0,1,16.62,5.15,112.73,112.73,0,0,1,14.95,8.93c1.83,1.26,3.29,2.31,4.3,3.05l1.15.86C377.58,438.82,377.71,438.93,377.7,439Z" style="fill:#455a64"></path><polygon points="427.98 436.36 359.71 439.81 365 459.92 455.98 460.34 427.98 436.36" style="fill:#ffbe9d"></polygon><path d="M362.88,439.65s-22.06-11-24.79-11.11c-2.09-.07-14.21,2-19.79,2.95a4,4,0,0,0-3.42,4.49,3.4,3.4,0,0,0,3.18,2.75,4.29,4.29,0,0,0-2.34,4.43c.44,3.17,4.36,3.25,4.36,3.25a5.28,5.28,0,0,0-.47.57,3.8,3.8,0,0,0,2.81,6l1.78.13s-2.18,1.33-1.82,3.49c.7,4.14,10.16,3.52,10.16,3.52l32.46-.23Z" style="fill:#ffbe9d"></path><path d="M319.7,426.25c.31,1.35,1.08,4.22,3.61,5.18L336.1,429s-10.09-1.85-11.7-3.27a11.2,11.2,0,0,0-2.11-1.52A1.84,1.84,0,0,0,319.7,426.25Z" style="fill:#ffbe9d"></path><path d="M330,429.77c0,.22-2.56.87-5.82,1.31s-5.88.71-5.92.47,2.55-.87,5.81-1.31S330,429.53,330,429.77Z" style="fill:#eb996e"></path><path d="M328.23,437.39c.06.22-2.15,1-5,1.29s-5.17.11-5.16-.11,2.28-.4,5.06-.73S328.17,437.16,328.23,437.39Z" style="fill:#eb996e"></path><path d="M334.63,435.47c.21.09.07.83-.58,1.41s-1.4.63-1.47.42.4-.59.91-1.05S334.42,435.37,334.63,435.47Z" style="fill:#eb996e"></path><path d="M330.89,445.32c0,.23-2.45.72-5.51,1.08s-5.57.47-5.61.24,2.43-.71,5.51-1.07S330.87,445.09,330.89,445.32Z" style="fill:#eb996e"></path><path d="M337.71,440.76c.1,0,.34.19.48.68a2.68,2.68,0,0,1-1.81,3.21c-.5.14-.82.05-.83-.06s1.05-.54,1.64-1.6S337.5,440.85,337.71,440.76Z" style="fill:#eb996e"></path><path d="M334,453c0,.23-2.24.48-5,.56s-5.05-.05-5.05-.28,2.24-.48,5-.56S334,452.78,334,453Z" style="fill:#eb996e"></path><path d="M340.61,447.86c.1,0,.3.22.36.73a3.09,3.09,0,0,1-.42,1.85c-.77,1.28-1.76,1.85-1.9,1.72s.53-1.06,1.16-2.13S340.4,447.93,340.61,447.86Z" style="fill:#eb996e"></path></g><g id="freepik--character-1--inject-2"><path d="M275.75,449c-4.48-2.13-19.43-8-19.43-8L249,391l-29.78,4.47s17.33,63.73,22,64.17,31.23,0,31.23,0l8.66-.13S278.89,450.48,275.75,449Z" style="fill:#9b6e65"></path><path d="M255,458.08a3.33,3.33,0,0,1-1.49.55,8.66,8.66,0,0,1-7.25-1.93,3.46,3.46,0,0,1-1-1.22c.07-.06.48.37,1.25.93a10.11,10.11,0,0,0,3.31,1.57,10.3,10.3,0,0,0,3.65.29A9.62,9.62,0,0,1,255,458.08Z" style="fill:#704c45"></path><path d="M272.22,459.49c-.07.05-.69-1-1.83-2.52a12.36,12.36,0,0,0-2.3-2.37,12.67,12.67,0,0,0-3.63-1.78,35.7,35.7,0,0,1-6.82-3.22,16.29,16.29,0,0,1-2.6-1.72,19.13,19.13,0,0,1,2.78,1.4,44.62,44.62,0,0,0,6.82,3.05,12.46,12.46,0,0,1,3.75,1.89,11.22,11.22,0,0,1,2.3,2.54,21,21,0,0,1,1.19,2A2.62,2.62,0,0,1,272.22,459.49Z" style="fill:#704c45"></path><path d="M185.14,225.9l-11,7.58s-13.7-.82-23.64,2.56c-5.51,1.88-12.19,4.15-19.43,11.48a54.41,54.41,0,0,0-13.83,24.06L103.93,382.45l-20.2,78.23H218.2v-99l12.87-45.41s-3.34-5.24-3.24-7.33,7.61-50.48,7.61-50.48l-15.33-18.34Z" style="fill:#FF725E"></path><path d="M233.64,256.16s7.61,3.55,9.47,16.84,15.34,115.86,15.34,115.86-14.89,3.44-28.48,5l-17.11,2.91-.43-68.58Z" style="fill:#FF725E"></path><g style="opacity:0.2"><path d="M131.37,457.56c22.86-27.4,26.45-67.14,49.6-94.3l-14.17,8c2.51-23.61,4.92-48.16-3-70.55A619.24,619.24,0,0,1,130.7,457.45"></path></g><path d="M168,258.3q-.78,63.43-5.82,126.71a52.56,52.56,0,0,1-2.16,9.67,7,7,0,0,1-7.74,4.83l-27.59-4.16c-4.8-.81-6.62-1.45-8.06-4.55a15.1,15.1,0,0,1-1.32-6.83c1.06-37.75-2.24-57.75,0-93.44" style="fill:#FF725E"></path><path d="M115.39,290.53s0,.25,0,.73-.05,1.22-.09,2.16c-.1,1.9-.23,4.69-.34,8.29s-.2,8-.22,13.13.08,10.94.26,17.38c.36,12.88,1,28.23.75,45.28,0,2.13-.09,4.28-.14,6.47a15.19,15.19,0,0,0,1.14,6.36,6.19,6.19,0,0,0,4.72,4.09,66.47,66.47,0,0,0,6.75,1.2l14,2.1,7.15,1.08c1.19.17,2.42.39,3.59.51a6.78,6.78,0,0,0,3.43-.68,6.85,6.85,0,0,0,2.63-2.32,11.15,11.15,0,0,0,1.3-3.31,54.12,54.12,0,0,0,1.56-7c.44-4.73.76-9.46,1.11-14.08.68-9.25,1.26-18.17,1.77-26.68,1-17,1.69-32.34,2.15-45.22s.72-23.3.88-30.51c.08-3.59.14-6.38.18-8.29q0-1.41.06-2.16c0-.49,0-.74,0-.74s0,.25,0,.74v2.16c0,1.91-.05,4.7-.09,8.3-.09,7.2-.29,17.63-.71,30.51s-1.07,28.22-2,45.24c-.5,8.51-1.07,17.44-1.74,26.69-.34,4.63-.66,9.32-1.11,14.11a56.67,56.67,0,0,1-1.57,7.1,11.68,11.68,0,0,1-1.37,3.45,7.17,7.17,0,0,1-2.83,2.49,7.27,7.27,0,0,1-3.69.74c-1.26-.13-2.43-.35-3.64-.52l-7.15-1.08-14-2.11a65,65,0,0,1-6.8-1.22,7.62,7.62,0,0,1-3.13-1.52,7.81,7.81,0,0,1-1.92-2.86A15.7,15.7,0,0,1,115.1,384q.08-3.27.15-6.46c.31-17-.33-32.37-.63-45.26-.16-6.44-.22-12.27-.19-17.39s.15-9.53.31-13.13.3-6.4.43-8.29l.15-2.16C115.36,290.78,115.39,290.53,115.39,290.53Z" style="fill:#263238"></path><path d="M218.2,399.24a1.57,1.57,0,0,1,0-.32c0-.24,0-.55,0-.93,0-.86.07-2.07.12-3.6.06-3.13.45-7.64,1.1-13.19.41-2.77.75-5.82,1.4-9,.3-1.62.57-3.3.94-5s.74-3.48,1.13-5.28c1.62-7.22,3.69-15.07,5.62-23.37,4-16.57,5.43-32,5.12-43.19l-.27-7.52c-.12-2.22-.34-4.12-.46-5.67s-.22-2.73-.29-3.59c0-.39-.05-.69-.06-.93s0-.32,0-.32a1.24,1.24,0,0,1,.06.31l.12.93c.09.85.22,2.05.39,3.58s.39,3.45.54,5.67.22,4.75.35,7.54c.41,11.17-.95,26.71-5,43.31-1.93,8.31-4,16.16-5.66,23.35-.4,1.8-.78,3.56-1.16,5.27s-.64,3.38-1,5c-.66,3.22-1,6.26-1.45,9-.7,5.54-1.14,10-1.26,13.16-.1,1.53-.17,2.73-.23,3.59,0,.39-.05.69-.07.93A1.64,1.64,0,0,1,218.2,399.24Z" style="fill:#263238"></path><path d="M217.25,331.89a3,3,0,0,1-.39.46l-1.19,1.24c-1,1.08-2.57,2.59-4.5,4.43-3.85,3.68-9.36,8.59-15.76,13.62s-12.47,9.22-17,12.09c-2.25,1.44-4.08,2.58-5.37,3.33l-1.49.85a2.11,2.11,0,0,1-.53.27,2.88,2.88,0,0,1,.48-.35l1.43-.95c1.26-.8,3.06-2,5.28-3.45,4.43-2.95,10.45-7.18,16.84-12.2s11.92-9.87,15.83-13.48c2-1.8,3.53-3.27,4.61-4.3l1.25-1.17A2.25,2.25,0,0,1,217.25,331.89Z" style="fill:#263238"></path><g style="opacity:0.2"><path d="M233.28,310.44c-3.28,30.45-14.12,63.72-15.08,82.93,4.3-13.69,9.74-26.77,13.74-40.55S237.74,324.08,233.28,310.44Z"></path></g><path d="M253.1,133.35A7.81,7.81,0,0,0,257,121.59c-1-1.54-2.61-2.68-3.55-4.29a25,25,0,0,1-1.58-4.34,15.79,15.79,0,0,0-10.66-9.53,20.37,20.37,0,0,0-14.42,1.69c-1.76.89-3.48,2-5.44,2.18s-3.74-.6-5.61-1a13,13,0,0,0-14.57,17.06,11.15,11.15,0,0,0-.13,22c3.16.57,6.39-.25,9.52-1a169.79,169.79,0,0,1,38.71-4.32" style="fill:#263238"></path><path d="M187.44,201.89a39.88,39.88,0,0,1-5.18-26.73c1.49-9.14,5.21-20.19,12.26-26.2-3.07-5-.5-9.43,3.32-13.91s9.51-7,15.2-8.48a63.32,63.32,0,0,1,26.1-1.38c7.07,1.11,16.18,4.16,16.12,9.4-.07,5.47-4,7.14-4,7.14a35.34,35.34,0,0,1,11.48,10.42c7.08,10.14,8.8,19.31,5.74,28.53s-6.57,16.19-13.44,21.06" style="fill:#FF725E"></path><path d="M247.25,211.74a8.93,8.93,0,0,1,4-1.45l-.26-.07a5,5,0,0,1,.77.05,3.5,3.5,0,0,1,2.6,1h0a6.53,6.53,0,0,1,2.76,3.84,7.72,7.72,0,0,1-2.72,7.55,5.91,5.91,0,0,1-10.09-4.47A7.35,7.35,0,0,1,247.25,211.74Z" style="fill:#455a64"></path><path d="M184.63,233.25l11.12-73.36a7.2,7.2,0,0,1,7.79-5.85L243,152.31c12.26,1.21,17.18,17.63,15.45,29.82-1.92,13.55-4.8,30-8.45,39.67-7.33,19.4-23.24,18.78-23.24,18.78s-3,13.89-4.57,21.17L214,290.53Z" style="fill:#9b6e65"></path><path d="M250.65,198a2.63,2.63,0,0,1-3,2.09,2.52,2.52,0,0,1-2.17-2.87,2.63,2.63,0,0,1,3-2.09A2.52,2.52,0,0,1,250.65,198Z" style="fill:#263238"></path><path d="M253.09,189.91c-.39.27-2-1.57-4.81-2.14s-5.08.4-5.31,0c-.12-.18.33-.72,1.35-1.18a7.24,7.24,0,0,1,4.34-.42,7,7,0,0,1,3.74,2.13C253.12,189.13,253.28,189.79,253.09,189.91Z" style="fill:#263238"></path><path d="M224.6,193.23a2.62,2.62,0,0,1-3,2.08,2.51,2.51,0,0,1-2.17-2.87,2.62,2.62,0,0,1,3-2.08A2.52,2.52,0,0,1,224.6,193.23Z" style="fill:#263238"></path><path d="M225.77,184.8c-.39.27-2.05-1.57-4.81-2.14s-5.09.4-5.32,0c-.12-.18.33-.72,1.35-1.18a7.18,7.18,0,0,1,4.34-.41,6.9,6.9,0,0,1,3.75,2.12C225.79,184,226,184.68,225.77,184.8Z" style="fill:#263238"></path><path d="M231.57,207.41c0-.16,1.8-.1,4.67.12.72.08,1.42.07,1.64-.38a3.74,3.74,0,0,0,0-2.2c-.31-1.85-.64-3.78-1-5.81-1.32-8.27-2.12-15-1.79-15.06s1.68,6.61,3,14.88c.3,2,.6,4,.88,5.83a4.19,4.19,0,0,1-.21,2.85,1.8,1.8,0,0,1-1.37.79,4.75,4.75,0,0,1-1.24-.08C233.29,207.92,231.55,207.57,231.57,207.41Z" style="fill:#263238"></path><path d="M226.71,240.58a52.09,52.09,0,0,1-25.39-12.73S205,243,225.46,245.26Z" style="fill:#704c45"></path><path d="M229.8,213.91a7,7,0,0,0-5-4.13,4.54,4.54,0,0,0-4.06,1.23,4.39,4.39,0,0,0-.86,4.49,4.33,4.33,0,0,0,4.16,2.54,10.2,10.2,0,0,0,4.6-1.68,3.1,3.1,0,0,0,1.09-.85,1.44,1.44,0,0,0,.18-1.43" style="fill:#704c45"></path><path d="M223,207.65c.45.06-.16,3.07,2,5.73s5.4,3,5.33,3.42c0,.2-.83.44-2.19.2a7.67,7.67,0,0,1-4.49-2.69,6.65,6.65,0,0,1-1.46-4.77C222.34,208.26,222.82,207.59,223,207.65Z" style="fill:#263238"></path><path d="M228.43,177.52c-.43.7-3.12-.23-6.45-.51s-6.14.06-6.43-.7c-.12-.36.48-1,1.69-1.49a10.84,10.84,0,0,1,5-.67,10.66,10.66,0,0,1,4.8,1.6C228.15,176.47,228.62,177.19,228.43,177.52Z" style="fill:#263238"></path><path d="M253.73,181.69c-.62.53-2.39-.52-4.68-1s-4.32-.45-4.63-1.2c-.13-.36.31-.93,1.28-1.35a6.93,6.93,0,0,1,7.5,1.8C253.88,180.72,254,181.42,253.73,181.69Z" style="fill:#263238"></path><path d="M244.45,158.6s-18.74-4.3-37.51,13.88c-12.37,12-18.1,29.13-18.1,29.13l-.12-35,8.71-14.07L212,148l24.95,3.89,8.32,6.6" style="fill:#FF725E"></path><path d="M207.24,152.46c31.49-.81,53.31,14.23,52.68,38.65l9.4-14.15-11.58-22.09-16.09-8.09-35.46-2.12Z" style="fill:#FF725E"></path><path d="M184.73,198.45a9.58,9.58,0,0,1,4.27-1.56l-.28-.08a5.78,5.78,0,0,1,.83.05,3.77,3.77,0,0,1,2.8,1h0a7.06,7.06,0,0,1,3,4.15,8.35,8.35,0,0,1-2.93,8.12,6.36,6.36,0,0,1-10.86-4.82A7.9,7.9,0,0,1,184.73,198.45Z" style="fill:#455a64"></path><path d="M194.1,189.27a3,3,0,0,1-1.23-.77,7.7,7.7,0,0,1-2.16-3.34,7.8,7.8,0,0,1,.33-5.88c.48-1,1.1-2,1.51-3a3.38,3.38,0,0,0-.16-3.15,11.8,11.8,0,0,0-2.53-2.45,8.72,8.72,0,0,1-2.28-2.7,9.73,9.73,0,0,1-1-5.82,8.47,8.47,0,0,1,1.4-3.71,3.16,3.16,0,0,1,1-1.06,11.23,11.23,0,0,0-1.8,4.84,9.3,9.3,0,0,0,1.11,5.37,7.92,7.92,0,0,0,2.13,2.45,12,12,0,0,1,2.71,2.64,4.16,4.16,0,0,1,.21,3.88c-.46,1.16-1.11,2.12-1.57,3.07a7.38,7.38,0,0,0-.47,5.37,8.13,8.13,0,0,0,1.83,3.27C193.71,188.92,194.14,189.21,194.1,189.27Z" style="fill:#fff"></path><path d="M197.59,147.39a13,13,0,0,0-1.9,4.49,9.71,9.71,0,0,0,.49,5.15c.67,1.86,2.3,3.37,3.88,5.18a8.69,8.69,0,0,1,1.82,3.1,6,6,0,0,1-.07,3.38c-.61,2-1.6,3.61-1.79,5.08a4.71,4.71,0,0,0,.54,3.36c.45.69.95.86.9.94s-.13,0-.35-.1a2.39,2.39,0,0,1-.81-.64,4.82,4.82,0,0,1-.86-3.64c.14-1.65,1.12-3.31,1.63-5.21a5.25,5.25,0,0,0,0-2.94,8,8,0,0,0-1.67-2.79c-1.49-1.72-3.26-3.37-4-5.45a9.85,9.85,0,0,1-.35-5.54,9,9,0,0,1,1.52-3.4C197.16,147.65,197.56,147.36,197.59,147.39Z" style="fill:#fff"></path><path d="M215.61,166.14s-.29.26-.85,0a1.63,1.63,0,0,1-.75-.73,2.12,2.12,0,0,1-.18-1.38c.16-1,1-2,1.23-3s-.43-2.15-1.48-3a8.74,8.74,0,0,1-2.74-3,7.11,7.11,0,0,1-.7-3.31,4.29,4.29,0,0,1,.94-2.91,16.63,16.63,0,0,0-.35,2.9,7.27,7.27,0,0,0,.8,3,8.47,8.47,0,0,0,2.59,2.76,5.78,5.78,0,0,1,1.43,1.68,2.85,2.85,0,0,1,.25,2.15c-.42,1.31-1.21,2.1-1.39,2.93a1.54,1.54,0,0,0,.51,1.71C215.3,166.14,215.6,166.07,215.61,166.14Z" style="fill:#fff"></path><path d="M224.81,151.06s.21,0,.39.25a1.43,1.43,0,0,1,.11,1.24,7.71,7.71,0,0,1-.82,1.45,3.4,3.4,0,0,0-.37,1.69,7.24,7.24,0,0,0,1.06,3.19c.45.79.72,1.3.62,1.37s-.52-.31-1.11-1.05a6,6,0,0,1-1.41-3.49,3.72,3.72,0,0,1,.55-2.11c.38-.56.76-.91.93-1.27A1.61,1.61,0,0,0,224.81,151.06Z" style="fill:#fff"></path><path d="M257.1,146.53s-.12.31-.5.74-1,1-1.58,1.73a4.17,4.17,0,0,0-.91,3.07,17.14,17.14,0,0,1,.06,4.39,7.66,7.66,0,0,1-2.14,3.95,7.34,7.34,0,0,1-3.16,1.82c-2.05.55-3.34.08-3.3,0a17.73,17.73,0,0,0,3.12-.57,7.16,7.16,0,0,0,4.66-5.38,19.11,19.11,0,0,0,0-4.21,4.69,4.69,0,0,1,1.23-3.46,14.48,14.48,0,0,1,1.81-1.59C256.81,146.68,257.06,146.49,257.1,146.53Z" style="fill:#fff"></path><path d="M268.37,163.59c.09.15-1,.4-1.71,1.8-.34.73-.91,1.56-1.39,2.47a19.08,19.08,0,0,1-1.8,3.06,6.62,6.62,0,0,1-6,2.28,3.73,3.73,0,0,1-2.45-1.08c.07-.14.95.41,2.51.5a6.45,6.45,0,0,0,5.29-2.23,23,23,0,0,0,1.78-2.91c.56-1,1.14-1.68,1.56-2.39a3.26,3.26,0,0,1,1.49-1.35C268.09,163.56,268.35,163.54,268.37,163.59Z" style="fill:#fff"></path><path d="M266.79,184.22c.09.06-.08.52-.64,1.05a4.39,4.39,0,0,1-5.61.27c-.61-.48-.82-.92-.74-1s1.5,1.13,3.55,1S266.63,184.05,266.79,184.22Z" style="fill:#fff"></path><path d="M239.93,139.73c.06.14-1,.43-2.08,1.57a6.29,6.29,0,0,0-1.72,5.56c.25,1.14.74,2.44.4,3.66a4.81,4.81,0,0,1-1.7,2.54,4.92,4.92,0,0,1-2.41,1.28c-.07-.13.87-.6,2-1.71a4.64,4.64,0,0,0,1.35-2.28c.24-1-.18-2-.47-3.32a6.22,6.22,0,0,1,.36-3.71,6.59,6.59,0,0,1,1.78-2.45A3.67,3.67,0,0,1,239.93,139.73Z" style="fill:#fff"></path><path d="M218,150.14c-.2-.14.8-1.79,1.29-4s.33-4.18.58-4.22.8,1.95.24,4.4S218.14,150.29,218,150.14Z" style="fill:#fff"></path><path d="M204.48,145.25c0-.06.22-.18.47-.54a3,3,0,0,0,.54-1.76c0-1.62-1.14-3.7-2-6.22A9.82,9.82,0,0,1,203,133a5.53,5.53,0,0,1,1.12-3,3.35,3.35,0,0,1,1.75-1.21c.51-.11.79,0,.78,0s-.27.08-.68.26a3.42,3.42,0,0,0-1.37,1.25c-1,1.32-1.13,3.72-.32,6.12s2,4.61,1.78,6.5a3,3,0,0,1-.88,2C204.8,145.29,204.48,145.29,204.48,145.25Z" style="fill:#fff"></path><path d="M225.47,140.3c0-.05.18-.24.56-.53s1-.69,1.21-1.36a4.31,4.31,0,0,0-.85-2.58c-.57-.94-1.39-1.86-2.19-3a6,6,0,0,1-1.45-3.63,5.38,5.38,0,0,1,1.39-2.88c1.18-1.33,2.07-1.93,2.14-1.86a16.9,16.9,0,0,1-1.67,2.22,5.22,5.22,0,0,0-1.09,2.57,5.63,5.63,0,0,0,1.36,3.09c1.51,2,3.33,4.06,2.93,6.19a2.91,2.91,0,0,1-1.61,1.47C225.76,140.26,225.5,140.35,225.47,140.3Z" style="fill:#fff"></path><path d="M244.74,141c-.05-.12.92-.32,1.46-1.58a3.88,3.88,0,0,0,.21-2.27,17.88,17.88,0,0,0-.93-2.87,7.93,7.93,0,0,1-.63-3.17,4,4,0,0,1,1.12-2.46c1-1.19,2.16-1.21,2.13-1.06a4.86,4.86,0,0,0-1.67,1.43,3.74,3.74,0,0,0-.81,2.12,8.45,8.45,0,0,0,.64,2.86,14.14,14.14,0,0,1,.91,3,4.16,4.16,0,0,1-.44,2.66,2.72,2.72,0,0,1-1.33,1.24C245,141.05,244.74,141,244.74,141Z" style="fill:#fff"></path><path d="M251.3,141.73a12.48,12.48,0,0,1-2.31-.39c-1.47-.33-3.61-.7-6.26-1.09a69.62,69.62,0,0,0-20.83.31,104.14,104.14,0,0,0-20.08,5.84l-5.91,2.36a11.94,11.94,0,0,1-2.2.79,12,12,0,0,1,2.07-1.09c1.35-.66,3.34-1.57,5.82-2.61a93.7,93.7,0,0,1,20.16-6.12,64.87,64.87,0,0,1,21.06-.07,60.42,60.42,0,0,1,6.24,1.36A12.83,12.83,0,0,1,251.3,141.73Z" style="fill:#263238"></path><path d="M200.08,150.11l.21,0,.61-.12,1-.2,1.36-.22a37.81,37.81,0,0,1,8.73-.22,52.66,52.66,0,0,1,12.64,2.77c2.32.78,4.69,1.76,7.13,2.83s4.93,2.26,7.39,3.64c10,5.35,16.73,13.8,19.1,20.77a29.49,29.49,0,0,1,1.62,8.56c.06,1,.05,1.83,0,2.38v.62a.85.85,0,0,0,0,.21.58.58,0,0,0,0-.21c0-.17,0-.37,0-.62,0-.54.08-1.35.06-2.39a28.71,28.71,0,0,0-1.49-8.66c-2.31-7.09-9.13-15.68-19.19-21.08-2.48-1.38-5-2.57-7.43-3.65s-4.84-2-7.18-2.82A52.07,52.07,0,0,0,212,149a36.11,36.11,0,0,0-8.78.38l-1.36.26-1,.25-.6.16C200.14,150.08,200.08,150.1,200.08,150.11Z" style="fill:#263238"></path><path d="M239.26,158.53a5.35,5.35,0,0,0-.66-.11,16.79,16.79,0,0,0-1.91-.15,26.64,26.64,0,0,0-7,.78,48.47,48.47,0,0,0-20.18,11.07,74,74,0,0,0-8.63,9.4,88,88,0,0,0-6.06,8.48,48,48,0,0,0-3.33,6.19c-.32.76-.56,1.36-.7,1.77a2.9,2.9,0,0,0-.19.64,4.62,4.62,0,0,0,.28-.6q.25-.62.78-1.74a56,56,0,0,1,3.45-6.08,96.28,96.28,0,0,1,6.11-8.38,76.45,76.45,0,0,1,8.61-9.32,49.42,49.42,0,0,1,19.94-11.1,28.81,28.81,0,0,1,6.9-.93c.82,0,1.47,0,1.9.07A3.46,3.46,0,0,0,239.26,158.53Z" style="fill:#263238"></path><path d="M69.22,457.2s6.12-2,10-3.14c2.17-.63,11.15-4.6,16.61-5.63,4.56-.86,17.19-7.31,19.15-8.63s9.7-44.45,9.7-44.45l29.2,4.4s-15.57,41.6-16.55,45.57-4.68,14.24-4.68,14.24H69.22Z" style="fill:#9b6e65"></path><path d="M120.35,458.6c0-.09,1-.17,2.37-.77a9.47,9.47,0,0,0,5.88-9.41c-.09-1.53-.44-2.44-.35-2.47s.15.2.3.62a7.94,7.94,0,0,1,.42,1.82,9.26,9.26,0,0,1-6.11,9.79,7.91,7.91,0,0,1-1.82.42A1.57,1.57,0,0,1,120.35,458.6Z" style="fill:#704c45"></path><path d="M116.52,456.47a3.68,3.68,0,0,1-.59.26,11.46,11.46,0,0,1-1.8.47,41.72,41.72,0,0,1-6.84.15,16,16,0,0,0-4.6.55c-1.61.48-3.2,1.36-5,2a16.54,16.54,0,0,1-12.29-.94l-.62-.3.66-.18.59-.17a22.16,22.16,0,0,0,5.88-2.67,38.35,38.35,0,0,0,4.73-3.8,24.2,24.2,0,0,1,9.07-5,54.37,54.37,0,0,1,6.79-1.62l1.88-.31a3.15,3.15,0,0,1,.65-.07,2.43,2.43,0,0,1-.64.17l-1.85.41a63,63,0,0,0-6.72,1.77,24.29,24.29,0,0,0-8.86,5,37.69,37.69,0,0,1-4.77,3.87,22.84,22.84,0,0,1-6,2.74l-.6.17,0-.48a16.24,16.24,0,0,0,11.93.94c1.79-.57,3.4-1.45,5.06-1.93a16.4,16.4,0,0,1,4.74-.51,46.35,46.35,0,0,0,6.8,0C115.68,456.78,116.5,456.41,116.52,456.47Z" style="fill:#704c45"></path></g><g id="freepik--Device--inject-2"><path d="M401.48,453.21h60.44a3,3,0,0,1,3,3h0a3,3,0,0,1-3,3H401.48a3,3,0,0,1-3-3h0A3,3,0,0,1,401.48,453.21Z" style="fill:#e0e0e0"></path><path d="M411.12,459.24H296.8L285.51,382a6.59,6.59,0,0,1,6.51-7.57l100.38.81c3.25,0,6.36,1.57,6.85,4.79Z" style="fill:#e0e0e0"></path><path d="M352.75,415.92a6.29,6.29,0,1,1-6.28-6.28A6.28,6.28,0,0,1,352.75,415.92Z" style="fill:#fff"></path><path d="M406.15,458.57c-.14,0-3.33-18.61-7.13-41.6s-6.77-41.67-6.62-41.7,3.33,18.61,7.13,41.61S406.29,458.54,406.15,458.57Z" style="fill:#263238"></path></g><g id="freepik--Desk--inject-2"><rect x="28.24" y="459.24" width="673.51" height="16.56" style="fill:#455a64"></rect><path d="M170.92,459.49l-.21.18c-.16.11-.38.28-.71.49a15.06,15.06,0,0,1-3.38,1.53,30,30,0,0,1-6.51,1.23,83.72,83.72,0,0,1-9.07.22c-3.38-.06-7-.35-10.93-.71s-8-.76-12.44-.83c-8.83-.18-18.42,1.12-28,3s-18.59,4.13-27.18,5.47c-4.29.67-8.45,1.15-12.39,1.38a94,94,0,0,1-11,0A59.76,59.76,0,0,1,34,468.77a27.13,27.13,0,0,1-4.67-2,1.43,1.43,0,0,1,.33.11l.89.38c.79.33,2,.8,3.61,1.31a61.67,61.67,0,0,0,15,2.55A92.1,92.1,0,0,0,60,471.11c3.9-.24,8-.73,12.26-1.41,8.52-1.35,17.46-3.55,27.11-5.49s19.34-3.24,28.3-3c4.48.09,8.65.52,12.53.88s7.51.68,10.84.76a83.22,83.22,0,0,0,9-.15,30.72,30.72,0,0,0,6.42-1.13A18.22,18.22,0,0,0,170.92,459.49Z" style="fill:#263238"></path><path d="M97.25,459.74a19.58,19.58,0,0,1-2,1,59,59,0,0,1-6.15,2.22,82.69,82.69,0,0,1-10,2.3,93.69,93.69,0,0,1-13.13,1.15,84.36,84.36,0,0,1-23.47-2.72,16,16,0,0,1-5.67-2.6,4.41,4.41,0,0,1-.92-1c-.14-.25-.2-.38-.18-.38A12.27,12.27,0,0,0,37,461a17.3,17.3,0,0,0,5.67,2.42,88.54,88.54,0,0,0,23.19,2.55,96.46,96.46,0,0,0,12.94-1.1,90.21,90.21,0,0,0,10-2.18c2.72-.79,4.82-1.54,6.23-2.08A18.82,18.82,0,0,1,97.25,459.74Z" style="fill:#263238"></path><path d="M255.28,470.23s.37.07,1,.22,1.72.32,3.11.46a31.4,31.4,0,0,0,11.78-1l0,.21a42.77,42.77,0,0,0-14.62-3.2,46.52,46.52,0,0,0-19,2.78c-.71.29-1.4.64-1.47,1.07s.49.83,1.26,1.07a14,14,0,0,0,2.61.52l2.87.36c3.86.48,7.84,1,12,1.3a126,126,0,0,0,12.71.49c2.17,0,4.36-.15,6.53-.35,1.09-.11,2.18-.22,3.25-.38a28.31,28.31,0,0,0,3.15-.58,12.22,12.22,0,0,0,4.08-1.65c1-.73,1.35-1.7.78-2.55a6.69,6.69,0,0,0-3.2-2,37,37,0,0,0-4.47-1.23,103.79,103.79,0,0,0-18.71-2.18A133.62,133.62,0,0,0,227,466.32a108.24,108.24,0,0,0-19.23,5.91c-2.05.89-3.63,1.6-4.64,2.12l-1.19.56-.42.19a1.78,1.78,0,0,1,.36-.22l1.14-.6c1-.55,2.53-1.28,4.56-2.2A102.88,102.88,0,0,1,226.77,466,132.21,132.21,0,0,1,259,463.11a104.24,104.24,0,0,1,19,2.19,36.5,36.5,0,0,1,4.62,1.26,7.24,7.24,0,0,1,3.53,2.24c.69,1,.28,2.17-.9,3a13,13,0,0,1-4.4,1.8,29.62,29.62,0,0,1-3.28.6c-1.09.16-2.2.28-3.31.39-2.22.2-4.44.33-6.64.35a125.6,125.6,0,0,1-12.86-.5c-4.15-.35-8.15-.83-12-1.32l-2.87-.38a14.52,14.52,0,0,1-2.82-.56,3.84,3.84,0,0,1-1.18-.59.92.92,0,0,1-.43-.89c.14-.66,1-1.06,1.78-1.36a47.46,47.46,0,0,1,19.49-2.79,42.64,42.64,0,0,1,14.84,3.35l.27.12-.3.09a31.48,31.48,0,0,1-12.05.94A21.07,21.07,0,0,1,255.28,470.23Z" style="fill:#263238"></path><path d="M342,459.92a2.27,2.27,0,0,1,.66.83,3.72,3.72,0,0,1,.45,2.49c-.22,2.13-2.55,4.93-6.56,7.22a35.11,35.11,0,0,1-6.13,2.93,38.9,38.9,0,0,1-5.91,1.61c-1.77.34-3.26.51-4.28.61a10.35,10.35,0,0,1-1.62.07c0-.08,2.26-.26,5.7-1A41.66,41.66,0,0,0,330,473a36.13,36.13,0,0,0,5.94-2.89c3.93-2.24,6.22-4.9,6.58-6.94A5.3,5.3,0,0,0,342,459.92Z" style="fill:#263238"></path><path d="M462.9,474.93c-.08,0-.95-.7-3.1-1.69a31.5,31.5,0,0,0-10.53-2.67,41,41,0,0,0-8,.13,60.64,60.64,0,0,1-9.4.49,26.94,26.94,0,0,1-9.36-2.58,42,42,0,0,0-9.4-3.14,60.15,60.15,0,0,0-20.88-.18,69.75,69.75,0,0,0-15.45,4.4,87.11,87.11,0,0,0-9,4.3l-2.29,1.27a5.63,5.63,0,0,1-.82.42,3.83,3.83,0,0,1,.7-.49c.48-.31,1.21-.76,2.18-1.33a75.82,75.82,0,0,1,8.84-4.44A69,69,0,0,1,392,464.87a61.23,61.23,0,0,1,21.37.16,42.72,42.72,0,0,1,9.62,3.21,25.77,25.77,0,0,0,8.95,2.52,61,61,0,0,0,9.2-.44,42.17,42.17,0,0,1,8.23-.08A30.69,30.69,0,0,1,460,473.1,11.67,11.67,0,0,1,462.9,474.93Z" style="fill:#263238"></path><path d="M570.88,459.4a5.62,5.62,0,0,1-.74.57c-.52.35-1.21.91-2.3,1.54a65.54,65.54,0,0,1-9.83,4.91A107.35,107.35,0,0,1,541,471.73c-3.41.78-7.08,1.48-11,2a98.41,98.41,0,0,1-12.3.89,103.3,103.3,0,0,1-23.35-2.73,105.46,105.46,0,0,1-17-5.41,67.46,67.46,0,0,1-9.77-5c-1.08-.63-1.78-1.18-2.3-1.54a5.21,5.21,0,0,1-.74-.56,6.62,6.62,0,0,1,.87.5c.56.34,1.3.87,2.41,1.48a74.76,74.76,0,0,0,9.88,4.81,107.52,107.52,0,0,0,16.9,5.28,103.25,103.25,0,0,0,23.06,2.66,98.19,98.19,0,0,0,12.13-.87c3.87-.48,7.51-1.16,10.9-1.92a111.75,111.75,0,0,0,17-5.19,72.79,72.79,0,0,0,9.94-4.77c1.12-.6,1.84-1.14,2.41-1.47A7.27,7.27,0,0,1,570.88,459.4Z" style="fill:#263238"></path><path d="M555.45,459.24s-.18.11-.57.26-1,.4-1.75.67c-1.53.56-3.81,1.32-6.74,2.14a104.46,104.46,0,0,1-10.66,2.44,79.78,79.78,0,0,1-13.91,1.34,93.79,93.79,0,0,1-24.69-3.51,70.27,70.27,0,0,1-6.69-2.21c-.76-.28-1.31-.53-1.7-.7a2.21,2.21,0,0,1-.55-.27s.88.29,2.43.82,3.83,1.28,6.77,2.07a98.5,98.5,0,0,0,24.43,3.33,81.18,81.18,0,0,0,13.68-1.28c4.12-.69,7.69-1.54,10.63-2.32s5.26-1.49,6.84-2S555.42,459.21,555.45,459.24Z" style="fill:#263238"></path><path d="M673.24,460.94H671.9l-3.8-.08-2.73-.07H662.1c-2.35,0-5,0-8,0l-4.62.08-5,.19c-3.46.1-7.08.36-10.92.57-7.61.54-15.86,1.31-24.25,2.36s-16,2.37-22.72,3.65c-3.27.69-6.48,1.3-9.24,2l-4.07.95-3.6.95c-2.34.59-4.27,1.19-6,1.7l-2.42.72-1.91.64-2.69.88a7.12,7.12,0,0,1-1,.29,3.73,3.73,0,0,1,.8-.35l2.5-.94,1.83-.68,2.35-.74c1.69-.54,3.59-1.16,5.91-1.77l3.57-1,4.06-1c2.75-.7,6-1.33,9.24-2,6.75-1.31,14.45-2.61,22.89-3.71s16.81-1.83,24.51-2.35c3.89-.2,7.55-.45,11-.53l5-.17,4.67-.05c3-.06,5.66,0,8,0l3.29,0,2.74.11,3.79.17A10.59,10.59,0,0,1,673.24,460.94Z" style="fill:#263238"></path><path d="M475,474.6a25.6,25.6,0,0,0-3.71-2.48,45.82,45.82,0,0,0-13.57-4.26c-3.16-.56-6.73-1-10.59-1.32s-8-.61-12.39-1-8.86-1.1-13.44-1.89S412,462,407,461.66A103.51,103.51,0,0,0,379,463.83c-4.12.85-7.88,1.87-11.37,2.87s-6.67,2-9.57,2.92c-5.8,1.84-10.41,3.41-13.6,4.5l-3.65,1.26-1,.32-.34.1a1.31,1.31,0,0,1,.29-.14l.91-.36,3.58-1.33c3.13-1.14,7.71-2.76,13.48-4.64,2.88-.94,6.07-1.95,9.55-3s7.26-2.07,11.42-2.93a103.31,103.31,0,0,1,28.31-2.23,146,146,0,0,1,14.48,2c4.58.8,9,1.5,13.35,1.91s8.48.72,12.36,1.08,7.47.8,10.66,1.38A44.39,44.39,0,0,1,471.52,472,12.36,12.36,0,0,1,475,474.6Z" style="fill:#263238"></path><path d="M323.3,459.49a2.16,2.16,0,0,1-.1,1.06,8.66,8.66,0,0,1-1.32,2.79c-1.55,2.26-4.74,5.32-10.35,7.45a102.15,102.15,0,0,1-15.34,4c-2.06.38-3.73.66-4.9.83a13.18,13.18,0,0,1-1.84.21,14.3,14.3,0,0,1,1.74-.39l4.8-1a115.8,115.8,0,0,0,15.08-4.05,22.83,22.83,0,0,0,10.27-7.18A16.07,16.07,0,0,0,323.3,459.49Z" style="fill:#263238"></path><path d="M166.94,475.8a12.21,12.21,0,0,1,1.64-.88c1.09-.56,2.72-1.31,4.8-2.21a173.62,173.62,0,0,1,17.17-6.22c7-2.17,13.54-3.9,18.29-5.12,2.37-.61,4.3-1.1,5.64-1.42a17.41,17.41,0,0,1,2.12-.46,14.86,14.86,0,0,1-2,.62l-5.53,1.56c-4.68,1.3-11.16,3.07-18.14,5.22s-13,4.36-17.22,6.08c-2.11.86-3.8,1.58-4.94,2.09A13.06,13.06,0,0,1,166.94,475.8Z" style="fill:#263238"></path><path d="M198.67,460.17c0,.05-1.55-.12-4.34,0a50.36,50.36,0,0,0-11.24,1.92,128.55,128.55,0,0,0-14.59,5.51,93.17,93.17,0,0,1-8.79,3.2,76,76,0,0,1-10.52,2.28,172,172,0,0,1-21.51,1.45c-6.66.11-12.64,0-17.65.15s-9,.38-11.81.65c-1.38.14-2.45.26-3.17.36a8.08,8.08,0,0,1-1.11.11s.36-.08,1.07-.2,1.77-.28,3.15-.45c2.75-.33,6.81-.66,11.84-.8s11-.12,17.65-.25A174.19,174.19,0,0,0,149,472.63a78,78,0,0,0,10.35-2.23c3.16-.95,6-2.06,8.72-3.15a122.76,122.76,0,0,1,14.78-5.45A49.12,49.12,0,0,1,194.31,460c1.41,0,2.51,0,3.25.06A7.88,7.88,0,0,1,198.67,460.17Z" style="fill:#263238"></path></g></svg>