<?xml version="1.0" encoding="UTF-8" standalone="no"?>
<!-- Created with Inkscape (http://www.inkscape.org/) -->

<svg
   width="32mm"
   height="29.111284mm"
   viewBox="0 0 32 29.111284"
   version="1.1"
   id="svg93672"
   inkscape:version="1.3.2 (091e20e, 2023-11-25, custom)"
   sodipodi:docname="favicon.svg"
   xmlns:inkscape="http://www.inkscape.org/namespaces/inkscape"
   xmlns:sodipodi="http://sodipodi.sourceforge.net/DTD/sodipodi-0.dtd"
   xmlns="http://www.w3.org/2000/svg"
   xmlns:svg="http://www.w3.org/2000/svg">
  <sodipodi:namedview
     id="namedview93674"
     pagecolor="#ffffff"
     bordercolor="#000000"
     borderopacity="0.25"
     inkscape:showpageshadow="2"
     inkscape:pageopacity="0.0"
     inkscape:pagecheckerboard="0"
     inkscape:deskcolor="#d1d1d1"
     inkscape:document-units="mm"
     showgrid="false"
     inkscape:zoom="2.8079686"
     inkscape:cx="151.35497"
     inkscape:cy="1.2464527"
     inkscape:window-width="1920"
     inkscape:window-height="974"
     inkscape:window-x="-11"
     inkscape:window-y="-11"
     inkscape:window-maximized="1"
     inkscape:current-layer="layer1" />
  <defs
     id="defs93669" />
  <g
     inkscape:label="Layer 1"
     inkscape:groupmode="layer"
     id="layer1"
     transform="translate(-60.269364,-19.263079)">
    <rect
       style="fill:#ffffff;fill-opacity:1;stroke:none;stroke-width:0.355736;stroke-linecap:round;stroke-linejoin:round;stroke-dasharray:none;stroke-opacity:1;stop-color:#000000"
       id="rect37992-9-5-0-0-5-3-2-5-7-2"
       width="15.413824"
       height="17.730513"
       x="62.108498"
       y="29.286274"
       ry="0.57242823" />
    <path
       style="display:inline;fill:#4a8123;fill-opacity:1;stroke-width:0.0681759"
       d="m 61.950443,47.035385 c -0.73255,-0.287227 -1.236641,-0.851909 -1.535252,-1.719882 -0.127148,-0.369446 -0.135057,-0.580341 -0.135057,-3.586119 0,-2.509451 -0.03804,-3.193576 0.02891,-3.193535 0.162056,0 2.216262,0.113656 2.672155,0.59433 0.284975,0.300396 0.618832,0.689523 0.714892,1.144189 0.08004,0.379016 0.153328,0.609968 0.198392,2.249714 0.04213,1.531747 0.07417,1.928347 0.190755,2.362566 0.258523,0.962753 0.735073,1.655216 1.402515,2.038012 l 0.348718,0.200006 -2.590681,-0.0045 c -0.663829,-0.0027 -1.170921,-0.03593 -1.295344,-0.08473 z m 6.1074,0.06515 c 0.01562,-0.01399 0.503955,-0.154571 1.085154,-0.312411 2.181561,-0.592474 3.902797,-1.503243 4.522788,-1.894628 0.282656,-0.178435 0.714347,-0.700555 0.935782,-1.131855 0.06743,-0.13124 0.125852,-0.897945 0.359356,-1.566115 0.2335,-0.668171 0.477435,-1.273316 0.542063,-1.344755 0.0647,-0.07144 0.251437,-0.194684 0.41499,-0.273864 0.403804,-0.195494 0.966461,-0.835589 1.273866,-1.449255 1.24523,-2.485938 1.31068,-6.260556 0.148553,-8.568425 -0.648418,-1.287713 -1.58836,-2.073535 -2.967762,-2.481158 l -0.576767,-0.17044 2.915268,-0.0036 2.655655,-0.0036 v 8.710918 8.710919 c -0.0041,0.793289 -0.562794,1.335673 -1.207669,1.641858 l -0.340879,0.160564 -5.584693,6.84e-4 c -3.071666,6.84e-4 -4.191318,-0.01078 -4.175705,-0.02477 z M 60.280954,34.56427 c -0.0076,-4.140436 0.0021,-4.160493 0.373465,-4.890923 0.253071,-0.498189 0.985552,-1.213224 1.492304,-1.456816 0.22048,-0.105973 0.588629,-0.219847 0.81811,-0.253056 0.60131,-0.08701 7.804297,-0.06701 7.40533,0.02071 -0.168801,0.0371 -0.62899,0.13745 -1.022638,0.223011 -0.393714,0.08556 -1.007296,0.26699 -1.363516,0.403171 -0.356289,0.136182 -0.847086,0.323358 -1.090816,0.415934 -1.312179,0.498421 -2.339932,1.586603 -2.76787,2.93052 -0.147126,0.462013 -0.183735,0.753881 -0.239638,1.908924 -0.09811,2.029384 -0.26657,2.852315 -0.7348,3.590667 -0.342176,0.523434 -0.818179,0.781854 -1.24162,1.031882 -0.469936,0.280237 -1.619723,0.783593 -1.619723,0.783593 z"
       id="path295-0-2-2-8-83-7-4-5-1-1-3-4-1-7"
       sodipodi:nodetypes="csscssssscccccsssssssssccccccccccssssssscsscccs"
       inkscape:label="path295-0" />
    <path
       style="display:inline;fill:#b57fdd;fill-opacity:1;stroke-width:0.0681759"
       d="m 61.939673,47.035385 c -0.732551,-0.287227 -1.236644,-0.851909 -1.535253,-1.719882 -0.127149,-0.369446 -0.135056,-0.580341 -0.135056,-3.586119 0,-2.509451 0.01827,-3.193576 0.08522,-3.193535 0.162123,0 0.904148,0.39527 1.11604,0.59433 0.301745,0.283501 0.543632,0.670747 0.714822,1.144189 0.131648,0.364311 0.153329,0.609968 0.198393,2.249714 0.04213,1.531747 0.07418,1.928347 0.190754,2.362566 0.258524,0.962753 0.735073,1.655216 1.402515,2.038012 l 0.348652,0.200006 -1.090813,-0.0045 c -0.663762,-0.0027 -1.170854,-0.03593 -1.295274,-0.08473 z m 4.607528,0.06515 c 0.01562,-0.01399 0.503889,-0.154571 1.085088,-0.312411 2.181628,-0.592474 5.058241,-1.3155 5.678233,-1.706884 0.282656,-0.178436 0.751911,-1.000945 0.973346,-1.432245 0.06736,-0.131241 0.313539,-0.785299 0.547044,-1.453469 0.2335,-0.668171 0.477435,-1.273316 0.542066,-1.344755 0.0647,-0.07144 0.251433,-0.194684 0.414986,-0.273864 0.403804,-0.195494 0.966461,-0.835589 1.273867,-1.449255 1.24523,-2.485938 1.310679,-6.260556 0.148553,-8.568425 -0.648419,-1.287713 -1.588361,-2.073522 -2.967762,-2.481158 l -0.576768,-0.17044 2.915336,-0.0036 2.785599,-0.0036 v 8.710918 8.710919 c 0.01,0.975643 -0.802773,1.772232 -1.562389,1.802822 l -0.11617,-6.84e-4 -5.584693,6.84e-4 c -3.071597,6.84e-4 -5.571948,-0.01078 -5.556336,-0.02477 z m -6.27702,-12.53626 c 7.86e-4,-4.140443 0.0021,-4.160493 0.373468,-4.890923 0.253068,-0.498189 0.985551,-1.213224 1.4923,-1.456816 0.220483,-0.105973 0.588632,-0.219847 0.818111,-0.253056 0.601312,-0.08701 6.304429,-0.06701 5.905394,0.02071 -0.168734,0.0371 -0.628922,0.13745 -1.022638,0.223011 -0.393716,0.08556 -1.007299,0.26699 -1.363515,0.403171 -0.35622,0.136182 -0.847086,0.323358 -1.090816,0.415934 -1.312112,0.498421 -2.339863,1.586603 -2.767803,2.93052 -0.147123,0.462013 -0.183734,0.753881 -0.239638,1.908924 -0.09817,2.029384 -0.266568,2.852315 -0.7348,3.590667 -0.239978,0.37841 -0.566883,0.63698 -1.02598,0.811415 l -0.3449,0.131055 z"
       id="path295-7-5-0-6-9-7-9-3-0-5-6-4-5"
       sodipodi:nodetypes="csscssssscccccsssssssssccccccccccssssssscsssscs" />
    <path
       style="fill:#5a2381;fill-opacity:1;stroke-width:0.0681759"
       d="m 72.544157,48.36298 c 0,-0.01902 0.106557,-0.480165 0.236842,-1.024753 0.834132,-3.621878 1.147535,-13.243546 0.700506,-16.188703 l -0.0542,-0.255249 -5.468046,-0.01746 -5.468114,-0.01745 0.02378,-0.204528 c 0.04084,-0.351024 0.47464,-1.706367 0.752184,-2.350131 0.727165,-1.686706 1.763779,-2.954926 2.871431,-3.512912 2.638885,-1.329375 8.477193,-1.408534 12.344742,-0.167379 0.910899,0.292319 2.072275,0.876852 2.520598,1.268651 1.362633,1.190753 2.648154,3.489644 3.859572,6.902064 0.633353,2.767627 2.098524,9.013722 1.466669,11.780974 -1.011798,0.954469 -2.332637,1.623882 -3.798214,1.924976 -0.26248,0.05392 -0.983439,0.148608 -1.602134,0.21041 -2.071115,0.206873 -4.418274,0.63906 -6.851677,1.26162 -0.712435,0.182273 -1.349061,0.352337 -1.414646,0.377928 -0.06566,0.02559 -0.119309,0.03096 -0.119309,0.01194 z"
       id="path295-8-15-6-7-1-5-0-6-6-4-4-6-0-6"
       sodipodi:nodetypes="scccccsssscccsssss" />
    <path
       style="color:#000000;fill:#ff822c;fill-opacity:1;stroke-width:0.0681759;stroke-linecap:round;stroke-linejoin:round;-inkscape-stroke:none"
       d="m 80.537163,34.618879 a 0.74993457,0.74993457 0 0 0 -0.780544,0.718117 0.74993457,0.74993457 0 0 0 0.717959,0.780539 l 7.626083,0.317618 a 0.74993457,0.74993457 0 0 0 0.780412,-0.718097 0.74993457,0.74993457 0 0 0 -0.717963,-0.780409 z"
       id="path15924-7-9-9-1-9-9-1-0-1-2-0-5-5-0" />
    <path
       id="path2404-3-4-2-8-0-0-8-2-2-8-1-2-1"
       style="fill:#ff822c;fill-opacity:1;stroke-width:0.983398;stroke-linecap:round;stroke-linejoin:round;stop-color:#000000"
       d="m 81.768418,33.762713 a 3.1594227,3.1594227 0 0 1 -0.856629,4.385215 3.1594227,3.1594227 0 0 1 -4.385206,-0.856616 3.1594227,3.1594227 0 0 1 0.856628,-4.385209 3.1594227,3.1594227 0 0 1 4.385207,0.85661 z" />
    <path
       style="color:#000000;fill:#ff822c;fill-opacity:1;stroke-width:0.0681759;stroke-linecap:round;stroke-linejoin:round;-inkscape-stroke:none"
       d="m 80.278026,36.425533 a 0.6817587,0.6817587 0 0 0 -0.484048,0.194929 0.6817587,0.6817587 0 0 0 -0.0094,0.964095 l 5.343896,5.449699 a 0.6817587,0.6817587 0 0 0 0.964145,0.0094 0.6817587,0.6817587 0 0 0 0.0094,-0.964095 l -5.343964,-5.449698 a 0.6817587,0.6817587 0 0 0 -0.480028,-0.204364 z"
       id="path15924-7-9-9-1-2-8-1-9-7-4-7-8-3-8-5"
       inkscape:transform-center-x="14.968455"
       inkscape:transform-center-y="-2.2451082" />
    <path
       id="path2404-3-4-2-2-2-1-1-2-1-6-5-1-7-4"
       style="fill:#ff822c;fill-opacity:1;stroke-width:0.691215;stroke-linecap:round;stroke-linejoin:round;stop-color:#000000"
       d="m 86.207693,41.5892 a 2.2207068,2.2207068 0 0 1 2.737262,1.53967 2.2207068,2.2207068 0 0 1 -1.539685,2.737241 2.2207068,2.2207068 0 0 1 -2.737261,-1.539671 2.2207068,2.2207068 0 0 1 1.539684,-2.73724 z"
       inkscape:transform-center-x="0.36739286"
       inkscape:transform-center-y="12.478322" />
    <path
       style="color:#000000;fill:#ff822c;fill-opacity:1;stroke:none;stroke-width:1.09338;stroke-linecap:round;stroke-linejoin:round;stroke-dasharray:none"
       d="m 91.750251,33.826314 a 3.0455245,3.0455245 0 0 1 -0.825676,4.227129 3.0455245,3.0455245 0 0 1 -4.227175,-0.825732 3.0455245,3.0455245 0 0 1 0.825744,-4.22713 3.0455245,3.0455245 0 0 1 4.227107,0.825733 z"
       id="path47726-07-8-2-5-6-1-9-7-6-6" />
    <path
       style="color:#000000;fill:#ff822c;fill-opacity:1;stroke-width:0.0681759;stroke-linecap:round;stroke-linejoin:round;-inkscape-stroke:none"
       d="m 85.366264,24.113441 a 0.71761919,0.71761919 0 0 0 -0.962233,0.322751 l -5.342739,10.73845 a 0.71761919,0.71761919 0 0 0 0.322745,0.962071 0.71761919,0.71761919 0 0 0 0.962233,-0.322752 l 5.342739,-10.738449 a 0.71761919,0.71761919 0 0 0 -0.322745,-0.962071 z"
       id="path15924-0-2-7-83-3-7-8-1-7-8-4-8-7" />
    <path
       id="path2404-0-9-5-5-2-2-6-4-4-6-8-0-3-6-8"
       style="fill:#ff822c;fill-opacity:1;stroke:none;stroke-width:1.63622;stroke-linecap:round;stroke-linejoin:round;stroke-opacity:1"
       d="m 90.717661,23.278519 a 5.071383,5.071383 0 0 1 -3.904297,6.016179 5.071383,5.071383 0 0 1 -6.016178,-3.904289 5.071383,5.071383 0 0 1 3.904296,-6.016179 5.071383,5.071383 0 0 1 6.016179,3.904289 z" />
  </g>
</svg>
