<?xml version="1.0" encoding="UTF-8" standalone="no"?>
<!-- Created with Inkscape (http://www.inkscape.org/) -->

<svg
   width="159.94768mm"
   height="48.542133mm"
   viewBox="0 0 159.94768 48.542133"
   version="1.1"
   id="svg93374"
   inkscape:version="1.2.2 (732a01da63, 2022-12-09)"
   sodipodi:docname="logo.svg"
   xmlns:inkscape="http://www.inkscape.org/namespaces/inkscape"
   xmlns:sodipodi="http://sodipodi.sourceforge.net/DTD/sodipodi-0.dtd"
   xmlns="http://www.w3.org/2000/svg"
   xmlns:svg="http://www.w3.org/2000/svg">
  <sodipodi:namedview
     id="namedview93376"
     pagecolor="#ffffff"
     bordercolor="#000000"
     borderopacity="0.25"
     inkscape:showpageshadow="2"
     inkscape:pageopacity="0.0"
     inkscape:pagecheckerboard="0"
     inkscape:deskcolor="#d1d1d1"
     inkscape:document-units="mm"
     showgrid="false"
     inkscape:zoom="1.4039843"
     inkscape:cx="219.01955"
     inkscape:cy="117.52268"
     inkscape:window-width="1920"
     inkscape:window-height="986"
     inkscape:window-x="-11"
     inkscape:window-y="-11"
     inkscape:window-maximized="1"
     inkscape:current-layer="layer1" />
  <defs
     id="defs93371" />
  <g
     inkscape:label="Layer 1"
     inkscape:groupmode="layer"
     id="layer1"
     transform="translate(-7.9339858,-21.945153)">
    <g
       aria-label="stelpur &lt;forrita&gt;"
       id="text89143-1-5-4-9-7-8-9"
       style="font-size:210.52px;font-family:'Arial Rounded MT Bold';-inkscape-font-specification:'Arial Rounded MT Bold, ';letter-spacing:-13.3806px;fill:#ff822c;stroke-width:8.02831;stroke-linecap:round;stroke-linejoin:round;stop-color:#000000"
       transform="matrix(0.10895625,0,0,0.10895625,-904.64632,-270.68287)">
      <path
         d="m 8984.6264,3095.2414 -65.5738,-55.2609 65.5738,-55.1636 15.1773,15.3719 -48.2561,39.5971 48.2561,40.0836 z"
         style="font-weight:bold;font-family:Consolas;-inkscape-font-specification:'Consolas Bold';stroke-width:7.59855"
         id="path91536-6-6" />
      <path
         d="m 9065.6527,3024.6086 v 48.4506 h 28.4088 q 7.1995,0 10.2155,2.8215 3.1132,2.7241 3.1132,7.1994 0,4.3781 -3.1132,7.1995 -3.016,2.7242 -10.2155,2.7242 h -60.2228 q -7.1994,0 -10.3127,-2.7242 -3.0161,-2.8214 -3.0161,-7.2968 0,-4.378 3.0161,-7.1021 3.1133,-2.8215 10.3127,-2.8215 h 11.8695 v -48.4506 h -9.5345 q -7.1995,0 -10.3128,-2.7241 -3.016,-2.8215 -3.016,-7.2968 0,-4.378 3.016,-7.1021 3.1133,-2.8215 10.3128,-2.8215 h 9.5345 v -7.5886 q 0,-13.0369 9.729,-21.5985 9.8264,-8.6589 28.4088,-8.6589 8.2697,0 19.0689,1.5566 10.8965,1.4595 13.9125,4.1836 3.1133,2.7241 3.1133,7.0048 0,4.5726 -2.7241,7.4913 -2.7241,2.8215 -6.7131,2.8215 -1.8484,0 -5.5455,-0.6809 -12.3559,-2.4323 -21.8904,-2.4323 -9.9235,0 -13.7179,3.0159 -3.697,2.9188 -3.697,7.2969 v 7.5886 h 30.7438 q 7.1994,0 10.2155,2.8215 3.1133,2.7241 3.1133,7.1993 0,4.3781 -3.1133,7.1996 -3.0161,2.7241 -10.2155,2.7241 z"
         style="font-weight:bold;font-family:'Courier New';-inkscape-font-specification:'Courier New Bold';text-align:center;text-anchor:middle;stroke-width:7.59855"
         id="path91533-4-5" />
      <path
         d="m 9224.5114,3050.4879 q 0,11.4802 -6.4213,22.2794 -6.3238,10.702 -18.9715,17.1231 -12.5505,6.3239 -26.2684,6.3239 -13.6207,0 -26.0739,-6.2265 -12.4532,-6.3239 -18.9716,-17.1232 -6.5184,-10.7992 -6.5184,-22.5713 0,-11.9668 6.6156,-23.447 6.6158,-11.5776 18.9718,-18.1933 12.4531,-6.6158 25.9765,-6.6158 13.6206,0 26.1711,6.8104 12.6477,6.7131 19.0688,18.1932 6.4213,11.3831 6.4213,23.4471 z m -19.9446,0.097 q 0,-9.6317 -6.9076,-17.7068 -9.4371,-10.8966 -24.809,-10.8966 -13.5234,0 -22.5715,8.6589 -9.048,8.6589 -9.048,20.0418 0,9.34 9.1453,17.5124 9.1453,8.0751 22.4742,8.0751 13.426,0 22.5713,-8.0751 9.1453,-8.1724 9.1453,-17.6097 z"
         style="font-weight:bold;font-family:'Courier New';-inkscape-font-specification:'Courier New Bold';text-align:center;text-anchor:middle;stroke-width:7.59855"
         id="path91530-2-4" />
      <path
         d="m 9275.4749,3004.6641 v 12.4532 q 12.5504,-9.0481 19.75,-12.0641 7.2968,-3.016 13.6206,-3.016 9.729,0 18.8744,7.1995 6.2265,4.8646 6.2265,9.9236 0,4.2808 -3.016,7.2968 -2.9188,2.9188 -7.1022,2.9188 -3.6971,0 -7.7832,-3.6972 -4.0862,-3.697 -7.2968,-3.697 -4.1834,0 -12.5505,5.2537 -8.2696,5.2538 -20.7228,15.7611 v 30.0627 h 28.4088 q 7.1995,0 10.2154,2.8215 3.1133,2.7241 3.1133,7.1994 0,4.3781 -3.1133,7.1995 -3.0159,2.7242 -10.2154,2.7242 h -60.2227 q -7.1996,0 -10.3128,-2.7242 -3.0161,-2.8214 -3.0161,-7.2968 0,-4.378 3.0161,-7.1021 3.1132,-2.8215 10.3128,-2.8215 h 11.8694 v -48.4506 h -7.1995 q -7.1996,0 -10.3129,-2.7241 -3.0158,-2.8215 -3.0158,-7.2968 0,-4.378 3.0158,-7.1021 3.1133,-2.8215 10.3129,-2.8215 z"
         style="font-weight:bold;font-family:'Courier New';-inkscape-font-specification:'Courier New Bold';text-align:center;text-anchor:middle;stroke-width:7.59855"
         id="path91527-1-8" />
      <path
         d="m 9382.3805,3004.6641 v 12.4532 q 12.5505,-9.0481 19.7499,-12.0641 7.2967,-3.016 13.6207,-3.016 9.7291,0 18.8743,7.1995 6.2267,4.8646 6.2267,9.9236 0,4.2808 -3.0161,7.2968 -2.9187,2.9188 -7.1022,2.9188 -3.697,0 -7.7832,-3.6972 -4.0862,-3.697 -7.2968,-3.697 -4.1835,0 -12.5505,5.2537 -8.2697,5.2538 -20.7228,15.7611 v 30.0627 h 28.4087 q 7.1996,0 10.2156,2.8215 3.1133,2.7241 3.1133,7.1994 0,4.3781 -3.1133,7.1995 -3.016,2.7242 -10.2156,2.7242 h -60.2227 q -7.1995,0 -10.3127,-2.7242 -3.016,-2.8214 -3.016,-7.2968 0,-4.378 3.016,-7.1021 3.1132,-2.8215 10.3127,-2.8215 h 11.8694 v -48.4506 h -7.1994 q -7.1995,0 -10.3128,-2.7241 -3.0161,-2.8215 -3.0161,-7.2968 0,-4.378 3.0161,-7.1021 3.1133,-2.8215 10.3128,-2.8215 z"
         style="font-weight:bold;font-family:'Courier New';-inkscape-font-specification:'Courier New Bold';text-align:center;text-anchor:middle;stroke-width:7.59855"
         id="path91524-2-9" />
      <path
         d="m 9500.5717,2966.8181 v 21.1121 h -23.7388 v -21.1121 z m 2.7241,37.846 v 68.3951 h 23.9335 q 7.1995,0 10.2156,2.8215 3.1133,2.7241 3.1133,7.1994 0,4.3781 -3.1133,7.1995 -3.0161,2.7242 -10.2156,2.7242 h -67.8114 q -7.1996,0 -10.3128,-2.7242 -3.016,-2.8214 -3.016,-7.2968 0,-4.378 3.016,-7.1021 3.1132,-2.8215 10.3128,-2.8215 h 23.9334 v -48.4506 h -16.0529 q -7.1021,0 -10.2154,-2.7241 -3.1134,-2.8215 -3.1134,-7.2968 0,-4.378 3.016,-7.1021 3.1133,-2.8215 10.3128,-2.8215 z"
         style="font-weight:bold;font-family:'Courier New';-inkscape-font-specification:'Courier New Bold';text-align:center;text-anchor:middle;stroke-width:7.59855"
         id="path91521-3-1" />
      <path
         d="m 9576.2461,3024.6086 v 39.9863 q 0,6.4212 2.6268,8.4643 4.0862,3.2107 14.5935,3.2107 15.2746,0 28.2143,-6.5185 4.9618,-2.5296 7.7832,-2.5296 3.8917,0 6.7131,2.9187 2.9186,2.9187 2.9186,7.1022 0,3.8916 -3.1131,6.7131 -4.7673,4.5726 -18.8745,8.4642 -14.0098,3.7943 -23.6416,3.7943 -18.5823,0 -27.9222,-7.9778 -9.2427,-8.0751 -9.2427,-19.7499 v -43.878 h -7.1995 q -7.1994,0 -10.3127,-2.7241 -3.0161,-2.8215 -3.0161,-7.2968 0,-4.378 3.0161,-7.1021 3.1133,-2.8215 10.3127,-2.8215 h 7.1995 v -17.9987 q 0,-7.1995 2.7241,-10.2156 2.8215,-3.1133 7.2968,-3.1133 4.3781,0 7.1023,3.1133 2.8214,3.0161 2.8214,10.2156 v 17.9987 h 36.8731 q 7.1994,0 10.2155,2.8215 3.1133,2.7241 3.1133,7.1993 0,4.3781 -3.1133,7.1996 -3.0161,2.7241 -10.2155,2.7241 z"
         style="font-weight:bold;font-family:'Courier New';-inkscape-font-specification:'Courier New Bold';text-align:center;text-anchor:middle;stroke-width:7.59855"
         id="path91518-0-2" />
      <path
         d="m 9714.8614,3093.0038 v -4.67 q -7.4914,3.9889 -16.5394,5.9347 -9.048,2.0431 -16.4421,2.0431 -16.0529,0 -26.0738,-8.4642 -10.021,-8.5616 -10.021,-18.8743 0,-12.5506 12.7452,-23.2524 12.8423,-10.7993 35.4136,-10.7993 9.0481,0 20.9175,1.9458 V 3032.1 q 0,-4.4754 -3.8917,-7.2968 -3.7942,-2.8215 -14.5935,-2.8215 -8.8535,0 -22.9606,3.5025 -5.2536,1.2648 -8.1723,1.2648 -3.9889,0 -6.8104,-2.8214 -2.7241,-2.9187 -2.7241,-7.3941 0,-2.5295 0.9729,-4.3781 0.9729,-1.8485 2.7241,-2.9187 1.7512,-1.1675 7.2968,-2.7241 7.3941,-2.0431 15.0801,-3.2105 7.6859,-1.2649 13.9125,-1.2649 18.5824,0 28.7979,8.0751 10.3128,7.9779 10.3128,21.8904 v 41.0565 h 3.4051 q 7.1996,0 10.2155,2.8215 3.1133,2.7241 3.1133,7.1994 0,4.3781 -3.1133,7.1995 -3.0159,2.7242 -10.2155,2.7242 z m 0,-35.7056 q -11.9668,-2.335 -22.0849,-2.335 -12.1613,0 -20.9175,5.9348 -5.4482,3.7942 -5.4482,7.6859 0,2.8213 2.6267,4.5726 4.8647,3.2106 13.3288,3.2106 7.1995,0 16.2476,-2.8214 9.1453,-2.8214 16.2475,-7.686 z"
         style="font-weight:bold;font-family:'Courier New';-inkscape-font-specification:'Courier New Bold';text-align:center;text-anchor:middle;stroke-width:7.59855"
         id="path91515-0-8" />
      <path
         d="m 9778.0835,2984.8169 65.5738,55.1636 -65.5738,55.2609 -15.0799,-15.3719 48.1586,-39.6944 -48.1586,-39.9863 z"
         style="font-weight:bold;font-family:Consolas;-inkscape-font-specification:'Consolas Bold';stroke-width:7.59855"
         id="path91512-4-3" />
    </g>
    <g
       aria-label="stelpur"
       id="text89143-1-5-4-3-1"
       style="font-size:54.4545px;font-family:'Arial Rounded MT Bold';-inkscape-font-specification:'Arial Rounded MT Bold, ';letter-spacing:-7.47847px;fill:#ff822c;stroke-width:2.07666;stroke-linecap:round;stroke-linejoin:round;stop-color:#000000"
       transform="matrix(0.57175901,0,0,0.57175901,3.3752309,9.3733354)">
      <path
         d="m 130.15293,41.909559 q 0,-0.771084 0.31907,-1.116743 0.31907,-0.345658 0.79767,-0.345658 0.5052,0 0.82427,0.345658 0.31906,0.345659 0.31906,1.169921 v 3.828832 q 0,0.797673 -0.31906,1.143332 -0.31907,0.345658 -0.82427,0.345658 -0.45201,0 -0.77108,-0.29248 -0.29248,-0.29248 -0.34566,-0.957208 -0.15953,-1.595346 -1.64852,-2.632322 -2.18031,-1.48899 -5.76984,-1.48899 -3.74907,0 -5.82302,1.515579 -1.56875,1.143332 -1.56875,2.552555 0,1.595347 1.86123,2.658911 1.27628,0.744495 4.83922,1.143332 4.6531,0.505193 6.46116,1.143331 2.57914,0.930619 3.82883,2.579144 1.27627,1.648525 1.27627,3.562941 0,2.845035 -2.73867,5.07852 -2.73868,2.206896 -8.02992,2.206896 -5.29123,0 -8.66805,-2.6855 0,0.90403 -0.10635,1.169921 -0.10636,0.265891 -0.39884,0.452015 -0.26589,0.186124 -0.61155,0.186124 -0.4786,0 -0.79767,-0.345659 -0.31907,-0.345658 -0.31907,-1.143332 v -4.599916 q 0,-0.797673 0.29248,-1.143331 0.31907,-0.345659 0.82426,-0.345659 0.47861,0 0.79768,0.345659 0.34565,0.319069 0.34565,0.87744 0,1.223099 0.61155,2.047362 0.93062,1.276277 2.95139,2.127129 2.04737,0.824262 4.99876,0.824262 4.36061,0 6.48774,-1.621936 2.12713,-1.621935 2.12713,-3.429995 0,-2.073951 -2.15372,-3.323639 -2.18031,-1.249688 -6.3548,-1.675114 -4.1479,-0.425426 -5.95596,-1.116742 -1.80806,-0.691317 -2.81844,-2.073951 -1.01039,-1.382634 -1.01039,-2.97798 0,-2.871624 2.81845,-4.546738 2.81844,-1.701703 6.72704,-1.701703 4.62651,0 7.52472,2.260074 z"
         style="font-family:'Courier New';-inkscape-font-specification:'Courier New';text-align:center;text-anchor:middle"
         id="path93596" />
      <path
         d="m 143.38738,40.447158 h 12.12463 q 0.79767,0 1.14333,0.319069 0.34566,0.31907 0.34566,0.824263 0,0.478604 -0.34566,0.797673 -0.34566,0.319069 -1.14333,0.319069 h -12.12463 v 14.863313 q 0,1.941005 1.54217,3.243872 1.56875,1.302866 4.57332,1.302866 2.26008,0 4.8924,-0.664728 2.63232,-0.691317 4.09472,-1.542168 0.53178,-0.345659 0.87744,-0.345659 0.42543,0 0.7445,0.345659 0.31907,0.319069 0.31907,0.771084 0,0.398837 -0.34566,0.744495 -0.85085,0.877441 -4.1479,1.914416 -3.27046,1.010386 -6.27503,1.010386 -3.9086,0 -6.22185,-1.834648 -2.31326,-1.834649 -2.31326,-4.945575 V 42.707232 h -4.12131 q -0.79767,0 -1.14333,-0.319069 -0.34566,-0.319069 -0.34566,-0.824262 0,-0.478604 0.34566,-0.797674 0.34566,-0.319069 1.14333,-0.319069 h 4.12131 v -6.594099 q 0,-0.797674 0.31907,-1.143332 0.31907,-0.345659 0.79768,-0.345659 0.50519,0 0.82426,0.345659 0.31907,0.345658 0.31907,1.143332 z"
         style="font-family:'Courier New';-inkscape-font-specification:'Courier New';text-align:center;text-anchor:middle"
         id="path93598" />
      <path
         d="m 185.2583,52.492025 h -22.76028 q 0.58496,4.334025 3.61612,6.992936 3.05774,2.632322 7.5513,2.632322 2.49938,0 5.23806,-0.824262 2.73868,-0.824263 4.46697,-2.180307 0.50519,-0.398837 0.87744,-0.398837 0.42543,0 0.7445,0.345658 0.31906,0.31907 0.31906,0.771084 0,0.452015 -0.42542,0.877441 -1.27628,1.329456 -4.54674,2.499377 -3.24387,1.143331 -6.67387,1.143331 -5.74324,0 -9.59866,-3.749064 -3.82884,-3.775654 -3.82884,-9.120065 0,-4.865807 3.58953,-8.348981 3.61612,-3.483173 8.93394,-3.483173 5.47736,0 9.01371,3.58953 3.53635,3.56294 3.48318,9.25301 z m -2.26008,-2.260074 q -0.66473,-3.695887 -3.50976,-6.009139 -2.81845,-2.313253 -6.72705,-2.313253 -3.9086,0 -6.72704,2.286664 -2.81845,2.286663 -3.50976,6.035728 z"
         style="font-family:'Courier New';-inkscape-font-specification:'Courier New';text-align:center;text-anchor:middle"
         id="path93600" />
      <path
         d="m 199.50313,30.103994 v 31.135848 h 8.77441 q 0.82426,0 1.16992,0.31907 0.34566,0.29248 0.34566,0.797673 0,0.478604 -0.34566,0.797673 -0.34566,0.31907 -1.16992,0.31907 h -19.7823 q -0.79768,0 -1.14333,-0.31907 -0.34566,-0.319069 -0.34566,-0.797673 0,-0.505193 0.34566,-0.797673 0.34565,-0.31907 1.14333,-0.31907 h 8.7744 V 32.364068 h -6.43456 q -0.79767,0 -1.16992,-0.319069 -0.34566,-0.319069 -0.34566,-0.824262 0,-0.478604 0.34566,-0.797674 0.34566,-0.319069 1.16992,-0.319069 z"
         style="font-family:'Courier New';-inkscape-font-specification:'Courier New';text-align:center;text-anchor:middle"
         id="path93602" />
      <path
         d="m 215.15719,40.447158 v 4.068134 q 1.99418,-2.419609 4.28084,-3.642708 2.28667,-1.223099 5.39759,-1.223099 3.29705,0 6.08891,1.542168 2.79185,1.542168 4.30743,4.307436 1.54217,2.738678 1.54217,5.769837 0,4.812629 -3.45658,8.242624 -3.43,3.403406 -8.45534,3.403406 -5.98255,0 -9.70502,-4.865807 v 13.45409 h 5.42417 q 0.79768,0 1.14334,0.29248 0.34565,0.31907 0.34565,0.824263 0,0.478604 -0.34565,0.797673 -0.34566,0.319069 -1.14334,0.319069 h -10.66223 q -0.79767,0 -1.14333,-0.319069 -0.34566,-0.29248 -0.34566,-0.797673 0,-0.505193 0.34566,-0.824263 0.34566,-0.29248 1.14333,-0.29248 h 3.00457 V 42.707232 h -3.00457 q -0.79767,0 -1.14333,-0.319069 -0.34566,-0.319069 -0.34566,-0.824262 0,-0.478604 0.34566,-0.797674 0.34566,-0.319069 1.14333,-0.319069 z m 19.35687,10.821768 q 0,-3.855421 -2.81845,-6.594099 -2.79185,-2.765268 -6.8334,-2.765268 -4.06813,0 -6.88658,2.765268 -2.81844,2.765267 -2.81844,6.594099 0,3.855421 2.81844,6.620688 2.81845,2.765268 6.88658,2.765268 4.01496,0 6.8334,-2.738678 2.81845,-2.765268 2.81845,-6.647278 z"
         style="font-family:'Courier New';-inkscape-font-specification:'Courier New';text-align:center;text-anchor:middle"
         id="path93604" />
      <path
         d="m 256.41656,63.473328 v -3.270461 q -4.57333,4.147901 -9.89115,4.147901 -3.27046,0 -4.97217,-1.78147 -2.20689,-2.339842 -2.20689,-5.450768 V 42.707232 h -3.00457 q -0.79768,0 -1.14334,-0.319069 -0.34565,-0.319069 -0.34565,-0.824262 0,-0.478604 0.34565,-0.797674 0.34566,-0.319069 1.14334,-0.319069 h 5.23805 V 57.11853 q 0,2.180307 1.38264,3.58953 1.38263,1.409223 3.45658,1.409223 5.45077,0 9.99751,-4.998753 V 42.707232 h -4.12132 q -0.79767,0 -1.14333,-0.319069 -0.34566,-0.319069 -0.34566,-0.824262 0,-0.478604 0.34566,-0.797674 0.34566,-0.319069 1.14333,-0.319069 h 6.3548 v 20.792684 h 1.88783 q 0.79767,0 1.14333,0.31907 0.34566,0.29248 0.34566,0.797673 0,0.478604 -0.34566,0.797673 -0.34566,0.31907 -1.14333,0.31907 z"
         style="font-family:'Courier New';-inkscape-font-specification:'Courier New';text-align:center;text-anchor:middle"
         id="path93606" />
      <path
         d="m 271.29953,40.447158 v 5.636891 q 4.36061,-3.935188 6.51433,-5.051931 2.18031,-1.143331 4.01495,-1.143331 1.99419,0 3.69589,1.356044 1.72829,1.329456 1.72829,2.020773 0,0.505193 -0.34566,0.850851 -0.31906,0.31907 -0.82426,0.31907 -0.26589,0 -0.45201,-0.07977 -0.18613,-0.106356 -0.69132,-0.611549 -0.93062,-0.930619 -1.62193,-1.276278 -0.69132,-0.345658 -1.35605,-0.345658 -1.4624,0 -3.53635,1.169921 -2.04736,1.169921 -7.12588,5.716659 v 12.23099 h 9.89115 q 0.82426,0 1.16992,0.31907 0.34566,0.29248 0.34566,0.797673 0,0.478604 -0.34566,0.797673 -0.34566,0.31907 -1.16992,0.31907 h -17.52223 q -0.79767,0 -1.14333,-0.292481 -0.34566,-0.319069 -0.34566,-0.797673 0,-0.452015 0.31907,-0.744495 0.34566,-0.319069 1.16992,-0.319069 h 5.39759 V 42.707232 h -4.12131 q -0.79767,0 -1.14333,-0.319069 -0.34566,-0.319069 -0.34566,-0.824262 0,-0.478604 0.31907,-0.797674 0.34566,-0.319069 1.16992,-0.319069 z"
         style="font-family:'Courier New';-inkscape-font-specification:'Courier New';text-align:center;text-anchor:middle"
         id="path93608" />
    </g>
    <rect
       style="fill:#ffffff;fill-opacity:1;stroke:none;stroke-width:0.604786;stroke-linecap:round;stroke-linejoin:round;stroke-dasharray:none;stroke-opacity:1;stop-color:#000000"
       id="rect37992-9-5-0-0-5-3-2-5-7-2"
       width="26.562756"
       height="29.737232"
       x="10.159832"
       y="38.658504"
       ry="5.708117" />
    <path
       id="path295-0-2-2-8-83-7-4-5-1-1-3-4-1-7"
       style="display:inline;fill:#4a8123;fill-opacity:1;stroke-width:0.113681"
       inkscape:label="path295-0"
       d="m 39.798161,36.347574 -4.428112,0.0062 -4.861136,0.0059 0.961553,0.284165 c 2.300108,0.679698 3.867469,1.989951 4.948687,4.137169 1.937806,3.848292 1.82877,10.142537 -0.24761,14.287753 -0.512591,1.023267 -1.450826,2.090588 -2.124149,2.416567 -0.27272,0.13203 -0.584251,0.337479 -0.692137,0.456607 -0.107758,0.119123 -0.514426,1.128203 -0.90378,2.242354 -0.389361,1.114153 -0.486846,2.392577 -0.599278,2.611414 -0.369234,0.719178 -1.088917,1.58991 -1.560244,1.887447 -3.481302,1.53264 -8.14736,3.544035 -9.344033,3.714438 0,0 1.833866,0.0083 6.955762,0.007 l 9.312249,-0.0012 0.568617,-0.267952 c 1.075307,-0.510554 2.006824,-1.414797 2.013611,-2.737578 V 50.872702 Z m -20.550252,0.01326 c -3.044859,-0.0085 -6.298249,0.01943 -6.799584,0.09197 -0.382653,0.05537 -0.996281,0.245118 -1.36392,0.421823 -0.844993,0.406182 -2.0665056,1.598531 -2.4884945,2.429244 -0.6193162,1.217966 -0.6354652,1.251507 -0.6228587,8.155544 l 0.014431,7.849864 c 0,0 0.00696,-0.0029 0.00707,-0.0029 -0.01153,0.816455 -0.022703,2.09236 -0.022703,4.10062 0,5.012032 0.013176,5.363772 0.2252092,5.979809 0.8178228,2.285301 3.237702,3.009065 3.237702,3.009065 l 5.810234,0.0018 -0.58966,-0.327976 c -1.112906,-0.638316 -1.907641,-1.792827 -2.338715,-3.398183 -0.194396,-0.724048 -0.247811,-1.385241 -0.318065,-3.939376 -0.07514,-2.73422 -0.197275,-3.119608 -0.330738,-3.751605 -0.160172,-0.758178 -0.716884,-1.406924 -1.19207,-1.907825 -0.914317,-0.859925 -2.391215,-1.070327 -2.391215,-1.070327 0,0 2.103634,-0.847795 2.674201,-1.720605 0.780759,-1.231174 1.061499,-2.603247 1.225085,-5.987178 0.0932,-1.925993 0.154385,-2.412884 0.399714,-3.183277 0.713573,-2.240934 2.427277,-4.055389 4.615295,-4.886489 0.406411,-0.154367 1.22496,-0.466527 1.819058,-0.693605 1.321696,-0.482189 2.627741,-0.876741 3.97858,-1.177114 0,0 -2.503696,0.01505 -5.54855,0.0065 z"
       sodipodi:nodetypes="cccsccscscccccccccsscccccsccccccccccccsccss" />
    <path
       style="display:inline;fill:#b57fdd;fill-opacity:1;stroke-width:0.113681"
       d="m 7.9481468,53.897065 c 0,0 1.6554469,0.887488 2.0087693,1.219414 0.5031539,0.472729 0.9064879,1.118449 1.1919409,1.907899 0.219523,0.607475 0.25567,1.0171 0.330819,3.751323 0.07025,2.554139 0.123684,3.215456 0.318073,3.939504 0.431083,1.605357 1.205537,2.796561 2.338651,3.398314 l 0.605118,0.321356 c 0,0 -2.233503,-0.01058 -3.287324,-0.01006 C 10.400369,68.425441 9.2233887,67.535026 8.4304286,66.341994 7.6374654,65.148996 8.0615991,61.12059 7.9481468,53.897057 Z M 20.23127,67.885835 c 3.637792,-0.987929 8.434456,-2.193553 9.468269,-2.846173 0.47132,-0.297535 1.253791,-1.669042 1.623026,-2.38822 0.112318,-0.21884 0.522819,-1.309461 0.91218,-2.423615 0.389353,-1.114153 0.796107,-2.12321 0.903877,-2.242334 0.107878,-0.119127 0.419257,-0.324629 0.691976,-0.45666 0.67333,-0.32598 1.611542,-1.393316 2.124131,-2.416584 2.076381,-4.145219 2.185516,-10.439273 0.247707,-14.28757 -1.081217,-2.147219 -2.648539,-3.457529 -4.948646,-4.13725 l -0.961743,-0.284204 4.861231,-0.006 4.644893,-0.006 v 14.525169 14.525175 c 0.0166,1.626854 -1.338598,2.955138 -2.605232,3.006146 l -0.19371,-0.0012 -9.312296,0.0012 c -5.121788,0.0012 -9.261652,-0.0039 -9.261652,-0.0039 0.686222,-0.229036 1.231708,-0.401521 1.805989,-0.557778 z M 7.9551981,47.502974 c 0.00116,-6.904053 0.00338,-6.937488 0.6227436,-8.155455 0.4219836,-0.830712 1.5863683,-2.032512 2.4313563,-2.438695 0.367644,-0.176706 0.956658,-0.390579 1.497193,-0.469468 1.002492,-0.14631 10.398137,-0.06998 10.398137,-0.06998 0,0 -1.675805,0.390718 -2.332313,0.533389 -0.656512,0.142669 -1.679638,0.445197 -2.273622,0.672275 -0.593983,0.227077 -1.412486,0.539188 -1.818895,0.693557 -2.187905,0.8311 -3.90165,2.645609 -4.615223,4.886544 -0.245324,0.770395 -0.306368,1.257074 -0.399589,3.183069 -0.163701,3.383933 -0.444492,4.756144 -1.225254,5.98732 -0.4001591,0.630987 -0.9452563,1.062145 -1.71079,1.353009 l -0.5808184,0.218529 z"
       id="path295-7-5-0-6-9-7-9-3-0-5-6-4-5"
       sodipodi:nodetypes="csssssczzcsssssssccccccccccssssssscsssscssss" />
    <path
       style="display:inline;fill:#5a2381;fill-opacity:1;stroke-width:0.113681"
       d="m 28.421652,70.468289 c 0,-0.03172 0.177681,-0.80066 0.394928,-1.708743 1.390883,-6.039363 1.913478,-22.083179 1.168069,-26.994131 l -0.09038,-0.425622 -9.117791,-0.02911 -9.117898,-0.02908 0.03965,-0.341042 c 0.0681,-0.585322 0.791448,-2.845312 1.254245,-3.918768 1.212522,-2.812526 2.941042,-4.927243 4.788014,-5.857666 4.400257,-2.216689 14.135447,-2.348684 20.584458,-0.279098 1.518894,0.48743 3.455452,1.462119 4.203016,2.115433 2.272145,1.985541 4.41571,5.818866 6.435709,11.508967 1.056096,4.614927 3.49922,15.030088 2.445623,19.644389 -1.687139,1.591544 -3.889596,2.707771 -6.3334,3.209836 -0.437674,0.08991 -1.63985,0.247798 -2.671503,0.350851 -3.453518,0.344955 -7.367327,1.065612 -11.424947,2.10371 -1.187967,0.303935 -2.249523,0.58751 -2.358884,0.630183 -0.109476,0.04268 -0.198942,0.05161 -0.198942,0.01991 z"
       id="path295-8-15-6-7-1-5-0-6-6-4-4-6-0-6"
       sodipodi:nodetypes="scccccsssscccsssss" />
    <path
       style="color:#000000;display:inline;fill:#ff822c;fill-opacity:1;stroke-width:0.113681;stroke-linecap:round;stroke-linejoin:round;-inkscape-stroke:none"
       d="m 41.74973,47.550449 a 1.2504915,1.2504915 0 0 0 -1.301532,1.197437 1.2504915,1.2504915 0 0 0 1.197172,1.301523 l 12.716248,0.529617 a 1.2504915,1.2504915 0 0 0 1.301308,-1.197402 1.2504915,1.2504915 0 0 0 -1.197178,-1.301307 z"
       id="path15924-7-9-9-1-9-9-1-0-1-2-0-5-5-0" />
    <path
       id="path2404-3-4-2-8-0-0-8-2-2-8-1-2-1"
       style="display:inline;fill:#ff822c;fill-opacity:1;stroke-width:1.63978;stroke-linecap:round;stroke-linejoin:round;stop-color:#000000"
       d="m 43.802809,46.12282 a 5.2682345,5.2682345 0 0 1 -1.428401,7.312204 5.2682345,5.2682345 0 0 1 -7.312189,-1.42838 5.2682345,5.2682345 0 0 1 1.4284,-7.312193 5.2682345,5.2682345 0 0 1 7.31219,1.428369 z" />
    <path
       style="color:#000000;display:inline;fill:#ff822c;fill-opacity:1;stroke-width:0.113681;stroke-linecap:round;stroke-linejoin:round;-inkscape-stroke:none"
       d="m 41.317627,50.562985 a 1.1368104,1.1368104 0 0 0 -0.807134,0.325037 1.1368104,1.1368104 0 0 0 -0.01569,1.607598 l 8.910772,9.087196 a 1.1368104,1.1368104 0 0 0 1.607679,0.01573 1.1368104,1.1368104 0 0 0 0.01569,-1.607596 l -8.910885,-9.087187 a 1.1368104,1.1368104 0 0 0 -0.800432,-0.34077 z"
       id="path15924-7-9-9-1-2-8-1-9-7-4-7-8-3-8-5"
       inkscape:transform-center-x="24.95942"
       inkscape:transform-center-y="-3.7436305" />
    <path
       id="path2404-3-4-2-2-2-1-1-2-1-6-5-1-7-4"
       style="display:inline;fill:#ff822c;fill-opacity:1;stroke-width:1.15259;stroke-linecap:round;stroke-linejoin:round;stop-color:#000000"
       d="m 51.205155,59.173231 a 3.7029563,3.7029563 0 0 1 4.564294,2.567352 3.7029563,3.7029563 0 0 1 -2.567373,4.564259 3.7029563,3.7029563 0 0 1 -4.564296,-2.567351 3.7029563,3.7029563 0 0 1 2.567375,-4.56426 z"
       inkscape:transform-center-x="0.61261651"
       inkscape:transform-center-y="20.807195" />
    <path
       style="color:#000000;display:inline;fill:#ff822c;fill-opacity:1;stroke:none;stroke-width:1.82318;stroke-linecap:round;stroke-linejoin:round;stroke-dasharray:none"
       d="m 60.447188,46.228873 a 5.0783128,5.0783128 0 0 1 -1.376789,7.0486 5.0783128,5.0783128 0 0 1 -7.048676,-1.376883 5.0783128,5.0783128 0 0 1 1.376904,-7.048599 5.0783128,5.0783128 0 0 1 7.048561,1.376882 z"
       id="path47726-07-8-2-5-6-1-9-7-6-6" />
    <path
       style="color:#000000;display:inline;fill:#ff822c;fill-opacity:1;stroke-width:0.113681;stroke-linecap:round;stroke-linejoin:round;-inkscape-stroke:none"
       d="m 49.802099,30.032973 a 1.1966065,1.1966065 0 0 0 -1.604491,0.538178 l -8.908844,17.906016 a 1.1966065,1.1966065 0 0 0 0.538166,1.60422 1.1966065,1.1966065 0 0 0 1.604491,-0.538177 l 8.908843,-17.906015 a 1.1966065,1.1966065 0 0 0 -0.538165,-1.604222 z"
       id="path15924-0-2-7-83-3-7-8-1-7-8-4-8-7" />
    <path
       id="path2404-0-9-5-5-2-2-6-4-4-6-8-0-3-6-8"
       style="display:inline;fill:#ff822c;fill-opacity:1;stroke:none;stroke-width:2.72834;stroke-linecap:round;stroke-linejoin:round;stroke-opacity:1"
       d="M 58.725379,28.640767 A 8.4563656,8.4563656 0 0 1 52.215091,38.67255 8.4563656,8.4563656 0 0 1 42.183309,32.162277 8.4563656,8.4563656 0 0 1 48.693597,22.130493 8.4563656,8.4563656 0 0 1 58.725379,28.640767 Z" />
  </g>
</svg>
