<?xml version="1.0" encoding="UTF-8" standalone="no"?>
<!-- Created with Inkscape (http://www.inkscape.org/) -->

<svg
   width="93.577286mm"
   height="85.098213mm"
   viewBox="0 0 93.577286 85.098213"
   version="1.1"
   id="svg93672"
   inkscape:version="1.2.2 (732a01da63, 2022-12-09)"
   sodipodi:docname="logo-mobile.svg"
   inkscape:export-filename="logo-mobile.png"
   inkscape:export-xdpi="300"
   inkscape:export-ydpi="300"
   xmlns:inkscape="http://www.inkscape.org/namespaces/inkscape"
   xmlns:sodipodi="http://sodipodi.sourceforge.net/DTD/sodipodi-0.dtd"
   xmlns="http://www.w3.org/2000/svg"
   xmlns:svg="http://www.w3.org/2000/svg">
  <sodipodi:namedview
     id="namedview93674"
     pagecolor="#ffffff"
     bordercolor="#000000"
     borderopacity="0.25"
     inkscape:showpageshadow="2"
     inkscape:pageopacity="0.0"
     inkscape:pagecheckerboard="0"
     inkscape:deskcolor="#d1d1d1"
     inkscape:document-units="mm"
     showgrid="false"
     inkscape:zoom="0.9927668"
     inkscape:cx="402.91436"
     inkscape:cy="108.78688"
     inkscape:window-width="1920"
     inkscape:window-height="986"
     inkscape:window-x="-11"
     inkscape:window-y="-11"
     inkscape:window-maximized="1"
     inkscape:current-layer="layer1" />
  <defs
     id="defs93669" />
  <g
     inkscape:label="Layer 1"
     inkscape:groupmode="layer"
     id="layer1"
     transform="translate(-60.50679,-19.785006)">
    <rect
       style="fill:#ffffff;fill-opacity:1;stroke:none;stroke-width:1.06024;stroke-linecap:round;stroke-linejoin:round;stroke-dasharray:none;stroke-opacity:1;stop-color:#000000"
       id="rect37992-9-5-0-0-5-3-2-5-7-2"
       width="46.56662"
       height="52.131729"
       x="64.408875"
       y="49.084839"
       ry="10.006783" />
    <path
       id="path295-0-2-2-8-83-7-4-5-1-1-3-4-1-7"
       style="display:inline;fill:#4a8123;fill-opacity:1;stroke-width:0.199292"
       inkscape:label="path295-0"
       d="m 116.36722,45.033594 -7.76283,0.01085 -8.52196,0.01034 1.68568,0.49816 c 4.03227,1.191565 6.77998,3.488545 8.67544,7.252788 3.39713,6.746362 3.20598,17.780674 -0.43408,25.047566 -0.89861,1.793868 -2.54341,3.664967 -3.7238,4.236434 -0.4781,0.231459 -1.02424,0.591627 -1.21337,0.800468 -0.18892,0.208832 -0.90183,1.977829 -1.5844,3.931026 -0.68258,1.953197 -0.85348,4.194374 -1.05058,4.578016 -0.6473,1.260776 -1.90896,2.787238 -2.735234,3.308842 -6.103,2.68684 -14.28297,6.212976 -16.38083,6.511706 0,0 3.21491,0.0145 12.194,0.0125 l 16.325114,-0.002 0.99683,-0.46974 c 1.8851,-0.895042 3.51812,-2.48025 3.53002,-4.799191 v -25.46406 z m -36.026224,0.02325 c -5.33788,-0.01487 -11.04133,0.03406 -11.92021,0.16123 -0.67082,0.09707 -1.74656,0.429711 -2.39106,0.73949 -1.48134,0.71207 -3.62275,2.802351 -4.36253,4.258655 -1.08571,2.135191 -1.11402,2.193994 -1.09192,14.297318 l 0.0253,13.761434 c 0,0 0.0122,-0.0051 0.0124,-0.0052 -0.0202,1.431307 -0.0398,3.668069 -0.0398,7.188709 0,8.786492 0.0231,9.403117 0.39481,10.483081 1.43371,4.006314 5.67595,5.275129 5.67595,5.275129 l 10.1858,0.003 -1.03372,-0.57497 c -1.95106,-1.118993 -3.34429,-3.142944 -4.1,-5.957261 -0.34079,-1.269311 -0.43443,-2.428434 -0.55759,-6.906039 -0.13173,-4.793305 -0.34584,-5.46892 -0.57981,-6.576859 -0.2808,-1.329079 -1.25676,-2.466379 -2.0898,-3.344499 -1.60287,-1.507519 -4.19199,-1.876371 -4.19199,-1.876371 0,0 3.68784,-1.486252 4.68809,-3.016354 1.36873,-2.158348 1.86089,-4.563704 2.14767,-10.496 0.16341,-3.376419 0.27065,-4.229978 0.70073,-5.580538 1.25095,-3.928537 4.25521,-7.109419 8.09098,-8.566402 0.71247,-0.270618 2.14745,-0.817862 3.18895,-1.215946 2.31704,-0.845317 4.60664,-1.536997 6.97477,-2.063576 0,0 -4.38918,0.02638 -9.72705,0.0115 z"
       sodipodi:nodetypes="cccsccscscccccccccsscccccsccccccccccccsccss" />
    <path
       style="display:inline;fill:#b57fdd;fill-opacity:1;stroke-width:0.199292"
       d="m 60.531616,75.799246 c 0,0 2.90213,1.555836 3.52153,2.137729 0.88207,0.828732 1.58915,1.96073 2.08957,3.344698 0.38484,1.064953 0.44821,1.783059 0.57995,6.576369 0.12316,4.477609 0.21683,5.636949 0.55761,6.906261 0.75572,2.81432 2.1134,4.902597 4.09984,5.957517 l 1.06082,0.56336 c 0,0 -3.91551,-0.0186 -5.76294,-0.0175 -1.84744,0.001 -3.91078,-1.559969 -5.3009,-3.651448 -1.39013,-2.091479 -0.64659,-9.153593 -0.84548,-21.817023 z m 21.53329,24.523424 c 6.37734,-1.731918 14.78627,-3.845471 16.59863,-4.989566 0.82626,-0.521604 2.197994,-2.925964 2.845294,-4.186742 0.1969,-0.383642 0.91654,-2.295586 1.59912,-4.248785 0.68257,-1.953199 1.39564,-3.722158 1.58457,-3.93099 0.18912,-0.208841 0.73499,-0.569103 1.21309,-0.800562 1.1804,-0.571468 2.82516,-2.442595 3.72377,-4.236464 3.64006,-7.2669 3.83138,-18.300875 0.43425,-25.047244 -1.89546,-3.764246 -4.6431,-6.061324 -8.67537,-7.25293 l -1.686014,-0.49823 8.522124,-0.01056 8.14287,-0.01056 v 25.463779 25.463783 c 0.0291,2.852003 -2.34667,5.180591 -4.56718,5.270011 l -0.33959,-0.002 -16.325194,0.002 c -8.9789,0.002 -16.23641,-0.007 -16.23641,-0.007 1.203,-0.40152 2.15928,-0.7039 3.16604,-0.97783 z M 60.543976,64.589898 c 0.002,-12.103355 0.006,-12.161967 1.09172,-14.297161 0.73977,-1.456305 2.78103,-3.563155 4.26236,-4.275226 0.64451,-0.309779 1.6771,-0.684717 2.6247,-0.823016 1.75745,-0.256493 18.22876,-0.122686 18.22876,-0.122686 0,0 -2.93782,0.684961 -4.08873,0.935072 -1.15092,0.250112 -2.94454,0.780467 -3.98584,1.178553 -1.0413,0.398085 -2.4762,0.945241 -3.18867,1.215859 -3.83557,1.456984 -6.8399,4.637962 -8.09085,8.566503 -0.43007,1.350561 -0.53709,2.20375 -0.70051,5.580173 -0.28698,5.932302 -0.77923,8.337895 -2.14797,10.496246 -0.70151,1.10617 -1.65711,1.862024 -2.99915,2.371932 l -1.01822,0.383099 z"
       id="path295-7-5-0-6-9-7-9-3-0-5-6-4-5"
       sodipodi:nodetypes="csssssczzcsssssssccccccccccssssssscsssscssss" />
  </g>
  <g
     inkscape:groupmode="layer"
     id="layer2"
     inkscape:label="Layer 2"
     style="display:inline"
     transform="translate(-0.23742624,-0.52192741)">
    <path
       style="fill:#5a2381;fill-opacity:1;stroke-width:0.199292"
       d="m 36.153933,85.586839 c 0,-0.0556 0.31149,-1.40362 0.69234,-2.99556 2.43833,-10.587485 3.35448,-38.713569 2.04772,-47.322859 l -0.15844,-0.746149 -15.98421,-0.05102 -15.9844001,-0.051 0.0695,-0.597876 c 0.11938,-1.026114 1.38747,-4.988057 2.19879,-6.86991 2.1256501,-4.930582 5.1558801,-8.637849 8.3937701,-10.268953 7.714,-3.886033 24.78056,-4.117431 36.08619,-0.489282 2.66274,0.854504 6.05768,2.563212 7.36822,3.708523 3.98325,3.480812 7.74109,10.200935 11.28231,20.176132 1.85142,8.090335 6.13441,26.348938 4.28737,34.438176 -2.95769,2.790104 -6.81877,4.746936 -11.10295,5.627096 -0.76728,0.15763 -2.87479,0.43441 -4.68336,0.61507 -6.05429,0.604732 -12.91551,1.868102 -20.02884,3.687972 -2.0826,0.53282 -3.94359,1.02995 -4.13531,1.10476 -0.19192,0.0748 -0.34876,0.0905 -0.34876,0.0349 z"
       id="path295-8-15-6-7-1-5-0-6-6-4-4-6-0-6"
       sodipodi:nodetypes="scccccsssscccsssss" />
    <path
       style="color:#000000;fill:#ff822c;fill-opacity:1;stroke-width:0.199292;stroke-linecap:round;stroke-linejoin:round;-inkscape-stroke:none"
       d="m 59.519113,45.410046 a 2.1922108,2.1922108 0 0 0 -2.28169,2.099201 2.1922108,2.1922108 0 0 0 2.09874,2.281673 l 22.29259,0.928461 a 2.1922108,2.1922108 0 0 0 2.2813,-2.099141 2.1922108,2.1922108 0 0 0 -2.09875,-2.281294 z"
       id="path15924-7-9-9-1-9-9-1-0-1-2-0-5-5-0" />
    <path
       id="path2404-3-4-2-8-0-0-8-2-2-8-1-2-1"
       style="fill:#ff822c;fill-opacity:1;stroke-width:2.87467;stroke-linecap:round;stroke-linejoin:round;stop-color:#000000"
       d="m 63.118323,42.907299 a 9.2356334,9.2356334 0 0 1 -2.5041,12.818873 9.2356334,9.2356334 0 0 1 -12.81885,-2.504063 9.2356334,9.2356334 0 0 1 2.5041,-12.818854 9.2356334,9.2356334 0 0 1 12.81885,2.504044 z" />
    <path
       style="color:#000000;fill:#ff822c;fill-opacity:1;stroke-width:0.199292;stroke-linecap:round;stroke-linejoin:round;-inkscape-stroke:none"
       d="m 58.761603,50.691261 a 1.9929189,1.9929189 0 0 0 -1.41497,0.569815 1.9929189,1.9929189 0 0 0 -0.0275,2.818247 l 15.62129,15.930575 a 1.9929189,1.9929189 0 0 0 2.81839,0.02757 1.9929189,1.9929189 0 0 0 0.0275,-2.818244 L 60.164823,51.288659 a 1.9929189,1.9929189 0 0 0 -1.40322,-0.597398 z"
       id="path15924-7-9-9-1-2-8-1-9-7-4-7-8-3-8-5"
       inkscape:transform-center-x="43.755842"
       inkscape:transform-center-y="-6.5628829" />
    <path
       id="path2404-3-4-2-2-2-1-1-2-1-6-5-1-7-4"
       style="fill:#ff822c;fill-opacity:1;stroke-width:2.02056;stroke-linecap:round;stroke-linejoin:round;stop-color:#000000"
       d="m 76.095223,65.785706 a 6.4915763,6.4915763 0 0 1 8.00157,4.50077 6.4915763,6.4915763 0 0 1 -4.50081,8.001509 6.4915763,6.4915763 0 0 1 -8.00157,-4.50077 6.4915763,6.4915763 0 0 1 4.50081,-8.001509 z"
       inkscape:transform-center-x="1.073965"
       inkscape:transform-center-y="36.476664" />
    <path
       style="color:#000000;fill:#ff822c;fill-opacity:1;stroke:none;stroke-width:3.19619;stroke-linecap:round;stroke-linejoin:round;stroke-dasharray:none"
       d="m 92.297243,43.093218 a 8.9026857,8.9026857 0 0 1 -2.41362,12.356755 8.9026857,8.9026857 0 0 1 -12.35689,-2.413783 8.9026857,8.9026857 0 0 1 2.41382,-12.356756 8.9026857,8.9026857 0 0 1 12.35669,2.413784 z"
       id="path47726-07-8-2-5-6-1-9-7-6-6" />
    <path
       style="color:#000000;fill:#ff822c;fill-opacity:1;stroke-width:0.199292;stroke-linecap:round;stroke-linejoin:round;-inkscape-stroke:none"
       d="m 73.635553,14.70052 a 2.0977464,2.0977464 0 0 0 -2.8128,0.943468 l -15.61791,31.390666 a 2.0977464,2.0977464 0 0 0 0.94345,2.812327 2.0977464,2.0977464 0 0 0 2.8128,-0.943468 l 15.61791,-31.390665 a 2.0977464,2.0977464 0 0 0 -0.94345,-2.812328 z"
       id="path15924-0-2-7-83-3-7-8-1-7-8-4-8-7" />
    <path
       id="path2404-0-9-5-5-2-2-6-4-4-6-8-0-3-6-8"
       style="fill:#ff822c;fill-opacity:1;stroke:none;stroke-width:4.78301;stroke-linecap:round;stroke-linejoin:round;stroke-opacity:1"
       d="M 89.278773,12.259872 A 14.824681,14.824681 0 0 1 77.865723,29.846385 14.824681,14.824681 0 0 1 60.279213,18.433357 14.824681,14.824681 0 0 1 71.692263,0.84684356 14.824681,14.824681 0 0 1 89.278773,12.259872 Z" />
  </g>
</svg>
