<?xml version="1.0" encoding="UTF-8" standalone="no"?>
<!-- Created with Inkscape (http://www.inkscape.org/) -->

<svg
   width="279.83823mm"
   height="85.098206mm"
   viewBox="0 0 279.83823 85.098206"
   version="1.1"
   id="svg93374"
   inkscape:version="1.3.2 (091e20e, 2023-11-25, custom)"
   sodipodi:docname="logo.svg"
   xmlns:inkscape="http://www.inkscape.org/namespaces/inkscape"
   xmlns:sodipodi="http://sodipodi.sourceforge.net/DTD/sodipodi-0.dtd"
   xmlns="http://www.w3.org/2000/svg"
   xmlns:svg="http://www.w3.org/2000/svg">
  <sodipodi:namedview
     id="namedview93376"
     pagecolor="#ffffff"
     bordercolor="#000000"
     borderopacity="0.25"
     inkscape:showpageshadow="2"
     inkscape:pageopacity="0.0"
     inkscape:pagecheckerboard="0"
     inkscape:deskcolor="#d1d1d1"
     inkscape:document-units="mm"
     showgrid="false"
     inkscape:zoom="0.70199214"
     inkscape:cx="336.1861"
     inkscape:cy="208.6918"
     inkscape:window-width="1920"
     inkscape:window-height="974"
     inkscape:window-x="-11"
     inkscape:window-y="-11"
     inkscape:window-maximized="1"
     inkscape:current-layer="layer1" />
  <defs
     id="defs93371" />
  <g
     inkscape:label="Layer 1"
     inkscape:groupmode="layer"
     id="layer1"
     transform="translate(-7.8816157,-21.887991)">
    <rect
       style="fill:#ffffff;fill-opacity:1;stroke:none;stroke-width:1.03989;stroke-linecap:round;stroke-linejoin:round;stroke-dasharray:none;stroke-opacity:1;stop-color:#000000"
       id="rect37992-9-5-0-0-5-3-2-5-7-2"
       width="45.057735"
       height="51.829884"
       x="13.257786"
       y="51.187824"
       ry="1.6733238" />
    <path
       style="display:inline;fill:#4a8123;fill-opacity:1;stroke-width:0.199292"
       d="M 12.795751,103.07207 C 10.654358,102.23245 9.1808005,100.58177 8.3078982,98.04451 7.9362173,96.964545 7.9131007,96.348057 7.9131007,87.561556 c 0,-7.335636 -0.1112068,-9.33547 0.084497,-9.335351 0.473721,0 6.4785853,0.33224 7.8112513,1.737348 0.833041,0.878121 1.80897,2.015618 2.089774,3.344698 0.233968,1.10794 0.448209,1.783059 0.579941,6.576369 0.123161,4.477609 0.216825,5.636949 0.557616,6.906261 0.755715,2.81432 2.148767,4.838529 4.099834,5.957519 l 1.019375,0.58466 -7.573087,-0.0133 c -1.940507,-0.008 -3.422839,-0.10505 -3.786551,-0.2477 z m 17.853167,0.19042 c 0.04565,-0.0409 1.473166,-0.45184 3.172127,-0.91324 6.377147,-1.73192 11.408666,-4.394284 13.221025,-5.538378 0.826263,-0.521604 2.088185,-2.047865 2.73548,-3.308643 0.197105,-0.383642 0.367893,-2.624875 1.050469,-4.578074 0.682576,-1.953199 1.395643,-3.722158 1.584568,-3.93099 0.189129,-0.208841 0.734994,-0.569103 1.213091,-0.800562 1.180408,-0.571468 2.825167,-2.442595 3.723771,-4.236464 3.640066,-7.2669 3.831386,-18.300875 0.434257,-25.047244 -1.895463,-3.764246 -4.6431,-6.061364 -8.675377,-7.25293 l -1.686006,-0.49823 8.521915,-0.01056 7.763021,-0.01056 v 25.463779 25.463783 c -0.01195,2.318943 -1.645155,3.904443 -3.530257,4.799483 l -0.996459,0.46936 -16.325192,0.002 c -8.979102,0.002 -12.252071,-0.0315 -12.206433,-0.0724 z M 7.9154959,66.616476 C 7.893351,54.51314 7.9215218,54.454509 9.0072113,52.319315 9.7469881,50.86301 11.888178,48.772817 13.369516,48.060746 c 0.644508,-0.309779 1.720684,-0.642656 2.391503,-0.739731 1.75775,-0.254336 22.813542,-0.195884 21.64728,0.06054 -0.49344,0.108435 -1.838663,0.401793 -2.989378,0.651904 -1.150905,0.250112 -2.944532,0.780467 -3.985833,1.178553 -1.041505,0.398085 -2.476204,0.945241 -3.188676,1.215859 -3.835767,1.456984 -6.840097,4.637962 -8.091045,8.566503 -0.430079,1.350561 -0.537097,2.20375 -0.70051,5.580173 -0.286785,5.932302 -0.779239,8.337895 -2.147969,10.496246 -1.000251,1.530103 -2.391706,2.285519 -3.62951,3.016402 -1.373717,0.81919 -4.7347769,2.290602 -4.7347769,2.290602 z"
       id="path295-0-2-2-8-83-7-4-5-1-1-3-4-1-7"
       sodipodi:nodetypes="csscssssscccccsssssssssccccccccccssssssscsscccs"
       inkscape:label="path295-0" />
    <path
       style="display:inline;fill:#b57fdd;fill-opacity:1;stroke-width:0.199292"
       d="m 12.764266,103.07207 c -2.141393,-0.83962 -3.614958,-2.4903 -4.4878527,-5.02756 -0.371681,-1.079965 -0.3947976,-1.696453 -0.3947976,-10.482954 0,-7.335636 0.053404,-9.33547 0.2491155,-9.335351 0.4739168,0 2.6430058,1.155455 3.2624088,1.737348 0.882062,0.828732 1.589148,1.96073 2.089571,3.344698 0.384833,1.064953 0.448209,1.783059 0.579942,6.576369 0.12316,4.477609 0.216832,5.636949 0.557615,6.906261 0.755715,2.81432 2.148767,4.838529 4.099834,5.957519 l 1.01918,0.58466 -3.188668,-0.0133 c -1.940311,-0.008 -3.422644,-0.10505 -3.786348,-0.2477 z m 13.46874,0.19042 c 0.04565,-0.0409 1.47297,-0.45184 3.171931,-0.91324 6.377343,-1.73192 14.786266,-3.845473 16.598626,-4.989568 0.826263,-0.521604 2.197991,-2.925964 2.845286,-4.186742 0.196902,-0.383642 0.916544,-2.295586 1.599121,-4.248785 0.682576,-1.953199 1.395643,-3.722158 1.584568,-3.93099 0.189128,-0.208841 0.734993,-0.569103 1.213091,-0.800562 1.180408,-0.571468 2.825167,-2.442595 3.72377,-4.236464 3.640067,-7.2669 3.831387,-18.300875 0.434258,-25.047244 -1.895463,-3.764246 -4.6431,-6.061324 -8.675377,-7.25293 l -1.686006,-0.49823 8.522118,-0.01056 8.142867,-0.01056 v 25.463779 25.463783 c 0.0291,2.852003 -2.346662,5.180593 -4.567173,5.270013 l -0.339593,-0.002 -16.325191,0.002 c -8.978899,0.002 -16.287934,-0.0315 -16.242296,-0.0724 z M 7.8840034,66.616476 c 0.00226,-12.103355 0.00603,-12.161967 1.0917229,-14.297161 0.7397693,-1.456305 2.8809667,-3.546498 4.3622967,-4.258569 0.644516,-0.309779 1.720692,-0.642656 2.391503,-0.739731 1.757758,-0.254336 18.429124,-0.195884 17.262665,0.06054 -0.493244,0.108435 -1.838466,0.401793 -2.989378,0.651904 -1.150912,0.250112 -2.944539,0.780467 -3.985833,1.178553 -1.041302,0.398085 -2.476203,0.945241 -3.188675,1.215859 -3.835571,1.456984 -6.839894,4.637962 -8.09085,8.566503 -0.430071,1.350561 -0.53709,2.20375 -0.70051,5.580173 -0.286981,5.932302 -0.779231,8.337895 -2.147969,10.496246 -0.701505,1.10617 -1.657112,1.862024 -2.9991479,2.371932 l -1.0082124,0.383099 z"
       id="path295-7-5-0-6-9-7-9-3-0-5-6-4-5"
       sodipodi:nodetypes="csscssssscccccsssssssssccccccccccssssssscsssscs" />
    <path
       style="fill:#5a2381;fill-opacity:1;stroke-width:0.199292"
       d="m 43.763324,106.9529 c 0,-0.0556 0.31149,-1.40362 0.692338,-2.99556 2.438339,-10.587483 3.354484,-38.713567 2.047722,-47.322857 l -0.158435,-0.746149 -15.984209,-0.05102 -15.984405,-0.051 0.06952,-0.597876 c 0.119379,-1.026114 1.387471,-4.988057 2.198789,-6.86991 2.12565,-4.930582 5.155884,-8.637849 8.393775,-10.268953 7.713994,-3.886033 24.780556,-4.117431 36.086183,-0.489282 2.662739,0.854504 6.057677,2.563212 7.36822,3.708523 3.983247,3.480812 7.741095,10.200935 11.282315,20.176132 1.851415,8.090335 6.134405,26.348938 4.287366,34.438176 -2.95769,2.790104 -6.818774,4.746936 -11.102952,5.627096 -0.767274,0.15763 -2.874786,0.43441 -4.683359,0.61507 -6.054289,0.60473 -12.915514,1.8681 -20.028837,3.68797 -2.082596,0.53282 -3.943585,1.02995 -4.135304,1.10476 -0.191923,0.0748 -0.34876,0.0905 -0.34876,0.0349 z"
       id="path295-8-15-6-7-1-5-0-6-6-4-4-6-0-6"
       sodipodi:nodetypes="scccccsssscccsssss" />
    <path
       style="color:#000000;fill:#ff822c;fill-opacity:1;stroke-width:0.199292;stroke-linecap:round;stroke-linejoin:round;-inkscape-stroke:none"
       d="m 67.128502,66.776109 a 2.1922108,2.1922108 0 0 0 -2.281692,2.099201 2.1922108,2.1922108 0 0 0 2.098743,2.281673 l 22.292594,0.928461 a 2.1922108,2.1922108 0 0 0 2.281291,-2.099141 2.1922108,2.1922108 0 0 0 -2.098746,-2.281294 z"
       id="path15924-7-9-9-1-9-9-1-0-1-2-0-5-5-0" />
    <path
       id="path2404-3-4-2-8-0-0-8-2-2-8-1-2-1"
       style="fill:#ff822c;fill-opacity:1;stroke-width:2.87467;stroke-linecap:round;stroke-linejoin:round;stop-color:#000000"
       d="M 70.727714,64.273362 A 9.2356334,9.2356334 0 0 1 68.223612,77.092235 9.2356334,9.2356334 0 0 1 55.40476,74.588172 9.2356334,9.2356334 0 0 1 57.908861,61.769318 9.2356334,9.2356334 0 0 1 70.727714,64.273362 Z" />
    <path
       style="color:#000000;fill:#ff822c;fill-opacity:1;stroke-width:0.199292;stroke-linecap:round;stroke-linejoin:round;-inkscape-stroke:none"
       d="m 66.370994,72.057324 a 1.9929189,1.9929189 0 0 0 -1.414973,0.569815 1.9929189,1.9929189 0 0 0 -0.0275,2.818247 l 15.621293,15.930575 a 1.9929189,1.9929189 0 0 0 2.818388,0.02757 1.9929189,1.9929189 0 0 0 0.02749,-2.818244 L 67.774208,72.654722 a 1.9929189,1.9929189 0 0 0 -1.403214,-0.597398 z"
       id="path15924-7-9-9-1-2-8-1-9-7-4-7-8-3-8-5"
       inkscape:transform-center-x="43.755842"
       inkscape:transform-center-y="-6.5628829" />
    <path
       id="path2404-3-4-2-2-2-1-1-2-1-6-5-1-7-4"
       style="fill:#ff822c;fill-opacity:1;stroke-width:2.02056;stroke-linecap:round;stroke-linejoin:round;stop-color:#000000"
       d="m 83.704609,87.151769 a 6.4915763,6.4915763 0 0 1 8.001569,4.50077 6.4915763,6.4915763 0 0 1 -4.500808,8.001509 6.4915763,6.4915763 0 0 1 -8.001569,-4.50077 6.4915763,6.4915763 0 0 1 4.500808,-8.001509 z"
       inkscape:transform-center-x="1.073965"
       inkscape:transform-center-y="36.476664" />
    <path
       style="color:#000000;fill:#ff822c;fill-opacity:1;stroke:none;stroke-width:3.19619;stroke-linecap:round;stroke-linejoin:round;stroke-dasharray:none"
       d="M 99.906637,64.459281 A 8.9026857,8.9026857 0 0 1 97.493012,76.816036 8.9026857,8.9026857 0 0 1 85.136121,74.402253 8.9026857,8.9026857 0 0 1 87.549942,62.045497 8.9026857,8.9026857 0 0 1 99.906637,64.459281 Z"
       id="path47726-07-8-2-5-6-1-9-7-6-6" />
    <path
       style="color:#000000;fill:#ff822c;fill-opacity:1;stroke-width:0.199292;stroke-linecap:round;stroke-linejoin:round;-inkscape-stroke:none"
       d="M 81.244947,36.066583 A 2.0977464,2.0977464 0 0 0 78.43214,37.010051 L 62.814232,68.400717 a 2.0977464,2.0977464 0 0 0 0.943448,2.812327 2.0977464,2.0977464 0 0 0 2.812805,-0.943468 L 82.188396,38.878911 a 2.0977464,2.0977464 0 0 0 -0.943449,-2.812328 z"
       id="path15924-0-2-7-83-3-7-8-1-7-8-4-8-7" />
    <path
       id="path2404-0-9-5-5-2-2-6-4-4-6-8-0-3-6-8"
       style="fill:#ff822c;fill-opacity:1;stroke:none;stroke-width:4.78301;stroke-linecap:round;stroke-linejoin:round;stroke-opacity:1"
       d="M 96.888162,33.625935 A 14.824681,14.824681 0 0 1 85.475112,51.212448 14.824681,14.824681 0 0 1 67.888602,39.79942 14.824681,14.824681 0 0 1 79.301653,22.212907 14.824681,14.824681 0 0 1 96.888162,33.625935 Z" />
    <g
       aria-label="stelpur &lt;forrita&gt;"
       id="text89143-1-5-4-9-7-8-9"
       style="font-size:210.52px;font-family:'Arial Rounded MT Bold';-inkscape-font-specification:'Arial Rounded MT Bold, ';letter-spacing:-13.3806px;fill:#ff822c;stroke-width:8.02831;stroke-linecap:round;stroke-linejoin:round;stop-color:#000000"
       transform="matrix(0.19056324,0,0,0.19056324,-1588.1194,-489.81512)">
      <path
         d="m 8984.6264,3095.2414 -65.5738,-55.2609 65.5738,-55.1636 15.1773,15.3719 -48.2561,39.5971 48.2561,40.0836 z"
         style="font-weight:bold;font-family:Consolas;-inkscape-font-specification:'Consolas Bold';stroke-width:7.59855"
         id="path91536-6-6" />
      <path
         d="m 9065.6527,3024.6086 v 48.4506 h 28.4088 q 7.1995,0 10.2155,2.8215 3.1132,2.7241 3.1132,7.1994 0,4.3781 -3.1132,7.1995 -3.016,2.7242 -10.2155,2.7242 h -60.2228 q -7.1994,0 -10.3127,-2.7242 -3.0161,-2.8214 -3.0161,-7.2968 0,-4.378 3.0161,-7.1021 3.1133,-2.8215 10.3127,-2.8215 h 11.8695 v -48.4506 h -9.5345 q -7.1995,0 -10.3128,-2.7241 -3.016,-2.8215 -3.016,-7.2968 0,-4.378 3.016,-7.1021 3.1133,-2.8215 10.3128,-2.8215 h 9.5345 v -7.5886 q 0,-13.0369 9.729,-21.5985 9.8264,-8.6589 28.4088,-8.6589 8.2697,0 19.0689,1.5566 10.8965,1.4595 13.9125,4.1836 3.1133,2.7241 3.1133,7.0048 0,4.5726 -2.7241,7.4913 -2.7241,2.8215 -6.7131,2.8215 -1.8484,0 -5.5455,-0.6809 -12.3559,-2.4323 -21.8904,-2.4323 -9.9235,0 -13.7179,3.0159 -3.697,2.9188 -3.697,7.2969 v 7.5886 h 30.7438 q 7.1994,0 10.2155,2.8215 3.1133,2.7241 3.1133,7.1993 0,4.3781 -3.1133,7.1996 -3.0161,2.7241 -10.2155,2.7241 z"
         style="font-weight:bold;font-family:'Courier New';-inkscape-font-specification:'Courier New Bold';text-align:center;text-anchor:middle;stroke-width:7.59855"
         id="path91533-4-5" />
      <path
         d="m 9224.5114,3050.4879 q 0,11.4802 -6.4213,22.2794 -6.3238,10.702 -18.9715,17.1231 -12.5505,6.3239 -26.2684,6.3239 -13.6207,0 -26.0739,-6.2265 -12.4532,-6.3239 -18.9716,-17.1232 -6.5184,-10.7992 -6.5184,-22.5713 0,-11.9668 6.6156,-23.447 6.6158,-11.5776 18.9718,-18.1933 12.4531,-6.6158 25.9765,-6.6158 13.6206,0 26.1711,6.8104 12.6477,6.7131 19.0688,18.1932 6.4213,11.3831 6.4213,23.4471 z m -19.9446,0.097 q 0,-9.6317 -6.9076,-17.7068 -9.4371,-10.8966 -24.809,-10.8966 -13.5234,0 -22.5715,8.6589 -9.048,8.6589 -9.048,20.0418 0,9.34 9.1453,17.5124 9.1453,8.0751 22.4742,8.0751 13.426,0 22.5713,-8.0751 9.1453,-8.1724 9.1453,-17.6097 z"
         style="font-weight:bold;font-family:'Courier New';-inkscape-font-specification:'Courier New Bold';text-align:center;text-anchor:middle;stroke-width:7.59855"
         id="path91530-2-4" />
      <path
         d="m 9275.4749,3004.6641 v 12.4532 q 12.5504,-9.0481 19.75,-12.0641 7.2968,-3.016 13.6206,-3.016 9.729,0 18.8744,7.1995 6.2265,4.8646 6.2265,9.9236 0,4.2808 -3.016,7.2968 -2.9188,2.9188 -7.1022,2.9188 -3.6971,0 -7.7832,-3.6972 -4.0862,-3.697 -7.2968,-3.697 -4.1834,0 -12.5505,5.2537 -8.2696,5.2538 -20.7228,15.7611 v 30.0627 h 28.4088 q 7.1995,0 10.2154,2.8215 3.1133,2.7241 3.1133,7.1994 0,4.3781 -3.1133,7.1995 -3.0159,2.7242 -10.2154,2.7242 h -60.2227 q -7.1996,0 -10.3128,-2.7242 -3.0161,-2.8214 -3.0161,-7.2968 0,-4.378 3.0161,-7.1021 3.1132,-2.8215 10.3128,-2.8215 h 11.8694 v -48.4506 h -7.1995 q -7.1996,0 -10.3129,-2.7241 -3.0158,-2.8215 -3.0158,-7.2968 0,-4.378 3.0158,-7.1021 3.1133,-2.8215 10.3129,-2.8215 z"
         style="font-weight:bold;font-family:'Courier New';-inkscape-font-specification:'Courier New Bold';text-align:center;text-anchor:middle;stroke-width:7.59855"
         id="path91527-1-8" />
      <path
         d="m 9382.3805,3004.6641 v 12.4532 q 12.5505,-9.0481 19.7499,-12.0641 7.2967,-3.016 13.6207,-3.016 9.7291,0 18.8743,7.1995 6.2267,4.8646 6.2267,9.9236 0,4.2808 -3.0161,7.2968 -2.9187,2.9188 -7.1022,2.9188 -3.697,0 -7.7832,-3.6972 -4.0862,-3.697 -7.2968,-3.697 -4.1835,0 -12.5505,5.2537 -8.2697,5.2538 -20.7228,15.7611 v 30.0627 h 28.4087 q 7.1996,0 10.2156,2.8215 3.1133,2.7241 3.1133,7.1994 0,4.3781 -3.1133,7.1995 -3.016,2.7242 -10.2156,2.7242 h -60.2227 q -7.1995,0 -10.3127,-2.7242 -3.016,-2.8214 -3.016,-7.2968 0,-4.378 3.016,-7.1021 3.1132,-2.8215 10.3127,-2.8215 h 11.8694 v -48.4506 h -7.1994 q -7.1995,0 -10.3128,-2.7241 -3.0161,-2.8215 -3.0161,-7.2968 0,-4.378 3.0161,-7.1021 3.1133,-2.8215 10.3128,-2.8215 z"
         style="font-weight:bold;font-family:'Courier New';-inkscape-font-specification:'Courier New Bold';text-align:center;text-anchor:middle;stroke-width:7.59855"
         id="path91524-2-9" />
      <path
         d="m 9500.5717,2966.8181 v 21.1121 h -23.7388 v -21.1121 z m 2.7241,37.846 v 68.3951 h 23.9335 q 7.1995,0 10.2156,2.8215 3.1133,2.7241 3.1133,7.1994 0,4.3781 -3.1133,7.1995 -3.0161,2.7242 -10.2156,2.7242 h -67.8114 q -7.1996,0 -10.3128,-2.7242 -3.016,-2.8214 -3.016,-7.2968 0,-4.378 3.016,-7.1021 3.1132,-2.8215 10.3128,-2.8215 h 23.9334 v -48.4506 h -16.0529 q -7.1021,0 -10.2154,-2.7241 -3.1134,-2.8215 -3.1134,-7.2968 0,-4.378 3.016,-7.1021 3.1133,-2.8215 10.3128,-2.8215 z"
         style="font-weight:bold;font-family:'Courier New';-inkscape-font-specification:'Courier New Bold';text-align:center;text-anchor:middle;stroke-width:7.59855"
         id="path91521-3-1" />
      <path
         d="m 9576.2461,3024.6086 v 39.9863 q 0,6.4212 2.6268,8.4643 4.0862,3.2107 14.5935,3.2107 15.2746,0 28.2143,-6.5185 4.9618,-2.5296 7.7832,-2.5296 3.8917,0 6.7131,2.9187 2.9186,2.9187 2.9186,7.1022 0,3.8916 -3.1131,6.7131 -4.7673,4.5726 -18.8745,8.4642 -14.0098,3.7943 -23.6416,3.7943 -18.5823,0 -27.9222,-7.9778 -9.2427,-8.0751 -9.2427,-19.7499 v -43.878 h -7.1995 q -7.1994,0 -10.3127,-2.7241 -3.0161,-2.8215 -3.0161,-7.2968 0,-4.378 3.0161,-7.1021 3.1133,-2.8215 10.3127,-2.8215 h 7.1995 v -17.9987 q 0,-7.1995 2.7241,-10.2156 2.8215,-3.1133 7.2968,-3.1133 4.3781,0 7.1023,3.1133 2.8214,3.0161 2.8214,10.2156 v 17.9987 h 36.8731 q 7.1994,0 10.2155,2.8215 3.1133,2.7241 3.1133,7.1993 0,4.3781 -3.1133,7.1996 -3.0161,2.7241 -10.2155,2.7241 z"
         style="font-weight:bold;font-family:'Courier New';-inkscape-font-specification:'Courier New Bold';text-align:center;text-anchor:middle;stroke-width:7.59855"
         id="path91518-0-2" />
      <path
         d="m 9714.8614,3093.0038 v -4.67 q -7.4914,3.9889 -16.5394,5.9347 -9.048,2.0431 -16.4421,2.0431 -16.0529,0 -26.0738,-8.4642 -10.021,-8.5616 -10.021,-18.8743 0,-12.5506 12.7452,-23.2524 12.8423,-10.7993 35.4136,-10.7993 9.0481,0 20.9175,1.9458 V 3032.1 q 0,-4.4754 -3.8917,-7.2968 -3.7942,-2.8215 -14.5935,-2.8215 -8.8535,0 -22.9606,3.5025 -5.2536,1.2648 -8.1723,1.2648 -3.9889,0 -6.8104,-2.8214 -2.7241,-2.9187 -2.7241,-7.3941 0,-2.5295 0.9729,-4.3781 0.9729,-1.8485 2.7241,-2.9187 1.7512,-1.1675 7.2968,-2.7241 7.3941,-2.0431 15.0801,-3.2105 7.6859,-1.2649 13.9125,-1.2649 18.5824,0 28.7979,8.0751 10.3128,7.9779 10.3128,21.8904 v 41.0565 h 3.4051 q 7.1996,0 10.2155,2.8215 3.1133,2.7241 3.1133,7.1994 0,4.3781 -3.1133,7.1995 -3.0159,2.7242 -10.2155,2.7242 z m 0,-35.7056 q -11.9668,-2.335 -22.0849,-2.335 -12.1613,0 -20.9175,5.9348 -5.4482,3.7942 -5.4482,7.6859 0,2.8213 2.6267,4.5726 4.8647,3.2106 13.3288,3.2106 7.1995,0 16.2476,-2.8214 9.1453,-2.8214 16.2475,-7.686 z"
         style="font-weight:bold;font-family:'Courier New';-inkscape-font-specification:'Courier New Bold';text-align:center;text-anchor:middle;stroke-width:7.59855"
         id="path91515-0-8" />
      <path
         d="m 9778.0835,2984.8169 65.5738,55.1636 -65.5738,55.2609 -15.0799,-15.3719 48.1586,-39.6944 -48.1586,-39.9863 z"
         style="font-weight:bold;font-family:Consolas;-inkscape-font-specification:'Consolas Bold';stroke-width:7.59855"
         id="path91512-4-3" />
    </g>
    <g
       aria-label="stelpur"
       id="text89143-1-5-4-3-1"
       style="font-size:54.4545px;font-family:'Arial Rounded MT Bold';-inkscape-font-specification:'Arial Rounded MT Bold, ';letter-spacing:-7.47847px;fill:#ff822c;stroke-width:2.07666;stroke-linecap:round;stroke-linejoin:round;stop-color:#000000">
      <path
         d="m 130.15293,41.909559 q 0,-0.771084 0.31907,-1.116743 0.31907,-0.345658 0.79767,-0.345658 0.5052,0 0.82427,0.345658 0.31906,0.345659 0.31906,1.169921 v 3.828832 q 0,0.797673 -0.31906,1.143332 -0.31907,0.345658 -0.82427,0.345658 -0.45201,0 -0.77108,-0.29248 -0.29248,-0.29248 -0.34566,-0.957208 -0.15953,-1.595346 -1.64852,-2.632322 -2.18031,-1.48899 -5.76984,-1.48899 -3.74907,0 -5.82302,1.515579 -1.56875,1.143332 -1.56875,2.552555 0,1.595347 1.86123,2.658911 1.27628,0.744495 4.83922,1.143332 4.6531,0.505193 6.46116,1.143331 2.57914,0.930619 3.82883,2.579144 1.27627,1.648525 1.27627,3.562941 0,2.845035 -2.73867,5.07852 -2.73868,2.206896 -8.02992,2.206896 -5.29123,0 -8.66805,-2.6855 0,0.90403 -0.10635,1.169921 -0.10636,0.265891 -0.39884,0.452015 -0.26589,0.186124 -0.61155,0.186124 -0.4786,0 -0.79767,-0.345659 -0.31907,-0.345658 -0.31907,-1.143332 v -4.599916 q 0,-0.797673 0.29248,-1.143331 0.31907,-0.345659 0.82426,-0.345659 0.47861,0 0.79768,0.345659 0.34565,0.319069 0.34565,0.87744 0,1.223099 0.61155,2.047362 0.93062,1.276277 2.95139,2.127129 2.04737,0.824262 4.99876,0.824262 4.36061,0 6.48774,-1.621936 2.12713,-1.621935 2.12713,-3.429995 0,-2.073951 -2.15372,-3.323639 -2.18031,-1.249688 -6.3548,-1.675114 -4.1479,-0.425426 -5.95596,-1.116742 -1.80806,-0.691317 -2.81844,-2.073951 -1.01039,-1.382634 -1.01039,-2.97798 0,-2.871624 2.81845,-4.546738 2.81844,-1.701703 6.72704,-1.701703 4.62651,0 7.52472,2.260074 z"
         style="font-family:'Courier New';-inkscape-font-specification:'Courier New';text-align:center;text-anchor:middle"
         id="path93596" />
      <path
         d="m 143.38738,40.447158 h 12.12463 q 0.79767,0 1.14333,0.319069 0.34566,0.31907 0.34566,0.824263 0,0.478604 -0.34566,0.797673 -0.34566,0.319069 -1.14333,0.319069 h -12.12463 v 14.863313 q 0,1.941005 1.54217,3.243872 1.56875,1.302866 4.57332,1.302866 2.26008,0 4.8924,-0.664728 2.63232,-0.691317 4.09472,-1.542168 0.53178,-0.345659 0.87744,-0.345659 0.42543,0 0.7445,0.345659 0.31907,0.319069 0.31907,0.771084 0,0.398837 -0.34566,0.744495 -0.85085,0.877441 -4.1479,1.914416 -3.27046,1.010386 -6.27503,1.010386 -3.9086,0 -6.22185,-1.834648 -2.31326,-1.834649 -2.31326,-4.945575 V 42.707232 h -4.12131 q -0.79767,0 -1.14333,-0.319069 -0.34566,-0.319069 -0.34566,-0.824262 0,-0.478604 0.34566,-0.797674 0.34566,-0.319069 1.14333,-0.319069 h 4.12131 v -6.594099 q 0,-0.797674 0.31907,-1.143332 0.31907,-0.345659 0.79768,-0.345659 0.50519,0 0.82426,0.345659 0.31907,0.345658 0.31907,1.143332 z"
         style="font-family:'Courier New';-inkscape-font-specification:'Courier New';text-align:center;text-anchor:middle"
         id="path93598" />
      <path
         d="m 185.2583,52.492025 h -22.76028 q 0.58496,4.334025 3.61612,6.992936 3.05774,2.632322 7.5513,2.632322 2.49938,0 5.23806,-0.824262 2.73868,-0.824263 4.46697,-2.180307 0.50519,-0.398837 0.87744,-0.398837 0.42543,0 0.7445,0.345658 0.31906,0.31907 0.31906,0.771084 0,0.452015 -0.42542,0.877441 -1.27628,1.329456 -4.54674,2.499377 -3.24387,1.143331 -6.67387,1.143331 -5.74324,0 -9.59866,-3.749064 -3.82884,-3.775654 -3.82884,-9.120065 0,-4.865807 3.58953,-8.348981 3.61612,-3.483173 8.93394,-3.483173 5.47736,0 9.01371,3.58953 3.53635,3.56294 3.48318,9.25301 z m -2.26008,-2.260074 q -0.66473,-3.695887 -3.50976,-6.009139 -2.81845,-2.313253 -6.72705,-2.313253 -3.9086,0 -6.72704,2.286664 -2.81845,2.286663 -3.50976,6.035728 z"
         style="font-family:'Courier New';-inkscape-font-specification:'Courier New';text-align:center;text-anchor:middle"
         id="path93600" />
      <path
         d="m 199.50313,30.103994 v 31.135848 h 8.77441 q 0.82426,0 1.16992,0.31907 0.34566,0.29248 0.34566,0.797673 0,0.478604 -0.34566,0.797673 -0.34566,0.31907 -1.16992,0.31907 h -19.7823 q -0.79768,0 -1.14333,-0.31907 -0.34566,-0.319069 -0.34566,-0.797673 0,-0.505193 0.34566,-0.797673 0.34565,-0.31907 1.14333,-0.31907 h 8.7744 V 32.364068 h -6.43456 q -0.79767,0 -1.16992,-0.319069 -0.34566,-0.319069 -0.34566,-0.824262 0,-0.478604 0.34566,-0.797674 0.34566,-0.319069 1.16992,-0.319069 z"
         style="font-family:'Courier New';-inkscape-font-specification:'Courier New';text-align:center;text-anchor:middle"
         id="path93602" />
      <path
         d="m 215.15719,40.447158 v 4.068134 q 1.99418,-2.419609 4.28084,-3.642708 2.28667,-1.223099 5.39759,-1.223099 3.29705,0 6.08891,1.542168 2.79185,1.542168 4.30743,4.307436 1.54217,2.738678 1.54217,5.769837 0,4.812629 -3.45658,8.242624 -3.43,3.403406 -8.45534,3.403406 -5.98255,0 -9.70502,-4.865807 v 13.45409 h 5.42417 q 0.79768,0 1.14334,0.29248 0.34565,0.31907 0.34565,0.824263 0,0.478604 -0.34565,0.797673 -0.34566,0.319069 -1.14334,0.319069 h -10.66223 q -0.79767,0 -1.14333,-0.319069 -0.34566,-0.29248 -0.34566,-0.797673 0,-0.505193 0.34566,-0.824263 0.34566,-0.29248 1.14333,-0.29248 h 3.00457 V 42.707232 h -3.00457 q -0.79767,0 -1.14333,-0.319069 -0.34566,-0.319069 -0.34566,-0.824262 0,-0.478604 0.34566,-0.797674 0.34566,-0.319069 1.14333,-0.319069 z m 19.35687,10.821768 q 0,-3.855421 -2.81845,-6.594099 -2.79185,-2.765268 -6.8334,-2.765268 -4.06813,0 -6.88658,2.765268 -2.81844,2.765267 -2.81844,6.594099 0,3.855421 2.81844,6.620688 2.81845,2.765268 6.88658,2.765268 4.01496,0 6.8334,-2.738678 2.81845,-2.765268 2.81845,-6.647278 z"
         style="font-family:'Courier New';-inkscape-font-specification:'Courier New';text-align:center;text-anchor:middle"
         id="path93604" />
      <path
         d="m 256.41656,63.473328 v -3.270461 q -4.57333,4.147901 -9.89115,4.147901 -3.27046,0 -4.97217,-1.78147 -2.20689,-2.339842 -2.20689,-5.450768 V 42.707232 h -3.00457 q -0.79768,0 -1.14334,-0.319069 -0.34565,-0.319069 -0.34565,-0.824262 0,-0.478604 0.34565,-0.797674 0.34566,-0.319069 1.14334,-0.319069 h 5.23805 V 57.11853 q 0,2.180307 1.38264,3.58953 1.38263,1.409223 3.45658,1.409223 5.45077,0 9.99751,-4.998753 V 42.707232 h -4.12132 q -0.79767,0 -1.14333,-0.319069 -0.34566,-0.319069 -0.34566,-0.824262 0,-0.478604 0.34566,-0.797674 0.34566,-0.319069 1.14333,-0.319069 h 6.3548 v 20.792684 h 1.88783 q 0.79767,0 1.14333,0.31907 0.34566,0.29248 0.34566,0.797673 0,0.478604 -0.34566,0.797673 -0.34566,0.31907 -1.14333,0.31907 z"
         style="font-family:'Courier New';-inkscape-font-specification:'Courier New';text-align:center;text-anchor:middle"
         id="path93606" />
      <path
         d="m 271.29953,40.447158 v 5.636891 q 4.36061,-3.935188 6.51433,-5.051931 2.18031,-1.143331 4.01495,-1.143331 1.99419,0 3.69589,1.356044 1.72829,1.329456 1.72829,2.020773 0,0.505193 -0.34566,0.850851 -0.31906,0.31907 -0.82426,0.31907 -0.26589,0 -0.45201,-0.07977 -0.18613,-0.106356 -0.69132,-0.611549 -0.93062,-0.930619 -1.62193,-1.276278 -0.69132,-0.345658 -1.35605,-0.345658 -1.4624,0 -3.53635,1.169921 -2.04736,1.169921 -7.12588,5.716659 v 12.23099 h 9.89115 q 0.82426,0 1.16992,0.31907 0.34566,0.29248 0.34566,0.797673 0,0.478604 -0.34566,0.797673 -0.34566,0.31907 -1.16992,0.31907 h -17.52223 q -0.79767,0 -1.14333,-0.292481 -0.34566,-0.319069 -0.34566,-0.797673 0,-0.452015 0.31907,-0.744495 0.34566,-0.319069 1.16992,-0.319069 h 5.39759 V 42.707232 h -4.12131 q -0.79767,0 -1.14333,-0.319069 -0.34566,-0.319069 -0.34566,-0.824262 0,-0.478604 0.31907,-0.797674 0.34566,-0.319069 1.16992,-0.319069 z"
         style="font-family:'Courier New';-inkscape-font-specification:'Courier New';text-align:center;text-anchor:middle"
         id="path93608" />
    </g>
  </g>
</svg>
