<?xml version="1.0" encoding="UTF-8" standalone="no"?>
<!-- Created with Inkscape (http://www.inkscape.org/) -->

<svg
   width="93.542488mm"
   height="85.098213mm"
   viewBox="0 0 93.542488 85.098213"
   version="1.1"
   id="svg93672"
   inkscape:version="1.3.2 (091e20e, 2023-11-25, custom)"
   sodipodi:docname="logo-mobile.svg"
   xmlns:inkscape="http://www.inkscape.org/namespaces/inkscape"
   xmlns:sodipodi="http://sodipodi.sourceforge.net/DTD/sodipodi-0.dtd"
   xmlns="http://www.w3.org/2000/svg"
   xmlns:svg="http://www.w3.org/2000/svg">
  <sodipodi:namedview
     id="namedview93674"
     pagecolor="#ffffff"
     bordercolor="#000000"
     borderopacity="0.25"
     inkscape:showpageshadow="2"
     inkscape:pageopacity="0.0"
     inkscape:pagecheckerboard="0"
     inkscape:deskcolor="#d1d1d1"
     inkscape:document-units="mm"
     showgrid="false"
     inkscape:zoom="0.70199214"
     inkscape:cx="131.0556"
     inkscape:cy="167.38079"
     inkscape:window-width="1920"
     inkscape:window-height="974"
     inkscape:window-x="-11"
     inkscape:window-y="-11"
     inkscape:window-maximized="1"
     inkscape:current-layer="layer1" />
  <defs
     id="defs93669" />
  <g
     inkscape:label="Layer 1"
     inkscape:groupmode="layer"
     id="layer1"
     transform="translate(-60.269364,-19.263079)">
    <rect
       style="fill:#ffffff;fill-opacity:1;stroke:none;stroke-width:1.03989;stroke-linecap:round;stroke-linejoin:round;stroke-dasharray:none;stroke-opacity:1;stop-color:#000000"
       id="rect37992-9-5-0-0-5-3-2-5-7-2"
       width="45.057735"
       height="51.829884"
       x="65.645531"
       y="48.562912"
       ry="1.6733238" />
    <path
       style="display:inline;fill:#4a8123;fill-opacity:1;stroke-width:0.199292"
       d="m 65.183499,100.44716 c -2.141393,-0.839622 -3.61495,-2.490302 -4.487853,-5.027562 -0.371681,-1.079965 -0.394797,-1.696453 -0.394797,-10.482954 0,-7.335636 -0.111207,-9.33547 0.0845,-9.335351 0.473721,0 6.478585,0.33224 7.811251,1.737348 0.833041,0.878121 1.80897,2.015618 2.089774,3.344698 0.233968,1.10794 0.448209,1.783059 0.579941,6.576369 0.123161,4.477609 0.216825,5.636949 0.557616,6.906261 0.755715,2.81432 2.148767,4.838529 4.099834,5.957521 l 1.019375,0.58466 -7.573087,-0.0133 c -1.940507,-0.008 -3.422839,-0.10505 -3.786551,-0.2477 z m 17.853167,0.19042 c 0.04565,-0.0409 1.473166,-0.45184 3.172127,-0.913242 6.377147,-1.73192 11.408666,-4.394284 13.221025,-5.538378 0.826262,-0.521604 2.088182,-2.047865 2.735482,-3.308643 0.1971,-0.383642 0.36789,-2.624875 1.05047,-4.578074 0.68257,-1.953199 1.39564,-3.722158 1.58456,-3.93099 0.18913,-0.208841 0.735,-0.569103 1.2131,-0.800562 1.1804,-0.571468 2.82516,-2.442595 3.72377,-4.236464 3.64006,-7.2669 3.83138,-18.300875 0.43425,-25.047244 -1.89546,-3.764246 -4.6431,-6.061364 -8.67537,-7.25293 l -1.686009,-0.49823 8.521919,-0.01056 7.76302,-0.01056 v 25.463779 25.463783 c -0.0119,2.318943 -1.64516,3.904443 -3.53026,4.799485 l -0.99646,0.46936 -16.325191,0.002 c -8.979102,0.002 -12.252071,-0.0315 -12.206433,-0.0724 z M 60.303244,63.991564 c -0.02215,-12.103336 0.006,-12.161967 1.091715,-14.297161 0.739777,-1.456305 2.880967,-3.546498 4.362305,-4.258569 0.644508,-0.309779 1.720684,-0.642656 2.391503,-0.739731 1.75775,-0.254336 22.813542,-0.195884 21.64728,0.06054 -0.49344,0.108435 -1.838663,0.401793 -2.989378,0.651904 -1.150905,0.250112 -2.944532,0.780467 -3.985833,1.178553 -1.041505,0.398085 -2.476204,0.945241 -3.188676,1.215859 -3.835767,1.456984 -6.840097,4.637962 -8.091045,8.566503 -0.430079,1.350561 -0.537097,2.20375 -0.70051,5.580173 -0.286785,5.932302 -0.779239,8.337895 -2.147969,10.496246 -1.000251,1.530103 -2.391706,2.285519 -3.62951,3.016402 -1.373717,0.81919 -4.734777,2.290602 -4.734777,2.290602 z"
       id="path295-0-2-2-8-83-7-4-5-1-1-3-4-1-7"
       sodipodi:nodetypes="csscssssscccccsssssssssccccccccccssssssscsscccs"
       inkscape:label="path295-0" />
    <path
       style="display:inline;fill:#b57fdd;fill-opacity:1;stroke-width:0.199292"
       d="m 65.152014,100.44716 c -2.141393,-0.839622 -3.614958,-2.490302 -4.487853,-5.027562 -0.371681,-1.079965 -0.394797,-1.696453 -0.394797,-10.482954 0,-7.335636 0.0534,-9.33547 0.249115,-9.335351 0.473917,0 2.643006,1.155455 3.262409,1.737348 0.882062,0.828732 1.589148,1.96073 2.089571,3.344698 0.384833,1.064953 0.448209,1.783059 0.579942,6.576369 0.12316,4.477609 0.216832,5.636949 0.557615,6.906261 0.755715,2.81432 2.148767,4.838529 4.099834,5.957521 l 1.01918,0.58466 -3.188668,-0.0133 c -1.940311,-0.008 -3.422644,-0.10505 -3.786348,-0.2477 z m 13.46874,0.19042 c 0.04565,-0.0409 1.47297,-0.45184 3.171931,-0.913242 6.377343,-1.73192 14.786266,-3.845473 16.598626,-4.989568 0.826263,-0.521604 2.197989,-2.925964 2.845289,-4.186742 0.1969,-0.383642 0.91654,-2.295586 1.59912,-4.248785 0.68257,-1.953199 1.39564,-3.722158 1.58457,-3.93099 0.18912,-0.208841 0.73499,-0.569103 1.21309,-0.800562 1.1804,-0.571468 2.82516,-2.442595 3.72377,-4.236464 3.64006,-7.2669 3.83138,-18.300875 0.43425,-25.047244 -1.89546,-3.764246 -4.6431,-6.061324 -8.67537,-7.25293 l -1.686008,-0.49823 8.522118,-0.01056 8.14287,-0.01056 v 25.463779 25.463783 c 0.0291,2.852003 -2.34667,5.180595 -4.56718,5.270015 l -0.33959,-0.002 -16.32519,0.002 c -8.978899,0.002 -16.287934,-0.0315 -16.242296,-0.0724 z M 60.271751,63.991564 c 0.0023,-12.103355 0.006,-12.161967 1.091723,-14.297161 0.73977,-1.456305 2.880967,-3.546498 4.362297,-4.258569 0.644516,-0.309779 1.720692,-0.642656 2.391503,-0.739731 1.757758,-0.254336 18.429124,-0.195884 17.262665,0.06054 -0.493244,0.108435 -1.838466,0.401793 -2.989378,0.651904 -1.150912,0.250112 -2.944539,0.780467 -3.985833,1.178553 -1.041302,0.398085 -2.476203,0.945241 -3.188675,1.215859 -3.835571,1.456984 -6.839894,4.637962 -8.09085,8.566503 -0.430071,1.350561 -0.53709,2.20375 -0.70051,5.580173 -0.286981,5.932302 -0.779231,8.337895 -2.147969,10.496246 -0.701505,1.10617 -1.657112,1.862024 -2.999148,2.371932 l -1.008212,0.383099 z"
       id="path295-7-5-0-6-9-7-9-3-0-5-6-4-5"
       sodipodi:nodetypes="csscssssscccccsssssssssccccccccccssssssscsssscs" />
    <path
       style="fill:#5a2381;fill-opacity:1;stroke-width:0.199292"
       d="m 96.151072,104.32799 c 0,-0.0556 0.31149,-1.40362 0.692338,-2.99556 2.438339,-10.587485 3.35448,-38.713569 2.047722,-47.322859 l -0.158435,-0.746149 -15.984209,-0.05102 -15.984405,-0.051 0.06952,-0.597876 c 0.119379,-1.026114 1.387471,-4.988057 2.198789,-6.86991 2.12565,-4.930582 5.155884,-8.637849 8.393775,-10.268953 7.713994,-3.886033 24.780553,-4.117431 36.086183,-0.489282 2.66274,0.854504 6.05768,2.563212 7.36822,3.708523 3.98325,3.480812 7.74109,10.200935 11.28231,20.176132 1.85142,8.090335 6.13441,26.348938 4.28737,34.438176 -2.95769,2.790104 -6.81877,4.746936 -11.10295,5.627096 -0.76728,0.15763 -2.87479,0.43441 -4.68336,0.61507 -6.05429,0.604732 -12.91551,1.868102 -20.02884,3.687972 -2.082593,0.53282 -3.943582,1.02995 -4.135301,1.10476 -0.191923,0.0748 -0.34876,0.0905 -0.34876,0.0349 z"
       id="path295-8-15-6-7-1-5-0-6-6-4-4-6-0-6"
       sodipodi:nodetypes="scccccsssscccsssss" />
    <path
       style="color:#000000;fill:#ff822c;fill-opacity:1;stroke-width:0.199292;stroke-linecap:round;stroke-linejoin:round;-inkscape-stroke:none"
       d="m 119.51625,64.151197 a 2.1922108,2.1922108 0 0 0 -2.28169,2.099201 2.1922108,2.1922108 0 0 0 2.09874,2.281673 l 22.29259,0.928461 a 2.1922108,2.1922108 0 0 0 2.2813,-2.099141 2.1922108,2.1922108 0 0 0 -2.09875,-2.281294 z"
       id="path15924-7-9-9-1-9-9-1-0-1-2-0-5-5-0" />
    <path
       id="path2404-3-4-2-8-0-0-8-2-2-8-1-2-1"
       style="fill:#ff822c;fill-opacity:1;stroke-width:2.87467;stroke-linecap:round;stroke-linejoin:round;stop-color:#000000"
       d="m 123.11546,61.64845 a 9.2356334,9.2356334 0 0 1 -2.5041,12.818873 9.2356334,9.2356334 0 0 1 -12.81885,-2.504063 9.2356334,9.2356334 0 0 1 2.5041,-12.818854 9.2356334,9.2356334 0 0 1 12.81885,2.504044 z" />
    <path
       style="color:#000000;fill:#ff822c;fill-opacity:1;stroke-width:0.199292;stroke-linecap:round;stroke-linejoin:round;-inkscape-stroke:none"
       d="m 118.75874,69.432412 a 1.9929189,1.9929189 0 0 0 -1.41497,0.569815 1.9929189,1.9929189 0 0 0 -0.0275,2.818247 l 15.62129,15.930575 a 1.9929189,1.9929189 0 0 0 2.81839,0.02757 1.9929189,1.9929189 0 0 0 0.0275,-2.818244 L 120.16196,70.02981 a 1.9929189,1.9929189 0 0 0 -1.40322,-0.597398 z"
       id="path15924-7-9-9-1-2-8-1-9-7-4-7-8-3-8-5"
       inkscape:transform-center-x="43.755842"
       inkscape:transform-center-y="-6.5628829" />
    <path
       id="path2404-3-4-2-2-2-1-1-2-1-6-5-1-7-4"
       style="fill:#ff822c;fill-opacity:1;stroke-width:2.02056;stroke-linecap:round;stroke-linejoin:round;stop-color:#000000"
       d="m 136.09236,84.526857 a 6.4915763,6.4915763 0 0 1 8.00157,4.50077 6.4915763,6.4915763 0 0 1 -4.50081,8.001509 6.4915763,6.4915763 0 0 1 -8.00157,-4.50077 6.4915763,6.4915763 0 0 1 4.50081,-8.001509 z"
       inkscape:transform-center-x="1.073965"
       inkscape:transform-center-y="36.476664" />
    <path
       style="color:#000000;fill:#ff822c;fill-opacity:1;stroke:none;stroke-width:3.19619;stroke-linecap:round;stroke-linejoin:round;stroke-dasharray:none"
       d="m 152.29438,61.834369 a 8.9026857,8.9026857 0 0 1 -2.41362,12.356755 8.9026857,8.9026857 0 0 1 -12.35689,-2.413783 8.9026857,8.9026857 0 0 1 2.41382,-12.356756 8.9026857,8.9026857 0 0 1 12.35669,2.413784 z"
       id="path47726-07-8-2-5-6-1-9-7-6-6" />
    <path
       style="color:#000000;fill:#ff822c;fill-opacity:1;stroke-width:0.199292;stroke-linecap:round;stroke-linejoin:round;-inkscape-stroke:none"
       d="m 133.63269,33.441671 a 2.0977464,2.0977464 0 0 0 -2.8128,0.943468 l -15.61791,31.390666 a 2.0977464,2.0977464 0 0 0 0.94345,2.812327 2.0977464,2.0977464 0 0 0 2.8128,-0.943468 l 15.61791,-31.390665 a 2.0977464,2.0977464 0 0 0 -0.94345,-2.812328 z"
       id="path15924-0-2-7-83-3-7-8-1-7-8-4-8-7" />
    <path
       id="path2404-0-9-5-5-2-2-6-4-4-6-8-0-3-6-8"
       style="fill:#ff822c;fill-opacity:1;stroke:none;stroke-width:4.78301;stroke-linecap:round;stroke-linejoin:round;stroke-opacity:1"
       d="M 149.27591,31.001023 A 14.824681,14.824681 0 0 1 137.86286,48.587536 14.824681,14.824681 0 0 1 120.27635,37.174508 14.824681,14.824681 0 0 1 131.6894,19.587995 14.824681,14.824681 0 0 1 149.27591,31.001023 Z" />
  </g>
</svg>
