<?xml version="1.0" encoding="UTF-8" standalone="no"?>
<svg
   data-name="Layer 1"
   viewBox="0 0 400.25006 455.16864"
   x="0px"
   y="0px"
   version="1.1"
   id="svg2"
   sodipodi:docname="noun-help-4401693.svg"
   inkscape:version="1.3.2 (091e20e, 2023-11-25, custom)"
   width="400.25006"
   height="455.16864"
   xmlns:inkscape="http://www.inkscape.org/namespaces/inkscape"
   xmlns:sodipodi="http://sodipodi.sourceforge.net/DTD/sodipodi-0.dtd"
   xmlns="http://www.w3.org/2000/svg"
   xmlns:svg="http://www.w3.org/2000/svg">
  <defs
     id="defs2" />
  <sodipodi:namedview
     id="namedview2"
     pagecolor="#ffffff"
     bordercolor="#000000"
     borderopacity="0.25"
     inkscape:showpageshadow="2"
     inkscape:pageopacity="0.0"
     inkscape:pagecheckerboard="0"
     inkscape:deskcolor="#d1d1d1"
     inkscape:zoom="1.1546875"
     inkscape:cx="200.05413"
     inkscape:cy="291.42084"
     inkscape:window-width="1920"
     inkscape:window-height="974"
     inkscape:window-x="-11"
     inkscape:window-y="-11"
     inkscape:window-maximized="1"
     inkscape:current-layer="svg2" />
  <path
     d="m 393.21007,253.58357 h -10.62 l -27.75,-51.34 13.44,-55.05 a 38.29,38.29 0 0 0 -14.3,-39.81 l -75.11,-56.150003 a 41.37,41.37 0 0 0 -37.51,-6.1 c 0.11,-1.22 0.17,-2.46 0.17,-3.71 a 41.42,41.42 0 1 0 -42.15,41.41 l -64.09,69.090003 -0.74,0.39 -46.329999,25.79 a 41.42,41.42 0 1 0 -58.45,27.24 53.6,53.6 0 0 0 -21.5399998,47.65 l 13.9999998,120.17 -16.5499998,67 -3.1,2.54 a 7.0250712,7.0250712 0 1 0 8.8899998,10.88 l 30.76,-25.17 0.09,-0.07 88.509999,-72.42 v 0 l 92.39,-75.6 a 56.31,56.31 0 0 1 35.56,-12.74 h 134.43 a 7.04,7.04 0 0 0 0,-14.08 z m -220.44,-212.160003 a 27.34,27.34 0 1 1 27.34,27.34 27.37,27.37 0 0 1 -27.34,-27.34 z M 20.670071,168.16357 a 27.34,27.34 0 1 1 27.34,27.35 27.38,27.38 0 0 1 -27.34,-27.35 z m 15.67,204.63 -14.1,-121.21 a 39.36,39.36 0 0 1 32.21,-42 l 3.67,-0.68 a 59.12,59.12 0 0 0 28.54,-13.87 l 54.729999,-30.45 a 8.82,8.82 0 0 1 9.46,14.85 l -76.459999,55.36 a 7.07,7.07 0 0 0 -2.84,4.7 l -18.16,126.48 a 25.27,25.27 0 0 1 -1.56,5.31 l -19.79,47.3 -8.2,6.71 12.34,-50 a 7.07,7.07 0 0 0 0.16,-2.5 z m 82.999999,-25.65 -13.23,10.78 v -36.92 a 7,7 0 0 0 -6.999999,-7 h -24 l 2.19,-15.42 h 25.999999 a 16,16 0 0 1 16,16 z m -54.499999,29.58 a 39.66,39.66 0 0 0 2.47,-8.51 l 5.8,-40.17 h 19 v 41.4 l -36.85,30.14 z m 149.499999,-107.3 -80.94,66.16 v -21 a 30.1,30.1 0 0 0 -30.07,-30.06 H 79.330071 l 5.74,-40 74.039999,-53.65 c 0.62,-0.45 1.22,-0.93 1.79,-1.43 l 79.42,-65.36 33.4,17.5 -39.22,28.73 a 26.86,26.86 0 0 0 -8.23,33.64 l 24.7,50 a 70.32,70.32 0 0 0 -36.65,15.47 z m 83.09,-15.84 -21.22,-51.43 27.22,-14.07 a 58.76,58.76 0 0 0 11.56,36.83 l 21.18,28.67 z m 8.08,-82.38 -41.51,21.38 a 7,7 0 0 0 -3.27,8.94 l 21.47,52 h -15.76 l -27.55,-55.79 a 12.81,12.81 0 0 1 3.92,-16 l 44.78,-32.81 19.69,10.34 z m 48.18,82.38 -27.38,-37 a 44.73,44.73 0 0 1 -8.4,-33 l 4,-27.23 a 7,7 0 0 0 -3.69,-7.26 l -75.52,-39.66 a 7.06,7.06 0 0 0 -7.75,0.8 l -67.34,55.45 a 22.91,22.91 0 0 0 -12.64,-14.27 l 78.76,-84.920003 a 27.2,27.2 0 0 1 36.71,-4 l 75.11,56.090003 a 24.23,24.23 0 0 1 9.05,25.19 l -14.08,57.68 a 7.06,7.06 0 0 0 0.65,5 l 25.41,47 z"
     id="path1" />
</svg>
