<?xml version="1.0" encoding="UTF-8" standalone="no"?>
<svg
   data-name="Layer 1"
   viewBox="0 0 431.2601 364.14807"
   x="0px"
   y="0px"
   version="1.1"
   id="svg4"
   sodipodi:docname="noun-embrace-4401687.svg"
   inkscape:version="1.3.2 (091e20e, 2023-11-25, custom)"
   width="431.2601"
   height="364.14807"
   xmlns:inkscape="http://www.inkscape.org/namespaces/inkscape"
   xmlns:sodipodi="http://sodipodi.sourceforge.net/DTD/sodipodi-0.dtd"
   xmlns="http://www.w3.org/2000/svg"
   xmlns:svg="http://www.w3.org/2000/svg">
  <defs
     id="defs4" />
  <sodipodi:namedview
     id="namedview4"
     pagecolor="#ffffff"
     bordercolor="#000000"
     borderopacity="0.25"
     inkscape:showpageshadow="2"
     inkscape:pageopacity="0.0"
     inkscape:pagecheckerboard="0"
     inkscape:deskcolor="#d1d1d1"
     inkscape:zoom="1.1546875"
     inkscape:cx="215.64276"
     inkscape:cy="246.38701"
     inkscape:window-width="1920"
     inkscape:window-height="974"
     inkscape:window-x="-11"
     inkscape:window-y="-11"
     inkscape:window-maximized="1"
     inkscape:current-layer="svg4" />
  <path
     d="m 61.450084,246.04807 a 7,7 0 0 0 -7,7 v 104.06 a 7.04,7.04 0 0 0 14.08,0 v -104 a 7,7 0 0 0 -7.08,-7.06 z"
     id="path1" />
  <path
     d="m 421.36008,174.74807 a 7.49,7.49 0 0 0 -0.36,-0.69 92.07,92.07 0 0 0 -54.46,-45.51 5.65,5.65 0 0 0 -0.8,-0.24 90.76,90.76 0 0 0 -14.44,-3.06 69.27,69.27 0 1 0 -82.6,-0.74 h -106.14 a 69.27,69.27 0 1 0 -82.599996,0.74 90.76,90.76 0 0 0 -14.44,3.06 5.65,5.65 0 0 0 -0.8,0.24 92.06,92.06 0 0 0 -54.51,45.56 c -0.11,0.19 -0.2,0.37 -0.2900001,0.56 a 91,91 0 0 0 -9.919999998365,41.44 v 141 a 7.04,7.04 0 0 0 14.080000098365,0 v -141 a 77.4,77.4 0 0 1 3.32,-22.44 l 0.42,0.74 a 37.18,37.18 0 0 0 32.28,18.6 36.79,36.79 0 0 0 17.85,-4.61 l 4.9,-2.72 a 37.06,37.06 0 0 0 13.87,-51.36 l -8.67,-14.57 a 78,78 0 0 1 13.58,-1.16 H 251.83008 l -39.89,37.58 a 52.7,52.7 0 0 0 -16.5,38.21 v 142.73 a 7.04,7.04 0 0 0 14.08,0 v -142.73 a 38.54,38.54 0 0 1 12.08,-28 l 50.77,-47.83 h 67.26 a 78,78 0 0 1 13.59,1.19 l -8.67,14.57 a 37.06,37.06 0 0 0 13.87,51.36 l 4.9,2.71 a 36.69,36.69 0 0 0 17.85,4.62 37.18,37.18 0 0 0 32.28,-18.6 l 0.42,-0.73 a 77.28,77.28 0 0 1 3.31,22.44 v 141 a 7.04,7.04 0 0 0 14.08,0 v -141 a 91.15,91.15 0 0 0 -9.9,-41.36 z m -346.729996,-13.2 a 23,23 0 0 1 -8.6,31.84 l -4.9,2.72 a 23.07,23.07 0 0 1 -31.08,-8.67 l -5.66,-9.88 a 78,78 0 0 1 39.61,-33.87 z m -9,-92.229997 A 55.19,55.19 0 1 1 120.82008,124.50807 55.25,55.25 0 0 1 65.570084,69.318073 Z m 189.739996,0 a 55.19,55.19 0 1 1 55.19,55.189997 55.25,55.25 0 0 1 -55.25,-55.189997 z m 145.85,118.119997 a 23.06,23.06 0 0 1 -31.08,8.67 l -4.9,-2.71 a 23,23 0 0 1 -8.6,-31.85 l 10.63,-17.86 a 78,78 0 0 1 39.61,33.87 z"
     id="path2" />
  <path
     d="m 369.81008,246.04807 a 7,7 0 0 0 -7,7 v 104.06 a 7.04,7.04 0 0 0 14.08,0 v -104 a 7,7 0 0 0 -7.08,-7.06 z"
     id="path3" />
</svg>
