<?xml version="1.0" encoding="UTF-8" standalone="no"?>
<svg
   data-name="Layer 1"
   viewBox="0 0 468.45404 416.16"
   x="0px"
   y="0px"
   version="1.1"
   id="svg10"
   sodipodi:docname="noun-online-education-4097351.svg"
   inkscape:version="1.3.2 (091e20e, 2023-11-25, custom)"
   width="468.45404"
   height="416.16"
   xmlns:inkscape="http://www.inkscape.org/namespaces/inkscape"
   xmlns:sodipodi="http://sodipodi.sourceforge.net/DTD/sodipodi-0.dtd"
   xmlns="http://www.w3.org/2000/svg"
   xmlns:svg="http://www.w3.org/2000/svg">
  <defs
     id="defs10" />
  <sodipodi:namedview
     id="namedview10"
     pagecolor="#ffffff"
     bordercolor="#000000"
     borderopacity="0.25"
     inkscape:showpageshadow="2"
     inkscape:pageopacity="0.0"
     inkscape:pagecheckerboard="0"
     inkscape:deskcolor="#d1d1d1"
     inkscape:zoom="1.1546875"
     inkscape:cx="234.69553"
     inkscape:cy="272.36806"
     inkscape:window-width="1920"
     inkscape:window-height="974"
     inkscape:window-x="-11"
     inkscape:window-y="-11"
     inkscape:window-maximized="1"
     inkscape:current-layer="svg10" />
  <title
     id="title1">N_P_188Artboard 1 copy 7</title>
  <path
     d="m 463.22702,404.26 h -193.14 l 16.73,-33.82 a 99.36,99.36 0 0 0 -19.44,-115.19 l -0.86,-0.85 a 131.31,131.31 0 0 0 -78.29,-37.14 73,73 0 1 0 -77.3,0 131.33,131.33 0 0 0 -78.330001,37.14 l -0.86,0.85 a 99.36,99.36 0 0 0 -19.51,115.19 l 16.73,33.82 H 5.2270188 a 6,6 0 0 0 0,11.9 H 463.22702 a 6,6 0 0 0 0,-11.9 z M 88.467019,155.41 a 61.07,61.07 0 1 1 61.070001,61.08 61.14,61.14 0 0 1 -61.070001,-61.08 z m -65.55,209.76 a 87.52,87.52 0 0 1 17.11,-101.43 l 0.87,-0.85 a 119.59,119.59 0 0 1 84.330001,-34.51 h 48.64 a 119.62,119.62 0 0 1 84.36,34.5 l 0.86,0.85 a 87.52,87.52 0 0 1 17.12,101.44 l -19.35,39.09 h -13.58 V 298.38 a 22.86,22.86 0 0 0 -22.84,-22.84 H 78.637019 a 22.86,22.86 0 0 0 -22.84,22.84 v 105.88 h -13.57 z M 231.38702,404.26 H 67.687019 V 298.38 a 11,11 0 0 1 11,-10.95 H 220.48702 a 11,11 0 0 1 10.95,10.95 z"
     id="path1" />
  <path
     d="m 149.53702,320.53 c -26,0 -45.63,10.35 -45.63,24.07 0,13.72 19.62,24.07 45.63,24.07 26.01,0 45.63,-10.35 45.63,-24.07 0,-13.72 -19.62,-24.07 -45.63,-24.07 z m 0,36.24 c -20.28,0 -33.73,-7.32 -33.73,-12.17 0,-4.85 13.45,-12.18 33.73,-12.18 20.28,0 33.69,7.33 33.69,12.18 0,4.85 -13.41,12.17 -33.69,12.17 z"
     id="path2" />
  <path
     d="m 316.00702,128.43 a 16.52,16.52 0 0 1 5.59,12.24 v 11.15 a 6,6 0 0 0 5.95,5.95 h 36.87 a 6,6 0 0 0 5.95,-5.95 v -11.15 a 16.68,16.68 0 0 1 5.76,-12.41 37.51,37.51 0 0 0 12.29,-27.76 c 0,-13.17 -7.12,-25.26 -19.31,-32.5 a 43.56,43.56 0 0 0 -22.27,-6 h -1.71 a 43.84,43.84 0 0 0 -22.53,6.2 c -11.94,7.09 -19.06,19.18 -19.06,32.78 a 37.48,37.48 0 0 0 12.47,27.45 z m 12.91,-50.2 a 31.7,31.7 0 0 1 16.21,-4.38 h 1.71 a 32,32 0 0 1 16.45,4.52 c 8.29,4.93 13.24,13.2 13.24,22.56 a 25.21,25.21 0 0 1 -8.62,18.72 28.69,28.69 0 0 0 -9.44,21 v 5.2 h -25 v -5.2 a 28.85,28.85 0 0 0 -9.62,-21.19 25.25,25.25 0 0 1 -8.43,-19 c 0.02,-8.89 4.97,-17.16 13.5,-22.23 z"
     id="path3" />
  <path
     d="m 345.97702,55.78 a 6,6 0 0 0 5.95,-6 V 33.52 a 6,6 0 0 0 -11.9,0 v 16.31 a 6,6 0 0 0 5.95,5.95 z"
     id="path4" />
  <path
     d="m 285.47702,96.74 a 5.95,5.95 0 0 0 0,-11.89 h -16.32 a 5.95,5.95 0 0 0 0,11.89 z"
     id="path5" />
  <path
     d="m 400.53702,90.79 a 6,6 0 0 0 5.95,5.95 h 16.31 a 5.95,5.95 0 1 0 0,-11.89 h -16.31 a 5.94,5.94 0 0 0 -5.95,5.94 z"
     id="path6" />
  <path
     d="m 298.22702,63.33 a 5.95,5.95 0 1 0 8.41,-8.41 l -11.5,-11.53 a 5.95,5.95 0 0 0 -8.41,8.41 z"
     id="path7" />
  <path
     d="m 389.49702,65.08 a 6,6 0 0 0 4.21,-1.74 l 11.52,-11.54 a 5.95,5.95 0 0 0 -8.41,-8.41 l -11.53,11.53 a 5.95,5.95 0 0 0 4.2,10.15 z"
     id="path8" />
  <path
     d="m 255.10702,209.28 a 5.95,5.95 0 0 0 9.49,4.77 l 34.63,-25.74 a 128.58,128.58 0 0 0 46.79,8.64 c 62.94,0 114.15,-44.18 114.15,-98.47 0,-54.29 -51.25,-98.48 -114.19,-98.48 -62.94,0 -114.14,44.18 -114.14,98.48 0,21.78 8,42.32 23.27,59.57 z m -11.37,-110.8 c 0,-47.74 45.86,-86.58 102.24,-86.58 56.38,0 102.25,38.84 102.25,86.58 0,47.74 -45.87,86.6 -102.25,86.6 a 116.28,116.28 0 0 1 -45.35,-9 6,6 0 0 0 -5.86,0.71 l -27.77,20.67 v -41.7 a 5.92,5.92 0 0 0 -1.58,-4 c -14.19,-15.39 -21.68,-33.81 -21.68,-53.28 z"
     id="path9" />
</svg>
