<?xml version="1.0" encoding="UTF-8"?>
<svg id="Layer_1" data-name="Layer 1" xmlns="http://www.w3.org/2000/svg" viewBox="0 0 593 414">
  <defs>
    <style>
      .cls-1 {
        fill: #006841;
      }
    </style>
  </defs>
  <g>
    <path class="cls-1" d="m394.92,129.99c-8.39-11.58-25.25-13.91-38.11-9.48-11.51,3.96-21.65,12.01-30.68,20.19-4.99-4.64-9.87-9.39-14.39-14.5-1.98-2.24-3.91-4.53-5.67-6.95-.92-1.26-3-3.5-3.19-5.11-.08-.69.64-1.66,1.12-2.32,1.64-2.31,3.42-4.35,4.77-6.88,2.62-4.92,4.96-10.82,3.9-16.46-1.22-6.48-7.04-10.42-13.28-11.29-6.07-.85-11,1.19-15.98,4.32-4.83,3.04-7.81,7.13-7.76,13.07.06,7.97,4.88,14.09,8.94,20.51.51.8.8,1.08.66,1.93-.13.76-.93,1.67-1.33,2.3-1.72,2.72-3.77,5.24-5.86,7.68-4.06,4.74-8.46,9.18-12.98,13.48-10.05-9.36-21.57-19.65-35.61-21.74-11.79-1.76-24.22,1.89-32.92,10.15-10.89,10.34-10.7,28.81-.3,39.42,9.08,9.26,24.06,10.34,35.96,6.7,10.86-3.32,21.06-10.37,30.05-17.55,7.05,6.61,13.66,13.66,20.93,20.03.53.46,1.58,1.14,1.51,1.62-.07.43-1.76,1.46-2.17,1.79-1.7,1.4-3.4,2.78-5.12,4.15-13.69,10.94-27.82,21.44-42.62,30.83-7.98,5.06-16.76,8.78-24.61,13.99-3.11,2.06-5.08,5.55-2.5,8.96,2.6,3.43,7.27,1.29,10.34-.33,11.55-6.1,22.71-13.41,33.55-20.68,14.42-9.67,27.95-20.8,41.15-32.08,13.62,11.69,27.82,22.96,42.61,33.13,7.2,4.95,14.58,9.66,22.03,14.23,4.27,2.62,9.71,6.97,14.86,7.38.92.07,1.84-.14,2.74-.5,0,0-.01.01-.02.02.01,0,.02-.01.03-.02,1.54-.63,2.99-1.7,4.2-2.6.01-.01.03-.02.04-.03.01,0,.02-.01.03-.02,0,0-.01,0-.02,0,3.07-2.32,3.5-6.38.59-9.07-3.12-2.89-8.07-4.46-11.79-6.53-4.09-2.27-8.11-4.68-12.07-7.16-14.38-9.02-28.14-19.06-41.48-29.55-2.23-1.76-4.46-3.53-6.66-5.32-.78-.63-4.11-2.87-3.98-3.57.19-1.02,3.47-3.05,4.12-3.64,2.24-2.03,4.42-4.11,6.58-6.22,2.85-2.78,5.64-5.64,8.49-8.42,9.86,8.13,21.14,16.48,34.02,18.57,6.25,1.02,13.09.94,19.15-.95,4.44-1.39,8.7-3.99,12.45-6.73,11.94-8.73,14.97-26.7,6.25-38.75Zm-48.09,6.01c1.08-.68,2.07-1.3,3.01-1.87,2.9-1.56,5.93-2.74,9.07-3.31,8.5-1.55,18.21.43,23.51,7.8,5.06,7.03,4.67,19.65-3.3,24.67-5.82,3.67-14.96,2.43-21.02.49-5.76-1.84-11.13-4.79-16.09-8.22-2.8-1.94-5.47-4.06-8.04-6.29-1.2-1.04-1.64-.99-.45-2.18,2.73-2.72,5.75-5.57,9.02-8.12,1.66-1.22,3.16-2.25,4.28-2.97Zm-59.12-42.83c.11-1.6.64-3.05,1.58-4.23,2.92-.79,6.25-.5,8.7,1.26,2.74,1.97,3.15,5,2.89,8.16-.35,4.19-2.54,7.79-5.34,10.84-4.55-4.37-7.86-9.51-7.82-16.02,0,.06-.02.11-.05.17.03-.05.05-.11.05-.17Zm20.48,49.04c1.77,1.81,3.53,3.61,5.31,5.41.28.28.55.56.83.84,1.04,1.05,1.31.93.21,2.02-6.37,6.29-12.47,12.86-18.88,19.11-3.94-3.71-7.85-7.44-11.7-11.24-2.9-2.86-5.77-5.75-8.61-8.67-.29-.3-2.21-1.8-2.36-2.44-.13-.56.46-.92.97-1.44,6.35-6.44,12.63-12.96,18.86-19.52,5.09,5.34,10.22,10.65,15.37,15.93Zm-99.26-9.72c.07-.08.14-.14.2-.2-.05,0-.09-.02-.14-.04.12-.06.24-.1.36-.16.23-.2.31-.2.29-.13.08-.03.15-.07.23-.1.38-.16.77-.32,1.16-.45,2.65-.93,5.47-1.32,8.27-1.32,5.01,0,9.81,1.2,14.21,3.56,5,2.67,9.67,5.96,14.08,9.5,2.34,1.87,4.6,3.84,6.74,5.94,1.13,1.12,1.73,1.18.42,2.33-8.04,7.02-17.34,13.09-28.29,13.8-7.41.48-15.53-2.17-20.12-8.25-5.23-6.93-4.36-17.22,1.55-23.46.34-.35.72-.67,1.05-1.02Zm33.34,91.32c-5.19,3.42-10.48,6.68-15.9,9.74,4.13-2.44,9.85-5.88,15.9-9.74Z"/>
    <path class="cls-1" d="m209.64,131.96c-.1.04-.19.08-.29.13-.06.05-.13.12-.21.2.25.02.48-.22.5-.33Z"/>
  </g>
  <g>
    <path class="cls-1" d="m108.91,315.83h-19.89l-2.31,6.09c-.8,2.06-1.2,3.92-1.2,5.57,0,2.69,1.86,4.03,5.57,4.03v2.4h-18.01v-2.4c1.77,0,3.52-1.21,5.23-3.64,1.71-2.43,3.94-7.16,6.69-14.19l15.01-38.42h4.03l18.61,44.68c2.23,5.26,3.84,8.5,4.85,9.73,1,1.23,2.27,1.84,3.82,1.84v2.4h-24.1v-2.4c4.29,0,6.43-.94,6.43-2.83,0-.69-.14-1.34-.43-1.97l-4.29-10.89Zm-18.52-3.69h17.06l-4.89-12.35c-1.71-4.12-2.97-7.63-3.77-10.55-.63,2.23-1.83,5.66-3.6,10.29l-4.8,12.61Zm24.3-49.79l-15.2,9.36c-.26.16-.57.21-.86.14h0c-.8-.19-1.14-1.14-.64-1.79l6.94-9.22c.21-.29.55-.45.91-.45h8.35c.91,0,1.37.29,1.37.86,0,.34-.29.72-.86,1.11Z"/>
    <path class="cls-1" d="m145.61,301.77c1.2-2.92,2.84-5.22,4.93-6.9,2.09-1.69,4.21-2.53,6.39-2.53,2,0,3.57.59,4.72,1.76,1.14,1.17,1.72,2.67,1.72,4.5,0,2.17-.53,3.79-1.59,4.84-1.06,1.06-2.22,1.59-3.47,1.59-1.09,0-1.92-.29-2.49-.86-.57-.57-.89-1.21-.94-1.93-.06-.71-.29-1.36-.69-1.93-.4-.57-1.03-.86-1.89-.86-1.49,0-2.69.53-3.6,1.59-.92,1.06-1.56,2.9-1.93,5.53-.37,2.63-.59,4.97-.64,7.03-.06,2.06-.09,5.26-.09,9.6v1.97c0,2.92.24,4.7.73,5.36.48.66,1.84.99,4.07.99v2.4h-16.89v-2.4c1.14,0,1.93-.44,2.36-1.33.43-.88.64-2.59.64-5.1v-24.44c0-1.2-.26-2.04-.77-2.53s-1.43-.73-2.74-.73v-2.49l11.58-2.57c.4,2.46.6,5.6.6,9.43Z"/>
    <path class="cls-1" d="m178.28,292.33c.29,2.23.43,5.15.43,8.75,3.77-5.83,8.97-8.75,15.61-8.75,3.03,0,5.45.99,7.25,2.96,1.8,1.97,2.7,4.85,2.7,8.62v20.24c0,2.92.23,4.87.69,5.87.46,1,1.2,1.5,2.23,1.5v2.4h-16.12v-2.4c1.66,0,2.74-.34,3.26-1.03.51-.69.77-2.29.77-4.8v-19.38c0-5.37-2.06-8.06-6.17-8.06-2.4,0-4.6.96-6.6,2.87-2,1.92-3.03,4.5-3.09,7.76v17.06c0,2.46.23,4,.69,4.63.46.63,1.51.94,3.17.94v2.4h-16.04v-2.4c1.14,0,1.93-.5,2.36-1.5.43-1,.64-2.96.64-5.87v-23.5c0-1.2-.26-2.04-.77-2.53-.51-.49-1.43-.73-2.74-.73v-2.49l11.75-2.57Z"/>
    <path class="cls-1" d="m238.22,325.86h-.51c-2,5.95-6.52,8.92-13.55,8.92-3.26,0-5.87-.86-7.85-2.57-1.97-1.71-2.96-4.06-2.96-7.03,0-7.26,7.69-12.75,23.07-16.46v-5.14c0-2.92-.54-4.96-1.63-6.13-1.09-1.17-2.74-1.76-4.97-1.76-2,0-3.49.42-4.46,1.24-.97.83-1.46,1.87-1.46,3.13,0,.4.1,1,.3,1.8.2.8.3,1.4.3,1.8,0,1.32-.46,2.37-1.37,3.17-.92.8-2,1.2-3.26,1.2s-2.44-.43-3.39-1.29c-.94-.86-1.41-2.06-1.41-3.6,0-2.92,1.5-5.45,4.5-7.59,3-2.14,6.93-3.22,11.79-3.22,9.49,0,14.23,3.8,14.23,11.4,0,2-.06,5.06-.17,9.18-.12,4.12-.17,7.12-.17,9,0,6.4,1,9.6,3,9.6v2.4h-8.92c-.69-2.46-1.06-5.15-1.11-8.06Zm-1.97-5.49c.11-1.94.17-4.92.17-8.92-4.23.97-7.52,2.34-9.86,4.12-2.34,1.77-3.52,4.37-3.52,7.8,0,2.06.5,3.6,1.5,4.63,1,1.03,2.33,1.54,3.99,1.54,2.17,0,3.94-.8,5.32-2.4,1.37-1.6,2.17-3.86,2.4-6.77Z"/>
    <path class="cls-1" d="m255.54,333.92v-13.63h2.32c.29,3.66,1.34,6.5,3.17,8.53,1.83,2.03,4.32,3.04,7.46,3.04,2.11,0,3.82-.5,5.1-1.5,1.29-1,1.93-2.33,1.93-3.99s-.67-3.1-2.02-4.33c-1.34-1.23-2.97-2.29-4.89-3.17-1.92-.89-3.85-1.86-5.79-2.92-1.94-1.06-3.59-2.56-4.93-4.5-1.34-1.94-2.02-4.26-2.02-6.95,0-3.49,1.3-6.39,3.9-8.7,2.6-2.31,6.02-3.47,10.25-3.47,1.49,0,3.52.26,6.09.77,2.57.51,4.32.77,5.23.77v12.26c0,.29-.34.43-1.03.43l-1.37-.43c-.29-3.14-1.22-5.66-2.79-7.55-1.57-1.89-3.73-2.83-6.47-2.83-2,0-3.52.5-4.54,1.5-1.03,1-1.54,2.33-1.54,3.99s.69,3.02,2.06,4.25c1.37,1.23,3.04,2.31,5.02,3.26,1.97.94,3.93,1.94,5.87,3,1.94,1.06,3.6,2.52,4.97,4.37,1.37,1.86,2.06,4.02,2.06,6.47,0,3.66-1.43,6.64-4.29,8.96-2.86,2.31-6.6,3.47-11.23,3.47-1.32,0-3.56-.19-6.73-.56-3.17-.37-5.1-.56-5.79-.56Z"/>
    <path class="cls-1" d="m312.4,327.15c-.63,2.34-1.96,4.19-3.99,5.53-2.03,1.34-4.33,2.02-6.9,2.02s-4.56-.8-6.13-2.4c-1.57-1.6-2.36-3.97-2.36-7.12v-26.41h-5.15v-2.23c1.83-.11,4.06-1.67,6.69-4.67,2.63-3,4.54-6.27,5.75-9.82h2.4c-.23,3.49-.34,7.37-.34,11.66h8.92v5.06h-9.09c-.06,5.09-.09,13.35-.09,24.78,0,3.26,1.43,4.89,4.29,4.89,1.83,0,3.4-.77,4.72-2.31l1.29,1.03Z"/>
    <path class="cls-1" d="m336.32,292.33c5.43,0,9.68,1.89,12.73,5.66,3.06,3.77,4.59,8.6,4.59,14.49,0,6.23-1.83,11.56-5.49,15.99-3.66,4.43-8.55,6.65-14.66,6.65-5.32,0-9.56-1.86-12.73-5.57-3.17-3.72-4.76-8.52-4.76-14.41,0-6.23,1.84-11.59,5.53-16.08,3.69-4.49,8.62-6.73,14.79-6.73Zm-2.23,3.77c-2.52,0-4.49,1.14-5.92,3.43-1.43,2.29-2.14,5.72-2.14,10.29,0,7.37.9,12.83,2.7,16.38,1.8,3.55,4.24,5.32,7.33,5.32,2.46,0,4.36-1.12,5.7-3.35,1.34-2.23,2.02-5.37,2.02-9.43,0-15.09-3.23-22.64-9.69-22.64Z"/>
    <path class="cls-1" d="m373.11,326.46c0,2.12.27,3.49.81,4.12.54.63,1.84.94,3.9.94v2.4h-16.89v-2.4c1.14,0,1.93-.5,2.36-1.5.43-1,.64-2.96.64-5.87v-25.38h-5.4v-2.4c3.6-.23,5.4-1.77,5.4-4.63,0-5.09,1.26-9.2,3.77-12.35,2.51-3.14,6.09-4.72,10.72-4.72,4.86,0,7.29,2.09,7.29,6.26,0,1.49-.42,2.64-1.24,3.47-.83.83-1.87,1.24-3.13,1.24-1.03,0-1.87-.3-2.53-.9-.66-.6-.99-1.41-.99-2.44,0-.29.03-.6.09-.94.06-.34.09-.6.09-.77,0-1.66-.74-2.49-2.23-2.49-1.32,0-2.36.77-3.13,2.31-.77,1.54-1.16,3.52-1.16,5.92,0,3.55.63,6,1.89,7.37h7.63v5.06h-7.72c-.12,5.95-.17,15.18-.17,27.7Z"/>
    <path class="cls-1" d="m398.06,292.33c.29,2.23.43,5.15.43,8.75,3.77-5.83,8.97-8.75,15.61-8.75,3.03,0,5.45.99,7.25,2.96,1.8,1.97,2.7,4.85,2.7,8.62v20.24c0,2.92.23,4.87.69,5.87.46,1,1.2,1.5,2.23,1.5v2.4h-16.12v-2.4c1.66,0,2.74-.34,3.26-1.03.51-.69.77-2.29.77-4.8v-19.38c0-5.37-2.06-8.06-6.17-8.06-2.4,0-4.6.96-6.6,2.87-2,1.92-3.03,4.5-3.09,7.76v17.06c0,2.46.23,4,.69,4.63.46.63,1.51.94,3.17.94v2.4h-16.04v-2.4c1.14,0,1.93-.5,2.36-1.5.43-1,.64-2.96.64-5.87v-23.5c0-1.2-.26-2.04-.77-2.53s-1.43-.73-2.74-.73v-2.49l11.75-2.57Z"/>
    <path class="cls-1" d="m462.37,325.61c-3.55,6.17-8.49,9.26-14.84,9.26-3.14,0-5.79-.9-7.93-2.7-2.14-1.8-3.22-4.62-3.22-8.45v-20.06c0-3.26-.2-5.33-.6-6.22-.4-.89-1.32-1.33-2.74-1.33v-2.4h12.86c-.23,5.72-.34,11.06-.34,16.04v11.58c0,5.2,2.11,7.8,6.35,7.8,2.57,0,4.74-1.01,6.52-3.04,1.77-2.03,2.66-4.82,2.66-8.36v-14.32c0-3.54-.2-5.63-.6-6.26-.46-.69-1.66-1.03-3.6-1.03v-2.4h13.63c0,.8-.04,2.16-.13,4.07-.09,1.92-.14,3.87-.17,5.87-.03,2-.04,4.06-.04,6.17v10.89c0,4.29.21,7.16.64,8.62.43,1.46,1.21,2.19,2.36,2.19v2.4h-9.6c-.74-2.92-1.14-5.69-1.2-8.32Z"/>
    <path class="cls-1" d="m491.61,292.33c.29,2.23.43,5.15.43,8.75,3.77-5.83,8.97-8.75,15.61-8.75,3.03,0,5.45.99,7.25,2.96,1.8,1.97,2.7,4.85,2.7,8.62v20.24c0,2.92.23,4.87.69,5.87.46,1,1.2,1.5,2.23,1.5v2.4h-16.12v-2.4c1.66,0,2.74-.34,3.26-1.03.51-.69.77-2.29.77-4.8v-19.38c0-5.37-2.06-8.06-6.17-8.06-2.4,0-4.6.96-6.6,2.87-2,1.92-3.03,4.5-3.09,7.76v17.06c0,2.46.23,4,.69,4.63.46.63,1.51.94,3.17.94v2.4h-16.04v-2.4c1.14,0,1.93-.5,2.36-1.5.43-1,.64-2.96.64-5.87v-23.5c0-1.2-.26-2.04-.77-2.53-.51-.49-1.43-.73-2.74-.73v-2.49l11.75-2.57Z"/>
  </g>
</svg>