<?xml version="1.0" encoding="UTF-8"?>
<svg id="Layer_1" data-name="Layer 1" xmlns="http://www.w3.org/2000/svg" viewBox="0 0 881 317">
  <defs>
    <style>
      .cls-1 {
        fill: #006841;
      }
    </style>
  </defs>
  <g>
    <path class="cls-1" d="m284.33,129.69c-8.38-11.57-25.22-13.89-38.06-9.47-11.5,3.96-21.62,11.99-30.65,20.17-4.99-4.63-9.86-9.38-14.37-14.48-1.98-2.24-3.91-4.53-5.66-6.94-.91-1.26-3-3.5-3.18-5.1-.08-.69.64-1.65,1.12-2.32,1.63-2.31,3.42-4.35,4.76-6.87,2.62-4.91,4.96-10.81,3.9-16.44-1.22-6.48-7.03-10.41-13.26-11.28-6.06-.85-10.99,1.18-15.97,4.31-4.82,3.03-7.8,7.13-7.75,13.05.06,7.96,4.87,14.08,8.93,20.48.51.8.8,1.08.66,1.93-.13.76-.93,1.67-1.32,2.3-1.72,2.72-3.77,5.23-5.85,7.67-4.06,4.74-8.45,9.17-12.97,13.46-10.04-9.35-21.55-19.62-35.57-21.72-11.77-1.76-24.2,1.89-32.89,10.14-10.88,10.33-10.69,28.78-.3,39.38,9.07,9.25,24.04,10.32,35.92,6.7,10.85-3.31,21.04-10.35,30.02-17.53,7.04,6.6,13.65,13.64,20.91,20.01.53.46,1.58,1.14,1.51,1.62-.07.43-1.76,1.45-2.17,1.79-1.69,1.39-3.4,2.77-5.11,4.14-13.67,10.93-27.79,21.42-42.58,30.8-7.97,5.06-16.74,8.77-24.59,13.98-3.1,2.06-5.07,5.54-2.5,8.95,2.59,3.43,7.26,1.29,10.33-.33,11.54-6.09,22.69-13.4,33.52-20.65,14.41-9.66,27.92-20.77,41.11-32.05,13.6,11.67,27.79,22.94,42.57,33.1,7.2,4.95,14.56,9.65,22.01,14.21,4.27,2.62,9.69,6.96,14.84,7.37.92.07,1.84-.14,2.74-.5,0,0-.01.01-.02.02.01,0,.02-.01.03-.02,1.53-.63,2.99-1.7,4.2-2.59.01-.01.03-.02.04-.03.01,0,.02-.01.03-.02,0,0-.01,0-.02,0,3.07-2.32,3.49-6.38.59-9.06-3.12-2.89-8.07-4.46-11.78-6.52-4.09-2.27-8.1-4.67-12.06-7.15-14.37-9.01-28.11-19.04-41.44-29.51-2.23-1.75-4.45-3.52-6.66-5.31-.78-.63-4.1-2.87-3.97-3.56.19-1.02,3.47-3.05,4.11-3.63,2.23-2.03,4.42-4.11,6.57-6.21,2.85-2.78,5.63-5.63,8.48-8.41,9.85,8.12,21.12,16.46,33.98,18.55,6.24,1.02,13.08.94,19.13-.95,4.44-1.39,8.69-3.98,12.44-6.72,11.93-8.72,14.95-26.68,6.24-38.71Zm-48.03,6c1.08-.68,2.06-1.3,3-1.87,2.89-1.55,5.92-2.73,9.06-3.31,8.49-1.55,18.18.43,23.49,7.79,5.06,7.02,4.66,19.63-3.29,24.65-5.81,3.67-14.94,2.43-21,.49-5.75-1.84-11.12-4.79-16.07-8.21-2.8-1.94-5.46-4.05-8.03-6.29-1.2-1.04-1.64-.99-.44-2.18,2.72-2.72,5.75-5.56,9.01-8.11,1.66-1.22,3.16-2.25,4.28-2.96Zm-59.05-42.78c.11-1.6.64-3.05,1.57-4.23,2.91-.79,6.25-.5,8.69,1.26,2.74,1.97,3.15,5,2.89,8.15-.35,4.19-2.54,7.79-5.34,10.83-4.55-4.36-7.85-9.5-7.81-16.01,0,.06-.02.11-.05.17.03-.05.05-.11.05-.17Zm20.46,48.98c1.76,1.81,3.53,3.61,5.3,5.41.28.28.55.56.83.84,1.04,1.05,1.31.93.21,2.01-6.36,6.29-12.46,12.84-18.85,19.09-3.94-3.7-7.84-7.44-11.69-11.23-2.9-2.86-5.76-5.74-8.6-8.66-.29-.3-2.2-1.8-2.36-2.43-.13-.56.46-.92.97-1.44,6.35-6.43,12.62-12.94,18.84-19.5,5.09,5.33,10.2,10.64,15.35,15.91Zm-99.15-9.71c.07-.08.14-.14.2-.2-.05,0-.09-.02-.14-.04.12-.06.24-.1.36-.16.23-.2.31-.2.29-.13.08-.03.15-.07.23-.1.38-.16.77-.32,1.16-.45,2.65-.93,5.46-1.32,8.26-1.32,5,0,9.8,1.2,14.2,3.55,4.99,2.67,9.66,5.96,14.07,9.49,2.34,1.87,4.6,3.83,6.73,5.94,1.13,1.11,1.73,1.18.42,2.33-8.03,7.01-17.32,13.07-28.26,13.79-7.4.48-15.51-2.16-20.1-8.24-5.22-6.92-4.35-17.2,1.54-23.43.34-.35.72-.67,1.05-1.02Zm33.3,91.22c-5.18,3.41-10.47,6.67-15.88,9.73,4.12-2.43,9.84-5.87,15.88-9.73Z"/>
    <path class="cls-1" d="m99.26,131.66c-.1.04-.19.08-.29.13-.06.05-.13.12-.21.2.25.02.47-.22.5-.33Z"/>
  </g>
  <g>
    <path class="cls-1" d="m365.72,180.02h-21.13l-2.46,6.47c-.85,2.19-1.28,4.16-1.28,5.92,0,2.85,1.97,4.28,5.92,4.28v2.55h-19.13v-2.55c1.88,0,3.73-1.29,5.56-3.87,1.82-2.58,4.19-7.61,7.1-15.08l15.94-40.81h4.28l19.77,47.46c2.37,5.59,4.08,9.03,5.15,10.34,1.06,1.31,2.41,1.96,4.05,1.96v2.55h-25.6v-2.55c4.55,0,6.83-1,6.83-3.01,0-.73-.15-1.43-.46-2.09l-4.55-11.57Zm-19.68-3.92h18.13l-5.19-13.12c-1.82-4.37-3.16-8.11-4.01-11.2-.67,2.37-1.94,6.01-3.83,10.93l-5.1,13.39Zm25.82-52.89l-16.15,9.94c-.27.17-.6.22-.91.15h0c-.85-.2-1.21-1.21-.68-1.9l7.37-9.8c.23-.3.59-.48.97-.48h8.87c.97,0,1.46.31,1.46.91,0,.36-.3.76-.91,1.18Z"/>
    <path class="cls-1" d="m404.71,165.08c1.28-3.1,3.02-5.54,5.24-7.33,2.22-1.79,4.48-2.69,6.79-2.69,2.13,0,3.79.62,5.01,1.87,1.21,1.25,1.82,2.84,1.82,4.78,0,2.31-.56,4.02-1.69,5.15-1.12,1.12-2.35,1.69-3.69,1.69-1.15,0-2.04-.3-2.64-.91-.61-.61-.94-1.29-1-2.05-.06-.76-.3-1.44-.73-2.05-.43-.61-1.09-.91-2-.91-1.58,0-2.86.56-3.83,1.69-.97,1.12-1.65,3.08-2.05,5.88-.4,2.79-.62,5.28-.68,7.47-.06,2.19-.09,5.59-.09,10.2v2.09c0,3.1.26,5,.77,5.69.51.7,1.96,1.05,4.33,1.05v2.55h-17.94v-2.55c1.21,0,2.05-.47,2.51-1.41.46-.94.68-2.75.68-5.42v-25.96c0-1.28-.27-2.17-.82-2.69-.55-.52-1.52-.77-2.91-.77v-2.64l12.3-2.73c.42,2.61.64,5.95.64,10.02Z"/>
    <path class="cls-1" d="m439.41,155.06c.3,2.37.46,5.47.46,9.29,4.01-6.19,9.53-9.29,16.58-9.29,3.22,0,5.78,1.05,7.7,3.14,1.91,2.09,2.87,5.15,2.87,9.15v21.5c0,3.1.24,5.18.73,6.24.49,1.06,1.28,1.59,2.37,1.59v2.55h-17.12v-2.55c1.76,0,2.91-.37,3.46-1.09.55-.73.82-2.43.82-5.1v-20.59c0-5.71-2.19-8.56-6.56-8.56-2.55,0-4.89,1.02-7.01,3.05-2.13,2.04-3.22,4.78-3.28,8.24v18.13c0,2.61.24,4.25.73,4.92.49.67,1.61,1,3.37,1v2.55h-17.03v-2.55c1.21,0,2.05-.53,2.51-1.59.46-1.06.68-3.14.68-6.24v-24.96c0-1.28-.27-2.17-.82-2.69-.55-.52-1.52-.77-2.91-.77v-2.64l12.48-2.73Z"/>
    <path class="cls-1" d="m503.08,190.68h-.55c-2.13,6.32-6.92,9.47-14.39,9.47-3.46,0-6.24-.91-8.33-2.73-2.09-1.82-3.14-4.31-3.14-7.47,0-7.71,8.17-13.54,24.5-17.49v-5.46c0-3.1-.58-5.27-1.73-6.51-1.15-1.24-2.91-1.87-5.28-1.87-2.13,0-3.7.44-4.74,1.32-1.03.88-1.55,1.99-1.55,3.33,0,.42.11,1.06.32,1.91.21.85.32,1.49.32,1.91,0,1.4-.49,2.52-1.46,3.37-.97.85-2.13,1.28-3.46,1.28s-2.6-.46-3.6-1.37c-1-.91-1.5-2.19-1.5-3.82,0-3.1,1.59-5.79,4.78-8.06,3.19-2.28,7.36-3.42,12.52-3.42,10.08,0,15.12,4.04,15.12,12.11,0,2.13-.06,5.37-.18,9.75-.12,4.37-.18,7.56-.18,9.56,0,6.8,1.06,10.2,3.19,10.2v2.55h-9.47c-.73-2.61-1.12-5.47-1.18-8.56Zm-2.1-5.83c.12-2.06.18-5.22.18-9.47-4.49,1.03-7.99,2.49-10.48,4.37-2.49,1.88-3.73,4.65-3.73,8.29,0,2.19.53,3.83,1.59,4.92,1.06,1.09,2.47,1.64,4.24,1.64,2.31,0,4.19-.85,5.65-2.55,1.46-1.7,2.31-4.1,2.55-7.2Z"/>
    <path class="cls-1" d="m521.48,199.24v-14.48h2.46c.3,3.89,1.43,6.91,3.37,9.06,1.94,2.16,4.58,3.23,7.92,3.23,2.25,0,4.05-.53,5.42-1.59,1.37-1.06,2.05-2.47,2.05-4.24s-.71-3.29-2.14-4.6c-1.43-1.3-3.16-2.43-5.19-3.37-2.04-.94-4.08-1.97-6.15-3.1-2.07-1.12-3.81-2.72-5.24-4.78-1.43-2.06-2.14-4.52-2.14-7.38,0-3.7,1.38-6.79,4.14-9.25,2.76-2.46,6.39-3.69,10.89-3.69,1.58,0,3.73.27,6.47.82,2.73.55,4.58.82,5.56.82v13.03c0,.3-.36.46-1.09.46l-1.46-.46c-.3-3.34-1.29-6.01-2.96-8.02-1.67-2-3.96-3.01-6.88-3.01-2.13,0-3.73.53-4.83,1.59-1.09,1.06-1.64,2.48-1.64,4.24s.73,3.2,2.19,4.51c1.46,1.31,3.23,2.46,5.33,3.46,2.09,1,4.17,2.07,6.24,3.19,2.06,1.12,3.83,2.67,5.28,4.65,1.46,1.97,2.19,4.27,2.19,6.88,0,3.89-1.52,7.06-4.55,9.52-3.04,2.46-7.01,3.69-11.93,3.69-1.4,0-3.78-.2-7.15-.59-3.37-.4-5.42-.59-6.15-.59Z"/>
    <path class="cls-1" d="m581.87,192.04c-.67,2.49-2.08,4.45-4.24,5.87-2.16,1.43-4.6,2.14-7.33,2.14s-4.84-.85-6.51-2.55c-1.67-1.7-2.5-4.22-2.5-7.56v-28.06h-5.47v-2.37c1.94-.12,4.31-1.78,7.1-4.96,2.79-3.19,4.83-6.66,6.1-10.43h2.55c-.24,3.7-.36,7.83-.36,12.39h9.47v5.37h-9.66c-.06,5.41-.09,14.18-.09,26.33,0,3.46,1.52,5.19,4.55,5.19,1.94,0,3.61-.82,5.01-2.46l1.37,1.09Z"/>
    <path class="cls-1" d="m607.28,155.06c5.77,0,10.28,2,13.53,6.01,3.25,4.01,4.87,9.14,4.87,15.39,0,6.62-1.94,12.28-5.83,16.99-3.89,4.71-9.08,7.06-15.58,7.06-5.65,0-10.16-1.97-13.53-5.92-3.37-3.95-5.06-9.05-5.06-15.3,0-6.62,1.96-12.31,5.88-17.08,3.92-4.77,9.15-7.15,15.71-7.15Zm-2.37,4.01c-2.67,0-4.77,1.21-6.28,3.64-1.52,2.43-2.28,6.07-2.28,10.93,0,7.83.96,13.63,2.87,17.4,1.91,3.77,4.51,5.65,7.79,5.65,2.61,0,4.63-1.18,6.06-3.55,1.43-2.37,2.14-5.71,2.14-10.02,0-16.03-3.43-24.05-10.29-24.05Z"/>
    <path class="cls-1" d="m646.36,191.32c0,2.25.29,3.7.87,4.37.58.67,1.96,1,4.14,1v2.55h-17.94v-2.55c1.21,0,2.05-.53,2.51-1.59.46-1.06.68-3.14.68-6.24v-26.96h-5.74v-2.55c3.83-.24,5.74-1.88,5.74-4.92,0-5.4,1.34-9.78,4.01-13.12,2.67-3.34,6.47-5.01,11.39-5.01,5.16,0,7.74,2.22,7.74,6.65,0,1.58-.44,2.81-1.32,3.69-.88.88-1.99,1.32-3.32,1.32-1.09,0-1.99-.32-2.69-.96-.7-.64-1.05-1.5-1.05-2.6,0-.3.03-.64.09-1,.06-.36.09-.64.09-.82,0-1.76-.79-2.64-2.37-2.64-1.4,0-2.51.82-3.33,2.46-.82,1.64-1.23,3.73-1.23,6.28,0,3.77.67,6.38,2,7.83h8.11v5.37h-8.2c-.12,6.32-.18,16.12-.18,29.42Z"/>
    <path class="cls-1" d="m672.86,155.06c.3,2.37.46,5.47.46,9.29,4.01-6.19,9.53-9.29,16.58-9.29,3.22,0,5.78,1.05,7.7,3.14,1.91,2.09,2.87,5.15,2.87,9.15v21.5c0,3.1.24,5.18.73,6.24.49,1.06,1.28,1.59,2.37,1.59v2.55h-17.12v-2.55c1.76,0,2.91-.37,3.46-1.09.55-.73.82-2.43.82-5.1v-20.59c0-5.71-2.19-8.56-6.56-8.56-2.55,0-4.89,1.02-7.01,3.05-2.13,2.04-3.22,4.78-3.28,8.24v18.13c0,2.61.24,4.25.73,4.92.49.67,1.61,1,3.37,1v2.55h-17.03v-2.55c1.21,0,2.05-.53,2.51-1.59.46-1.06.68-3.14.68-6.24v-24.96c0-1.28-.27-2.17-.82-2.69s-1.52-.77-2.91-.77v-2.64l12.48-2.73Z"/>
    <path class="cls-1" d="m741.18,190.4c-3.77,6.56-9.02,9.84-15.76,9.84-3.34,0-6.15-.96-8.43-2.87-2.28-1.91-3.42-4.9-3.42-8.97v-21.31c0-3.46-.21-5.66-.64-6.6-.43-.94-1.4-1.41-2.91-1.41v-2.55h13.66c-.24,6.07-.36,11.75-.36,17.03v12.3c0,5.53,2.25,8.29,6.74,8.29,2.73,0,5.04-1.08,6.92-3.23,1.88-2.15,2.82-5.12,2.82-8.88v-15.21c0-3.76-.21-5.98-.64-6.65-.49-.73-1.76-1.09-3.83-1.09v-2.55h14.48c0,.85-.05,2.29-.14,4.33-.09,2.04-.15,4.12-.18,6.24-.03,2.13-.05,4.31-.05,6.56v11.57c0,4.56.23,7.61.68,9.15.46,1.55,1.29,2.32,2.51,2.32v2.55h-10.2c-.79-3.1-1.22-6.04-1.28-8.84Z"/>
    <path class="cls-1" d="m772.24,155.06c.3,2.37.46,5.47.46,9.29,4.01-6.19,9.53-9.29,16.58-9.29,3.22,0,5.78,1.05,7.7,3.14,1.91,2.09,2.87,5.15,2.87,9.15v21.5c0,3.1.24,5.18.73,6.24.49,1.06,1.28,1.59,2.37,1.59v2.55h-17.12v-2.55c1.76,0,2.91-.37,3.46-1.09.55-.73.82-2.43.82-5.1v-20.59c0-5.71-2.19-8.56-6.56-8.56-2.55,0-4.89,1.02-7.01,3.05-2.13,2.04-3.22,4.78-3.28,8.24v18.13c0,2.61.24,4.25.73,4.92.49.67,1.61,1,3.37,1v2.55h-17.03v-2.55c1.21,0,2.05-.53,2.51-1.59.46-1.06.68-3.14.68-6.24v-24.96c0-1.28-.27-2.17-.82-2.69s-1.52-.77-2.91-.77v-2.64l12.48-2.73Z"/>
  </g>
</svg>