<svg fill="none" height="25" viewBox="0 0 114 25" width="114" xmlns="http://www.w3.org/2000/svg" xmlns:xlink="http://www.w3.org/1999/xlink"><clipPath id="a"><path d="m0 0h113.159v24.2302h-113.159z"/></clipPath><g clip-path="url(#a)"><path d="m109.164 6.56355h-4.007l3.447-6.55915547h4.007z" fill="#167f8b"/><path d="m109.713 13.1233h-4.007l3.446-6.55909h4.007z" fill="#167f8b"/><g fill="#082a2c"><path d="m11.8502 5.49227h-3.78999l-5.09723 5.37313v-10.86515586h-2.96298v18.76385586h2.96298v-4.12l1.97532-2.2066 3.97626 6.3265h3.52184l-5.33651-8.3175z"/><path d="m22.925 7.22728c-.507-.6251-1.1511-1.12259-1.8814-1.45316-.8372-.36662-1.743-.54598-2.6553-.52574-.9568-.02381-1.9061.17433-2.7751.57918-.7551.3636-1.4135.90373-1.9206 1.5756-.5038.6736-.8792 1.43582-1.1073 2.24786-.2408.83508-.3622 1.70048-.3605 2.57018-.0026.8623.1236 1.7201.3742 2.5444.2394.7992.6292 1.5443 1.1482 2.1944.5318.6577 1.2138 1.1753 1.9874 1.5083.909.378 1.886.5612 2.8689.5379.6776.0073 1.3536-.065 2.0146-.2155.601-.1447 1.1799-.3709 1.7208-.6723.5962-.3375 1.1514-.7442 1.6541-1.2118l-1.6285-1.9929c-.4672.4825-1.0312.8587-1.6541 1.1033-.6402.2392-1.3184.3578-2.001.35-.8922.0363-1.7665-.2608-2.4555-.8344-.3325-.3089-.5988-.6834-.7824-1.1002-.1837-.4168-.2808-.8672-.2854-1.3234h9.1264c.0357-.2318.058-.4655.0667-.6998.0085-.2328.0137-.4121.0137-.5379.0061-.857-.1155-1.7101-.3607-2.53061-.2309-.76985-.6068-1.48746-1.1072-2.11341zm-7.7936 3.67522c.0488-.5428.2076-1.06974.4665-1.54804.274-.51377.686-.93912 1.1886-1.22725.5027-.28814 1.0756-.42738 1.653-.40175.4574-.00731.9114.07949 1.3345.25511.3701.15592.7058.38444.9878.67232.263.27314.4672.5983.5997.95501.1337.36165.2015.7448.1999 1.1308 0 .0535-.0034.1069-.0052.1621h-6.4248z"/><path d="m34.5871 5.49219-3.3886 9.39651-3.3354-9.39651h-3.2569l5.0168 12.38391-2.6143 6.3541h3.2021l7.5784-18.73798z"/><path d="m46.767 11.5903c-.499-.301-1.0319-.5406-1.5874-.7137-.5691-.1793-1.1205-.3321-1.6541-.4585-.4796-.1153-.9521-.2592-1.4148-.43099-.3058-.10234-.5874-.26724-.8271-.4844-.0894-.09214-.1591-.20177-.205-.32213-.0458-.12036-.0667-.24891-.0615-.37775.0033-.19106.0586-.37752.1598-.53896.1013-.16145.2446-.29165.4143-.37635.4348-.24644.9284-.36749 1.4268-.34995.6015-.00493 1.1956.13325 1.7343.40335.5431.27782 1.0036.69596 1.3346 1.21185l1.8421-1.42736c-.4645-.81033-1.1625-1.45854-2.0011-1.85828-.8843-.41888-1.8511-.63041-2.8279-.61878-1.2494-.05932-2.4819.31075-3.4961 1.04979-.4286.32428-.7736.74794-1.0059 1.23519-.2323.48726-.345 1.02379-.3287 1.5643-.0201.58265.1182 1.15977.3999 1.66867.2628.4446.6236.8221 1.0543 1.1032.4467.2937.9262.5333 1.4285.7137.4985.1833 1.0062.3404 1.5209.4706.4798.1145.9523.2584 1.4148.431.3763.1334.728.3291 1.0406.5792.1329.1135.238.2563.3074.4175.0693.1611.101.3362.0925.5117-.0031.2262-.0621.4481-.1716.6456-.1095.1974-.2661.3642-.4555.4851-.5031.3293-1.0965.4892-1.6951.4569-.7748.024-1.537-.2025-2.1753-.6464-.561-.3935-1.0375-.8971-1.4012-1.4808l-2.0283 1.7772c.3613.4746.7727.9081 1.2269 1.2929.5478.4603 1.1712.8203 1.842 1.0636.8044.2907 1.6543.432 2.5086.4172.9478.0203 1.889-.163 2.7613-.5379.7445-.3201 1.3834-.8474 1.8421-1.5205.4415-.6739.6698-1.4674.6544-2.2753.0275-.6647-.1344-1.3234-.4665-1.898-.3049-.4829-.7168-.8877-1.203-1.1825z"/><path d="m54.7617.59314-2.9886 1.66864v3.23041h-2.5085v2.31512h2.5085v7.24179c-.0354.7989.1397 1.593.5074 2.3013.3124.5591.7939 1.0025 1.374 1.2653.5835.2618 1.2155.3952 1.854.3913.371.0006.7415-.0311 1.1072-.0948.3676-.0642.7294-.1587 1.0817-.2828v-2.315c-.2667.0724-.5212.131-.7604.1758-.2067.0413-.4165.0638-.6272.0673-.2384.0255-.4792-.0177-.6943-.1249-.2151-.1071-.3956-.2736-.5206-.4803-.2511-.542-.3655-1.1383-.3332-1.7358v-6.40747h2.9357v-2.31508h-2.9357z"/><path d="m66.3975 5.24829c-.6411.00926-1.2697.18053-1.8284.49816-.6155.33399-1.1492.80284-1.5619 1.37216-.0768.10516-.1469.2155-.2135.32756v-1.9566h-2.9886v13.27163h2.9629v-5.8696c-.0067-.5616.0156-1.1231.0667-1.6823.0299-.3341.0969-.6637.1999-.9827.1114-.40698.3154-.7821.5957-1.09545.2804-.31335.6293-.55625 1.0191-.70935.3525-.14114.7281-.21423 1.1072-.21548.3018.00204.6021.04259.8938.12066.2678.06322.5243.16789.7604.3103l1.4404-2.69259c-.3839-.23263-.7964-.41343-1.2269-.5378-.4005-.10582-.8128-.15912-1.2268-.1586z"/><path d="m73.5492 0h-3.2296v3.3114h3.2296z"/><path d="m73.4131 5.49219h-2.963v13.27171h2.963z"/><path d="m88.1738 5.49202h-3.7901l-5.0972 5.37148v-10.8635h-2.9613v18.7638h2.9613v-4.12l1.9753-2.2065 3.9763 6.3264h3.5218l-5.3365-8.3174z"/><path d="m100.353 9.34069c-.23-.77-.6064-1.48766-1.1071-2.11341-.507-.62512-1.1511-1.12262-1.8814-1.45316-.8371-.36663-1.743-.54598-2.6553-.52574-.9567-.0238-1.9061.17434-2.775.57917-.7552.36364-1.4136.90377-1.9207 1.57561-.5037.6736-.8792 1.43582-1.1073 2.24786-.2407.83508-.3621 1.70048-.3605 2.57018-.0025.8623.1237 1.7201.3742 2.5444.2394.7993.6293 1.5443 1.1483 2.1944.5321.6581 1.2147 1.1758 1.9889 1.5083.9092.378 1.8862.5612 2.8691.5379.6776.0073 1.3537-.065 2.0146-.2155.601-.1447 1.1798-.3709 1.7207-.6723.5962-.3375 1.1513-.7442 1.6545-1.2118l-1.6288-1.9929c-.4673.4825-1.0312.8586-1.6541 1.1033-.6402.2392-1.3184.3578-2.0009.35-.8923.0363-1.7666-.2607-2.4555-.8344-.3326-.3089-.5989-.6833-.7826-1.1002-.1837-.4168-.2808-.8672-.2854-1.3234h9.1263c.036-.2318.058-.4654.067-.6998.008-.2328.013-.4121.013-.5379.005-.857-.117-1.7099-.362-2.53061zm-8.899 1.56181c.0488-.5428.2076-1.06972.4664-1.54804.2741-.51377.6861-.93912 1.1887-1.22726.5027-.28813 1.0756-.42737 1.653-.40175.4574-.00732.9115.07949 1.3346.25512.37.15595.7057.38447.9876.67232.2631.27313.4674.59829.5999.95501.1337.36165.2015.7448.1999 1.1308 0 .0534-.0035.1069-.0052.1621h-6.4249z"/></g></g></svg>