<svg version="1.1" id="Layer_1" xmlns="http://www.w3.org/2000/svg" xmlns:xlink="http://www.w3.org/1999/xlink" x="0px" y="0px" viewBox="0 0 423.9 140" xml:space="preserve" width="423.9"  height="140" ><g><path d="M32.6,0C26,0,19.6,0,13,0c0,7.4,0,12.1,0,19.6c-4.4,0-8.7,0-13,0C0,24.9,0,30,0,35.3c4.3,0,8.6,0,13,0 c0,0.7,0,1.3,0,1.9c0,14.2,0,28.4,0,42.6c0,2.9,0.2,5.8,0.7,8.6c1.4,8.1,5.8,13.8,13.9,16.2c6.6,2,13.3,1.7,20,0.7 c0.9-0.1,0.9-0.7,0.9-1.4c0-3.9,0-7.8,0-11.6c0-1.3,0-4.4,0-5.6c-2.5,0.2-4.9,0.5-7.2,0.4c-5-0.1-7.8-2.8-8.3-7.8 c-0.1-1-0.2-2-0.2-3c0-13.7,0-25.8,0-39.5c0-0.5,0-1,0-1.7c5.4,0,10.7,0,16,0c0-5.3,0-10.4,0-15.7c-5.4,0-10.7,0-16.1,0 C32.6,12,32.6,7.4,32.6,0z" style="" fill="#23D88E"></path><path d="M227.5,29.3c-2.9-3.8-6.2-7-10.3-9.3c-6.2-3.5-12.9-4.6-19.9-4.3c-13.4,0.6-24,6.4-31.1,17.9 c-7.2,11.8-8.5,24.6-5.4,37.8c2.5,10.5,7.9,19.1,17.1,25.1c8.5,5.5,17.8,6.9,27.6,5.4c8.3-1.3,15.2-5.1,20.1-12 c0.1-0.1,0.2-0.2,0.2-0.2c0,5.6,0.4,11.2-0.1,16.7c-0.7,7.1-4.5,12.3-11.4,15c-4.8,1.9-9.9,2.1-14.9,1.1c-6.9-1.3-11.9-5-14.2-11.8 c-0.3-0.9-0.8-0.8-1.5-0.8c-5.8,0-11.5,0-17.3,0c-0.4,0-0.7,0.1-1.1,0.1c0.1,0.7,0.1,1.2,0.3,1.8c2.7,11.9,9.9,20.3,21.1,24.8 c11.7,4.7,23.7,4.6,35.6,0.2c9.5-3.5,16.3-10.2,20.2-19.5c2.4-5.7,3.3-11.8,3.3-18V17.7h-18.3L227.5,29.3L227.5,29.3z M224.6,70.8 c-3.7,9-11.8,14.3-21.8,14.3c-12,0-21.3-8-23.4-20.1c-1.1-6.6-0.6-13,2.4-19.1c4.3-8.8,13.4-13.7,23.1-12.8 c13.1,1.2,20.3,10.9,21.6,21.9C227.2,60.4,226.7,65.7,224.6,70.8z" style="" fill="#23D88E"></path><path d="M129.2,23.2c-8.8-6.3-18.8-8.4-29.5-7.3c-14.5,1.6-25.4,8.8-32.3,21.6c-6.4,11.9-7.1,24.6-3.6,37.5 c3,10.9,9.3,19.5,19.2,25.1c9,5.1,18.7,6.4,28.8,4.8c14.6-2.4,25.1-10.1,31.2-23.3h-21.2c-3.6,4.1-8.5,6.2-14.3,6.9 C94.8,90,84.3,82.4,81.7,69.8c-0.2-1.1-0.4-2.3-0.6-3.5h65.5c0.2-5.4,0.3-10.7-0.7-15.9C143.7,39.3,138.6,29.9,129.2,23.2z M81.6,51.7c0.8-11.4,10.9-20.1,23.2-20c12.1,0.1,21.7,8.7,22.3,20H81.6z" style="" fill="#23D88E"></path><path d="M283.7,29c0-3.8,0-7.5,0-11.3c-6.1,0-12,0-18,0c0,28.7,0,57.3,0,85.8c6.6,0,13,0,19.5,0c0-0.6,0-1.1,0-1.7 c0-13.4,0-26.7,0-40.1c0-2.3-0.1-4.7,0.3-7c0.5-3,1-6.1,2.2-8.9c3-7.1,9-10.1,16.4-10.7c2.5-0.2,5.1,0,7.7,0c0-6.1,0-12.1,0-18.3 C300.5,16.4,290.6,19.1,283.7,29z" style="" fill="#23D88E"></path><polygon points="404.4,49.2 404.4,68.8 423.9,68.8 423.9,68.8 423.9,49.2 423.9,49.2 	" style="" fill="#23D88E"></polygon><path d="M386.1,17.7L386.1,17.7v11.5c-2.9-3.8-6.2-7-10.3-9.3c-6.2-3.5-12.9-4.6-20-4.3c-13.4,0.6-24,6.4-31.1,17.9 c-3.1,5.1-5.1,10.3-6.1,15.7h0c-1.4,7.2-1.1,14.6,0.7,22.2c2.5,10.5,7.9,19.1,17.1,25.1c8.5,5.5,17.8,6.9,27.6,5.4 c8.3-1.3,15.2-5.1,20.1-12c0.1-0.1,0.2-0.2,0.2-0.2c0,3.4,0.1,6.9,0.1,10.3c0,1.1,0,2.2-0.1,3.4l0,0c0,0,0,0.1,0,0.1h19.7 c0.1-1.4,0.1-2.8,0.1-4.1v-0.1c0,0,0,0,0,0V68.8h-20.4c-0.2,0.6-0.4,1.3-0.7,1.9c-3.7,9-11.8,14.3-21.8,14.3 c-10.6,0-19.2-6.3-22.4-16.1h0c-0.4-1.2-0.7-2.5-0.9-3.8c-1.1-6.6-0.6-13,2.4-19.1c4.3-8.8,13.4-13.7,23.1-12.7 c10.8,1,17.6,7.7,20.3,16.2h20.4h0l0,0v0l0,0V17.6h-18.3L386.1,17.7L386.1,17.7z" style="" fill="#23D88E"></path></g></svg>