<svg width="273" height="39" viewBox="0 0 273 39" xmlns="http://www.w3.org/2000/svg"><title>sitelogo</title><g fill="none" fill-rule="evenodd"><path d="M59.341 13.765L55.06 24.853 50.7 13.765h-1.835l6.117 15.37 6.194-15.37h-1.835zm7.953 5.811a4.746 4.746 0 0 0-2.37-.611c-.918 0-1.76.23-2.448.611-.688.46-1.223.995-1.605 1.76-.383.764-.536 1.605-.536 2.523 0 .841.153 1.606.536 2.294.382.688.917 1.3 1.605 1.682.689.46 1.53.612 2.448.612.994 0 1.835-.23 2.523-.688.765-.459 1.377-1.07 1.759-1.912l-1.377-.765c-.382.689-.84 1.147-1.3 1.453-.458.306-.994.46-1.605.46-.842 0-1.606-.307-2.142-.842-.611-.535-.917-1.3-.917-2.218h7.417v-.306c0-.917-.153-1.758-.535-2.447-.23-.611-.765-1.147-1.453-1.606zm-5.2 3.136c.077-.688.459-1.224.994-1.683.612-.458 1.224-.688 1.836-.688.688 0 1.3.23 1.758.688.536.46.842.995.994 1.683h-5.582zm13.153-3.747c-.382 0-.765.076-1.07.23-.306.152-.612.458-.995.993h-.076v-.994H71.5v9.024h1.606v-4.589c0-1.147.153-1.988.459-2.447.306-.535.764-.764 1.376-.764.23 0 .383 0 .535.153a1.6 1.6 0 0 1 .46.305L76.7 19.5c-.23-.153-.459-.23-.688-.306-.306-.23-.536-.23-.765-.23zm10.17.23h-2.14l-3.442 3.364v-10.17H78.23v15.905h1.606v-3.747l.46-.382 3.823 4.13h2.14l-4.817-5.2 3.977-3.9zm5.277-7.036a3.56 3.56 0 0 0-1.606.382c-.459.23-.764.612-.917.994-.23.46-.306.994-.306 1.683v4.053h-.918v1.376h.918v7.647h1.606v-7.647h2.37v-1.453h-2.37v-3.67c0-.765.076-1.224.305-1.53.23-.306.536-.382.995-.382.229 0 .382 0 .535.076.153.077.306.077.535.153v-1.53c-.153-.076-.306-.076-.535-.152h-.612zm6.194 6.806c-.382 0-.764.076-1.07.23-.306.152-.612.458-.994.993h-.077v-.994h-1.606v9.024h1.606v-4.589c0-1.147.153-1.988.459-2.447.306-.535.765-.764 1.376-.764.23 0 .383 0 .536.153.153.076.306.153.458.305l.765-1.376c-.23-.153-.459-.23-.688-.306-.306-.23-.535-.23-.765-.23zm15.447.688c-.688-.459-1.53-.688-2.447-.688-.764 0-1.453.153-2.14.535-.69.382-1.224.765-1.53 1.376a3.001 3.001 0 0 0-1.377-1.376c-.612-.306-1.3-.535-2.141-.535-.535 0-.994.076-1.53.153-.535.076-.994.23-1.452.382v1.453c.458-.153.994-.306 1.453-.382.458-.153.994-.153 1.453-.153.917 0 1.605.23 2.064.764.46.46.688 1.224.688 2.218-.458-.306-.84-.459-1.3-.612-.382-.153-.917-.153-1.376-.153-.765 0-1.376.153-1.988.383-.612.23-1.07.611-1.377 1.07a2.757 2.757 0 0 0-.459 1.53c0 .611.153 1.147.536 1.606.382.458.84.764 1.453.994.611.23 1.3.306 2.064.306.765 0 1.453-.153 2.065-.383.612-.306 1.07-.765 1.453-1.376.382.535.918.994 1.53 1.3.611.306 1.3.459 2.064.459.994 0 1.835-.23 2.6-.689.765-.459 1.3-1.07 1.759-1.911l-1.376-.765c-.383.688-.842 1.147-1.3 1.453-.46.306-.995.459-1.606.459a3.48 3.48 0 0 1-1.53-.383 2.7 2.7 0 0 1-1.07-.994c-.306-.459-.46-.994-.46-1.606h7.418v-.382c0-.841-.152-1.606-.458-2.37a5.877 5.877 0 0 0-1.683-1.683zm-7.8 7.035c-.459.306-1.07.46-1.835.46-.688 0-1.3-.154-1.759-.383-.459-.306-.612-.612-.612-1.07 0-.46.23-.842.689-1.148.458-.306.994-.459 1.682-.459s1.3.153 1.835.383c.46.305.689.611.689 1.07 0 .459-.23.841-.689 1.147zm2.6-3.976c.153-.688.46-1.224.994-1.683a2.74 2.74 0 0 1 1.836-.688c.688 0 1.3.23 1.759.688.535.46.84.995.994 1.683h-5.583zm14.3-7.8l2.677-1.76-.765-.764-2.753 1.76c-.23-.23-.612-.536-1.223-.919l-1.53-.994-.917.918c.764.459 1.3.841 1.758 1.147.383.306.612.459.765.612l-2.6 1.682.765.765 2.676-1.683c.918.765 1.606 1.53 2.141 2.295.536.764.995 1.529 1.224 2.294a4.34 4.34 0 0 0-1.377-.918c-.535-.23-1.07-.306-1.758-.306-.842 0-1.683.23-2.37.612-.766.382-1.3.994-1.76 1.759-.459.764-.688 1.53-.688 2.37 0 .842.23 1.606.688 2.37.46.766 1.07 1.3 1.836 1.76.764.459 1.605.612 2.447.612.917 0 1.758-.23 2.523-.689.765-.459 1.377-1.07 1.759-1.835a6 6 0 0 0 .612-2.676c.076-3.06-1.377-5.889-4.13-8.412zm2.141 10.476a3.137 3.137 0 0 1-1.223 1.224 3.275 3.275 0 0 1-1.682.459c-.918 0-1.76-.306-2.371-.995a3.355 3.355 0 0 1-.994-2.37c0-.918.306-1.759.994-2.37a3.355 3.355 0 0 1 2.37-.995c.918 0 1.76.306 2.371.994.612.612.918 1.453.918 2.37.076.613-.077 1.148-.383 1.683zm4.971-10.706c-.306 0-.535.077-.765.306-.23.23-.382.46-.382.765 0 .382.076.612.306.841.23.23.459.306.765.306.305 0 .611-.076.764-.306.23-.23.306-.459.306-.841 0-.306-.076-.535-.306-.765a.97.97 0 0 0-.688-.306zm-.841 13.536h1.606v-9.024h-1.606v9.024zm9.253-9.253c-.612 0-1.07.153-1.53.382-.458.23-.84.535-1.147.994h-.076v-1.07H132.6v9.023h1.606V23.86c0-1.147.153-1.988.535-2.6.383-.535.994-.841 1.835-.841.765 0 1.3.23 1.53.611.306.383.459 1.071.459 1.989v5.276h1.606v-5.43c0-1.3-.306-2.293-.842-2.905-.458-.688-1.3-.994-2.37-.994zm13.153 1.53c-.46-.46-.918-.842-1.453-1.148-.535-.306-1.147-.382-1.835-.382-.842 0-1.606.23-2.295.611-.688.46-1.223.995-1.605 1.76-.383.764-.612 1.529-.612 2.446 0 .842.153 1.683.535 2.37.382.69.918 1.3 1.606 1.76.688.459 1.453.612 2.294.612.612 0 1.224-.153 1.835-.383.612-.306 1.07-.612 1.453-1.07h.077v1.07c0 1.377-.23 2.37-.765 2.906-.535.612-1.223.918-2.218.918-.917 0-1.605-.23-2.217-.765-.536-.535-.841-1.147-.841-1.988h-1.606c0 1.223.459 2.217 1.3 2.982.84.765 1.988 1.147 3.288 1.147 1.3 0 2.37-.382 3.288-1.223.918-.842 1.3-1.989 1.3-3.518v-9.406h-1.606v1.3h.077zm-.765 5.581c-.612.612-1.3.995-2.294.995-.918 0-1.682-.306-2.218-.995-.611-.688-.84-1.452-.84-2.447 0-.611.152-1.147.381-1.682.306-.535.612-.918 1.148-1.147a2.757 2.757 0 0 1 1.529-.459c.918 0 1.682.306 2.294.918.612.612.918 1.376.918 2.37-.077.995-.306 1.836-.918 2.447zm12.541-5.582c-.459-.459-.917-.841-1.453-1.147-.535-.306-1.147-.382-1.835-.382-1.3 0-2.37.459-3.212 1.376-.84.918-1.3 2.065-1.3 3.441 0 1.3.46 2.447 1.3 3.365.841.918 1.912 1.377 3.212 1.377 1.3 0 2.447-.536 3.212-1.53h.076v1.224h1.606v-9.024h-1.606v1.3zm-.84 5.659c-.613.612-1.3.918-2.295.918-.918 0-1.606-.306-2.218-.995-.611-.688-.84-1.452-.84-2.447 0-.917.305-1.682.917-2.294.612-.611 1.3-.917 2.14-.917.919 0 1.683.306 2.295.917.612.612.918 1.377.918 2.37 0 .995-.306 1.836-.918 2.448zm8.334-13.994c-.611 0-1.147.153-1.606.382a1.92 1.92 0 0 0-.917.994c-.23.46-.306.994-.306 1.683v4.053h-.918v1.376h.918v7.647h1.606v-7.647h2.37v-1.453h-2.37v-3.67c0-.765.076-1.224.306-1.53.23-.306.535-.382.994-.382.23 0 .382 0 .535.076.153.077.306.077.535.153v-1.53c-.153-.076-.305-.076-.535-.152h-.612zm8.642 7.417a4.746 4.746 0 0 0-2.371-.611c-.918 0-1.759.23-2.447.611-.688.46-1.224.995-1.606 1.76-.382.764-.535 1.605-.535 2.523 0 .841.153 1.606.535 2.294s.918 1.3 1.606 1.682c.688.46 1.53.612 2.447.612.994 0 1.835-.23 2.523-.688.765-.459 1.377-1.07 1.76-1.912l-1.377-.765c-.383.689-.841 1.147-1.3 1.453-.459.306-.994.46-1.606.46-.841 0-1.606-.307-2.141-.842-.612-.535-.918-1.3-.918-2.218h7.418v-.306c0-.917-.153-1.758-.536-2.447-.229-.611-.764-1.147-1.452-1.606zm-5.2 3.136c.076-.688.458-1.224.994-1.683.611-.458 1.223-.688 1.835-.688.688 0 1.3.23 1.759.688.535.46.84.995.994 1.683h-5.582zm5.658-8.03l-1.682-.764-2.37 3.135.994.535 3.058-2.906zm3.824 13.536h1.606v-15.83h-1.606v15.83zm11.547-7.724c-.459-.459-.918-.841-1.453-1.147-.535-.306-1.147-.382-1.835-.382-1.3 0-2.37.459-3.212 1.376-.841.918-1.3 2.065-1.3 3.441 0 1.3.459 2.447 1.3 3.365.841.918 1.912 1.377 3.212 1.377 1.3 0 2.447-.536 3.211-1.53h.077v1.224h1.606v-9.024h-1.606v1.3zm-.765 5.659c-.612.612-1.3.918-2.294.918-.918 0-1.606-.306-2.218-.995-.611-.688-.84-1.452-.84-2.447 0-.917.305-1.682.917-2.294.612-.611 1.3-.917 2.141-.917.918 0 1.682.306 2.294.917.612.612.918 1.377.918 2.37-.077.995-.382 1.836-.918 2.448zm12.236-5.659c-.46-.459-.918-.841-1.453-1.147-.536-.306-1.147-.382-1.836-.382-.84 0-1.606.23-2.294.611-.688.46-1.223.995-1.606 1.76-.382.764-.611 1.529-.611 2.446 0 .842.152 1.683.535 2.37.382.69.917 1.3 1.606 1.76.688.459 1.453.612 2.294.612.612 0 1.223-.153 1.835-.383.612-.306 1.07-.612 1.453-1.07h.077v1.07c0 1.377-.23 2.37-.765 2.906-.535.612-1.224.918-2.218.918-.917 0-1.606-.23-2.217-.765-.536-.535-.842-1.147-.842-1.988h-1.606c0 1.223.46 2.217 1.3 2.982.842.765 1.989 1.147 3.289 1.147s2.37-.382 3.288-1.223c.918-.842 1.3-1.989 1.3-3.518v-9.406h-1.606v1.3h.077zm-.765 5.582c-.612.612-1.3.995-2.294.995-.918 0-1.683-.306-2.218-.995-.612-.688-.841-1.452-.841-2.447 0-.611.153-1.147.382-1.682.306-.535.612-.918 1.147-1.147a2.757 2.757 0 0 1 1.53-.459c.917 0 1.682.306 2.294.918.612.612.917 1.376.917 2.37-.076.995-.382 1.836-.917 2.447zm11.7 2.142h1.682V13.765h-1.682v14.453zm-.688-16.136l.994.536 3.059-2.983-1.683-.764-2.37 3.211zm8.411 10.63c-1.07-.383-1.606-.841-1.606-1.3a.8.8 0 0 1 .383-.688c.23-.23.535-.306.765-.306.229 0 .458.076.688.23.23.152.382.381.535.687l1.377-.688c-.23-.535-.612-.918-1.071-1.223-.459-.306-.918-.46-1.453-.46-.765 0-1.453.23-1.988.765-.536.46-.765 1.071-.765 1.836 0 .764.306 1.376.918 1.759a7.91 7.91 0 0 0 1.606.764c.688.23 1.147.536 1.376.765.23.23.382.535.382.841 0 .382-.153.765-.382.994-.306.23-.612.383-1.07.383-.46 0-.842-.077-1.148-.306-.305-.23-.535-.612-.84-1.147l-1.454.611c.23.765.689 1.3 1.3 1.683a3.85 3.85 0 0 0 2.065.612c.612 0 1.224-.153 1.682-.46.536-.305.842-.688 1.147-1.07.23-.459.383-.918.383-1.376 0-.689-.23-1.224-.612-1.606-.459-.536-1.224-.918-2.218-1.3zm4.97 5.506h1.607v-15.83h-1.606v15.83zm11.624-7.724c-.458-.459-.917-.841-1.452-1.147-.536-.306-1.148-.382-1.836-.382-1.3 0-2.37.459-3.212 1.376-.84.918-1.3 2.065-1.3 3.441 0 1.3.46 2.447 1.3 3.365.842.918 1.912 1.377 3.212 1.377 1.3 0 2.447-.536 3.212-1.53h.076v1.224h1.606v-9.024h-1.606v1.3zm-.84 5.659c-.612.612-1.3.918-2.295.918-.917 0-1.606-.306-2.217-.995-.612-.688-.842-1.452-.842-2.447 0-.917.306-1.682.918-2.294.612-.611 1.3-.917 2.141-.917.918 0 1.683.306 2.294.917.612.612.918 1.377.918 2.37 0 .995-.306 1.836-.918 2.448zm9.711-7.188c-.612 0-1.07.153-1.53.382-.458.23-.84.535-1.146.994h-.077v-1.07h-1.606v9.023h1.606V23.86c0-1.147.153-1.988.535-2.6.383-.535.995-.841 1.836-.841.764 0 1.3.23 1.53.611.305.383.458 1.071.458 1.989v5.276h1.606v-5.43c0-1.3-.306-2.293-.841-2.905-.536-.688-1.3-.994-2.37-.994zm13.23 1.53c-.46-.46-.918-.842-1.453-1.148-.536-.306-1.148-.382-1.836-.382-.84 0-1.682.23-2.37.611-.689.383-1.224.995-1.606 1.76-.383.764-.536 1.529-.536 2.446 0 .842.153 1.683.536 2.37.382.69.917 1.3 1.606 1.76.688.459 1.453.612 2.294.612.688 0 1.223-.153 1.835-.383a3.471 3.471 0 0 0 1.453-1.147h.076v1.224h1.606v-15.83h-1.606v8.106zm-.765 5.658c-.612.612-1.377.918-2.294.918-.918 0-1.683-.306-2.218-.995-.612-.688-.841-1.452-.841-2.447 0-.917.306-1.682.917-2.294.612-.611 1.3-.917 2.218-.917.918 0 1.682.306 2.294.917.612.612.918 1.377.918 2.37-.153.995-.459 1.836-.994 2.448zm10.476-2.218c-.382-.459-1.147-.84-2.217-1.223-1.071-.383-1.606-.841-1.606-1.3 0-.306.153-.536.382-.688.23-.23.535-.306.841-.306.23 0 .46.076.688.23.23.152.383.381.536.687l1.376-.688c-.23-.535-.612-.918-1.07-1.223-.46-.306-.918-.46-1.453-.46-.841 0-1.453.23-1.989.765a2.327 2.327 0 0 0-.84 1.836c0 .764.305 1.376.917 1.759.382.229.918.535 1.606.764.688.23 1.147.536 1.376.765.23.23.383.535.383.841 0 .382-.153.765-.46.994-.305.23-.61.383-1.07.383-.459 0-.84-.077-1.147-.306-.306-.23-.535-.612-.841-1.147l-1.453.611c.306.765.688 1.3 1.3 1.683a3.85 3.85 0 0 0 2.065.612c.612 0 1.223-.153 1.682-.46.535-.305.841-.688 1.147-1.07.23-.459.383-.918.383-1.376.076-.689-.153-1.224-.536-1.683z" fill="#474647"/><path d="M5.124 21.335L21.335 4.818c2.447-2.447 5.66-2.065 6.883.458L38.77 27.453c2.447 5.659-1.453 10.782-8.26 8.641L5.889 27.071c-2.83-1.147-3.517-2.983-.764-5.736z" fill="#1B648F"/><path d="M41.065 26.535L30.359 4.205c-2.141-4.434-7.418-4.51-10.783-1.07L3.212 19.882c-3.977 3.9-2.906 7.724 1.682 9.483l24.93 8.947c9.176 2.982 14.529-4.665 11.24-11.777zM30.512 37.547l-24.93-9.023C.918 26.688.918 23.4 4.13 20.418l16.289-16.67c2.753-2.677 7.264-2.83 9.253 1.3l10.705 22.328c2.6 6.042-2.217 12.389-9.864 10.171z" fill="#9B9A9A"/><path d="M21.641 9.865V16.9h-4.359v7.8l-2.906-2.141v-3.824h-3.823v1.912h1.835V23.4l4.97 4.053h1.913v-8.641h2.37V29.9h1.988V18.812h1.989v-1.988h-1.989V9.788l2.295 2.218 1.376-1.377-2.753-2.676-2.906 1.912zm6.118 17.665h1.988v-8.795H27.76v8.794zm2.6-13H28.37l-.689 2.37h1.606l1.07-2.37z" fill="#FFF"/></g></svg>